%TF.GenerationSoftware,KiCad,Pcbnew,10.0.6-10.0.6~ubuntu26.04.1*%
%TF.CreationDate,2026-10-05T17:38:54-04:00*%
%TF.ProjectId,board_b,626f6172-645f-4622-9e6b-696361645f70,rev?*%
%TF.SameCoordinates,Original*%
%TF.FileFunction,Copper,L1,Top*%
%TF.FilePolarity,Positive*%
%FSLAX46Y46*%
G04 Gerber Fmt 4.6, Leading zero omitted, Abs format (unit mm)*
G04 Created by KiCad (PCBNEW 10.0.6-10.0.6~ubuntu26.04.1) date 2026-10-05 17:38:54*
%MOMM*%
%LPD*%
G01*
G04 APERTURE LIST*
G04 Aperture macros list*
%AMRoundRect*
0 Rectangle with rounded corners*
0 $1 Rounding radius*
0 $2 $3 $4 $5 $6 $7 $8 $9 X,Y pos of 4 corners*
0 Add a 4 corners polygon primitive as box body*
4,1,4,$2,$3,$4,$5,$6,$7,$8,$9,$2,$3,0*
0 Add four circle primitives for the rounded corners*
1,1,$1+$1,$2,$3*
1,1,$1+$1,$4,$5*
1,1,$1+$1,$6,$7*
1,1,$1+$1,$8,$9*
0 Add four rect primitives between the rounded corners*
20,1,$1+$1,$2,$3,$4,$5,0*
20,1,$1+$1,$4,$5,$6,$7,0*
20,1,$1+$1,$6,$7,$8,$9,0*
20,1,$1+$1,$8,$9,$2,$3,0*%
%AMFreePoly0*
4,1,23,0.550000,-0.750000,0.000000,-0.750000,0.000000,-0.745722,-0.065263,-0.745722,-0.191342,-0.711940,-0.304381,-0.646677,-0.396677,-0.554381,-0.461940,-0.441342,-0.495722,-0.315263,-0.495722,-0.250000,-0.500000,-0.250000,-0.500000,0.250000,-0.495722,0.250000,-0.495722,0.315263,-0.461940,0.441342,-0.396677,0.554381,-0.304381,0.646677,-0.191342,0.711940,-0.065263,0.745722,0.000000,0.745722,
0.000000,0.750000,0.550000,0.750000,0.550000,-0.750000,0.550000,-0.750000,$1*%
%AMFreePoly1*
4,1,23,0.000000,0.745722,0.065263,0.745722,0.191342,0.711940,0.304381,0.646677,0.396677,0.554381,0.461940,0.441342,0.495722,0.315263,0.495722,0.250000,0.500000,0.250000,0.500000,-0.250000,0.495722,-0.250000,0.495722,-0.315263,0.461940,-0.441342,0.396677,-0.554381,0.304381,-0.646677,0.191342,-0.711940,0.065263,-0.745722,0.000000,-0.745722,0.000000,-0.750000,-0.550000,-0.750000,
-0.550000,0.750000,0.000000,0.750000,0.000000,0.745722,0.000000,0.745722,$1*%
%AMFreePoly2*
4,1,23,0.500000,-0.750000,0.000000,-0.750000,0.000000,-0.745722,-0.065263,-0.745722,-0.191342,-0.711940,-0.304381,-0.646677,-0.396677,-0.554381,-0.461940,-0.441342,-0.495722,-0.315263,-0.495722,-0.250000,-0.500000,-0.250000,-0.500000,0.250000,-0.495722,0.250000,-0.495722,0.315263,-0.461940,0.441342,-0.396677,0.554381,-0.304381,0.646677,-0.191342,0.711940,-0.065263,0.745722,0.000000,0.745722,
0.000000,0.750000,0.500000,0.750000,0.500000,-0.750000,0.500000,-0.750000,$1*%
%AMFreePoly3*
4,1,23,0.000000,0.745722,0.065263,0.745722,0.191342,0.711940,0.304381,0.646677,0.396677,0.554381,0.461940,0.441342,0.495722,0.315263,0.495722,0.250000,0.500000,0.250000,0.500000,-0.250000,0.495722,-0.250000,0.495722,-0.315263,0.461940,-0.441342,0.396677,-0.554381,0.304381,-0.646677,0.191342,-0.711940,0.065263,-0.745722,0.000000,-0.745722,0.000000,-0.750000,-0.500000,-0.750000,
-0.500000,0.750000,0.000000,0.750000,0.000000,0.745722,0.000000,0.745722,$1*%
G04 Aperture macros list end*
%TA.AperFunction,EtchedComponent*%
%ADD10C,0.000000*%
%TD*%
%TA.AperFunction,ComponentPad*%
%ADD11RoundRect,0.262500X-0.262500X-0.262500X0.262500X-0.262500X0.262500X0.262500X-0.262500X0.262500X0*%
%TD*%
%TA.AperFunction,ComponentPad*%
%ADD12C,1.050000*%
%TD*%
%TA.AperFunction,SMDPad,CuDef*%
%ADD13RoundRect,0.225000X0.250000X-0.225000X0.250000X0.225000X-0.250000X0.225000X-0.250000X-0.225000X0*%
%TD*%
%TA.AperFunction,SMDPad,CuDef*%
%ADD14FreePoly0,0.000000*%
%TD*%
%TA.AperFunction,SMDPad,CuDef*%
%ADD15R,1.000000X1.500000*%
%TD*%
%TA.AperFunction,SMDPad,CuDef*%
%ADD16FreePoly1,0.000000*%
%TD*%
%TA.AperFunction,SMDPad,CuDef*%
%ADD17FreePoly2,90.000000*%
%TD*%
%TA.AperFunction,SMDPad,CuDef*%
%ADD18FreePoly3,90.000000*%
%TD*%
%TA.AperFunction,SMDPad,CuDef*%
%ADD19RoundRect,0.200000X0.275000X-0.200000X0.275000X0.200000X-0.275000X0.200000X-0.275000X-0.200000X0*%
%TD*%
%TA.AperFunction,SMDPad,CuDef*%
%ADD20FreePoly0,270.000000*%
%TD*%
%TA.AperFunction,SMDPad,CuDef*%
%ADD21R,1.500000X1.000000*%
%TD*%
%TA.AperFunction,SMDPad,CuDef*%
%ADD22FreePoly1,270.000000*%
%TD*%
%TA.AperFunction,ComponentPad*%
%ADD23R,1.700000X1.700000*%
%TD*%
%TA.AperFunction,ComponentPad*%
%ADD24C,1.700000*%
%TD*%
%TA.AperFunction,ViaPad*%
%ADD25C,0.600000*%
%TD*%
%TA.AperFunction,Conductor*%
%ADD26C,0.400000*%
%TD*%
%TA.AperFunction,Conductor*%
%ADD27C,0.300000*%
%TD*%
%TA.AperFunction,Conductor*%
%ADD28C,0.200000*%
%TD*%
%TA.AperFunction,Conductor*%
%ADD29C,0.150000*%
%TD*%
G04 APERTURE END LIST*
D10*
%TA.AperFunction,EtchedComponent*%
%TO.C,JP5*%
G36*
X91000000Y-115100000D02*
G01*
X90500000Y-115100000D01*
X90500000Y-114500000D01*
X91000000Y-114500000D01*
X91000000Y-115100000D01*
G37*
%TD.AperFunction*%
%TA.AperFunction,EtchedComponent*%
%TO.C,JP1*%
G36*
X107100000Y-109150000D02*
G01*
X106500000Y-109150000D01*
X106500000Y-108650000D01*
X107100000Y-108650000D01*
X107100000Y-109150000D01*
G37*
%TD.AperFunction*%
%TA.AperFunction,EtchedComponent*%
%TO.C,JP2*%
G36*
X100900000Y-110400000D02*
G01*
X100300000Y-110400000D01*
X100300000Y-109900000D01*
X100900000Y-109900000D01*
X100900000Y-110400000D01*
G37*
%TD.AperFunction*%
%TA.AperFunction,EtchedComponent*%
%TO.C,JP4*%
G36*
X97900000Y-111650000D02*
G01*
X97300000Y-111650000D01*
X97300000Y-111150000D01*
X97900000Y-111150000D01*
X97900000Y-111650000D01*
G37*
%TD.AperFunction*%
%TA.AperFunction,EtchedComponent*%
%TO.C,JP3*%
G36*
X95000000Y-111650000D02*
G01*
X94400000Y-111650000D01*
X94400000Y-111150000D01*
X95000000Y-111150000D01*
X95000000Y-111650000D01*
G37*
%TD.AperFunction*%
%TD*%
D11*
%TO.P,J1,1*%
%TO.N,/VDD*%
X100000000Y-100000000D03*
D12*
%TO.P,J1,2*%
%TO.N,/3V3*%
X98730000Y-100000000D03*
%TO.P,J1,3*%
%TO.N,/GND*%
X97460000Y-100000000D03*
%TO.P,J1,4*%
%TO.N,/SH_GPIO0*%
X96190000Y-100000000D03*
%TO.P,J1,5*%
%TO.N,/GPIO1*%
X94920000Y-100000000D03*
%TO.P,J1,6*%
%TO.N,/GPIO2*%
X93650000Y-100000000D03*
%TO.P,J1,7*%
%TO.N,/GPIO3*%
X92380000Y-100000000D03*
D11*
%TO.P,J1,11*%
%TO.N,/CS*%
X100000000Y-117780000D03*
D12*
%TO.P,J1,12*%
%TO.N,/SCK*%
X98730000Y-117780000D03*
%TO.P,J1,13*%
%TO.N,/SDO*%
X97460000Y-117780000D03*
%TO.P,J1,14*%
%TO.N,/SDI*%
X96190000Y-117780000D03*
%TO.P,J1,15*%
%TO.N,/GPIO4*%
X94920000Y-117780000D03*
%TO.P,J1,16*%
%TO.N,/GPIO5*%
X93650000Y-117780000D03*
%TO.P,J1,17*%
%TO.N,/GPIO6*%
X92380000Y-117780000D03*
%TO.P,J1,18*%
%TO.N,/SH_GPIO7*%
X91110000Y-117780000D03*
%TO.P,J1,19*%
%TO.N,/PROM*%
X89840000Y-117780000D03*
%TD*%
D13*
%TO.P,C3,1*%
%TO.N,/3V3*%
X97500000Y-103775000D03*
%TO.P,C3,2*%
%TO.N,/GND*%
X97500000Y-102225000D03*
%TD*%
%TO.P,C4,1*%
%TO.N,/3V3*%
X97500000Y-106775000D03*
%TO.P,C4,2*%
%TO.N,/GND*%
X97500000Y-105225000D03*
%TD*%
D14*
%TO.P,JP5,1*%
%TO.N,/SH_GPIO7*%
X90100000Y-114800000D03*
D15*
%TO.P,JP5,2*%
%TO.N,/D7*%
X91400000Y-114800000D03*
D16*
%TO.P,JP5,3*%
%TO.N,/PROM*%
X92700000Y-114800000D03*
%TD*%
D13*
%TO.P,C1,1*%
%TO.N,/VDD*%
X100600000Y-103775000D03*
%TO.P,C1,2*%
%TO.N,/GND*%
X100600000Y-102225000D03*
%TD*%
D17*
%TO.P,JP1,1*%
%TO.N,/3V3*%
X106800000Y-109550000D03*
D18*
%TO.P,JP1,2*%
%TO.N,/VDD*%
X106800000Y-108250000D03*
%TD*%
D19*
%TO.P,R4,1*%
%TO.N,/3V3*%
X101000000Y-115625000D03*
%TO.P,R4,2*%
%TO.N,/CS*%
X101000000Y-113975000D03*
%TD*%
%TO.P,R3,1*%
%TO.N,/3V3*%
X92600000Y-111825000D03*
%TO.P,R3,2*%
%TO.N,/PROM*%
X92600000Y-110175000D03*
%TD*%
D20*
%TO.P,JP2,1*%
%TO.N,/SH_GPIO0*%
X100600000Y-109500000D03*
D21*
%TO.P,JP2,2*%
%TO.N,/D0*%
X100600000Y-110800000D03*
D22*
%TO.P,JP2,3*%
%TO.N,/CS*%
X100600000Y-112100000D03*
%TD*%
D17*
%TO.P,JP4,1*%
%TO.N,/3V3*%
X97600000Y-112050000D03*
D18*
%TO.P,JP4,2*%
%TO.N,/PU_SCL*%
X97600000Y-110750000D03*
%TD*%
D19*
%TO.P,R2,1*%
%TO.N,/PU_SCL*%
X97600000Y-115625000D03*
%TO.P,R2,2*%
%TO.N,/SCK*%
X97600000Y-113975000D03*
%TD*%
D23*
%TO.P,J3,1*%
%TO.N,/3V3*%
X110000000Y-107600000D03*
D24*
%TO.P,J3,2*%
%TO.N,/VDD*%
X110000000Y-110140000D03*
%TD*%
D19*
%TO.P,R1,1*%
%TO.N,/PU_SDA*%
X94700000Y-115625000D03*
%TO.P,R1,2*%
%TO.N,/SDI*%
X94700000Y-113975000D03*
%TD*%
D17*
%TO.P,JP3,1*%
%TO.N,/3V3*%
X94700000Y-112050000D03*
D18*
%TO.P,JP3,2*%
%TO.N,/PU_SDA*%
X94700000Y-110750000D03*
%TD*%
D13*
%TO.P,C2,1*%
%TO.N,/VDD*%
X100600000Y-106775000D03*
%TO.P,C2,2*%
%TO.N,/GND*%
X100600000Y-105225000D03*
%TD*%
D23*
%TO.P,U1,1*%
%TO.N,/D0*%
X102940000Y-101270000D03*
D24*
%TO.P,U1,2*%
%TO.N,/GPIO1*%
X102940000Y-103810000D03*
%TO.P,U1,3*%
%TO.N,/GPIO2*%
X102940000Y-106350000D03*
%TO.P,U1,4*%
%TO.N,/GPIO3*%
X102940000Y-108890000D03*
%TO.P,U1,5*%
%TO.N,/GPIO4*%
X102940000Y-111430000D03*
%TO.P,U1,6*%
%TO.N,/GPIO5*%
X102940000Y-113970000D03*
%TO.P,U1,7*%
%TO.N,/GPIO6*%
X102940000Y-116510000D03*
%TO.P,U1,8*%
%TO.N,/D7*%
X87700000Y-116510000D03*
%TO.P,U1,9*%
%TO.N,/SCK*%
X87700000Y-113970000D03*
%TO.P,U1,10*%
%TO.N,/SDO*%
X87700000Y-111430000D03*
%TO.P,U1,11*%
%TO.N,/SDI*%
X87700000Y-108890000D03*
%TO.P,U1,12*%
%TO.N,/3V3*%
X87700000Y-106350000D03*
%TO.P,U1,13*%
%TO.N,/GND*%
X87700000Y-103810000D03*
%TO.P,U1,14*%
%TO.N,unconnected-(U1-5V-Pad14)*%
X87700000Y-101270000D03*
%TD*%
D25*
%TO.N,/GND*%
X99667800Y-103812800D03*
%TO.N,/SH_GPIO0*%
X91594900Y-108702400D03*
%TO.N,/PROM*%
X91485100Y-110175000D03*
X90953400Y-116424100D03*
%TO.N,/D0*%
X104370100Y-104264000D03*
X101600200Y-108873200D03*
%TO.N,/PU_SDA*%
X95924400Y-115608800D03*
X95924400Y-109577500D03*
%TO.N,/PU_SCL*%
X98826000Y-111299800D03*
X96896300Y-114921300D03*
%TD*%
%TO.N,/VDD*%
D26*
X100600000Y-103775000D02*
X100818400Y-103993400D01*
D27*
X101426100Y-101985600D02*
X101583000Y-102142500D01*
D26*
X101739800Y-102299300D02*
X101739800Y-102374900D01*
X106249100Y-110453900D02*
X105686900Y-109891700D01*
D27*
X101853900Y-104421200D02*
X101853900Y-105154800D01*
D26*
X100193900Y-100193900D02*
X101426100Y-100193900D01*
X100000000Y-100000000D02*
X100193900Y-100193900D01*
D27*
X101739800Y-102374900D02*
X100812900Y-103301800D01*
D26*
X101583000Y-102142500D02*
X101739800Y-102299300D01*
D27*
X101426100Y-100193900D02*
X101426100Y-101985600D01*
D26*
X101853900Y-105521100D02*
X100600000Y-106775000D01*
X100818400Y-103993400D02*
X101426100Y-103993400D01*
X105686900Y-109891700D02*
X105686900Y-108893400D01*
X106330300Y-108250000D02*
X106800000Y-108250000D01*
D27*
X101426100Y-103993400D02*
X101853900Y-104421200D01*
X100812900Y-103301800D02*
X100600000Y-103301800D01*
D26*
X101853900Y-105154800D02*
X101853900Y-105521100D01*
X100600000Y-103301800D02*
X100600000Y-103775000D01*
X109686100Y-110453900D02*
X106249100Y-110453900D01*
X110000000Y-110140000D02*
X109686100Y-110453900D01*
X105686900Y-108893400D02*
X106330300Y-108250000D01*
%TO.N,/3V3*%
X98343400Y-105931600D02*
X98343400Y-104618400D01*
X97600000Y-112225000D02*
X101000000Y-115625000D01*
X110000000Y-107600000D02*
X110000000Y-108801700D01*
X110000000Y-108801700D02*
X109098300Y-108801700D01*
X92084900Y-111825000D02*
X92600000Y-111825000D01*
D27*
X107249800Y-109100200D02*
X106800000Y-109550000D01*
D26*
X97500000Y-106775000D02*
X89930000Y-106775000D01*
X109098300Y-108801700D02*
X108799800Y-109100200D01*
X100031800Y-107620000D02*
X105754800Y-107620000D01*
X98343400Y-104618400D02*
X97500000Y-103775000D01*
X97600000Y-112050000D02*
X97600000Y-112225000D01*
X108594400Y-107396100D02*
X108798300Y-107600000D01*
X89027500Y-107677500D02*
X89027500Y-108767600D01*
X98730000Y-102545000D02*
X97500000Y-103775000D01*
X110000000Y-107600000D02*
X108798300Y-107600000D01*
X97500000Y-106775000D02*
X98343400Y-105931600D01*
X89027500Y-108767600D02*
X92084900Y-111825000D01*
X92825000Y-112050000D02*
X92600000Y-111825000D01*
X89930000Y-106775000D02*
X89027500Y-107677500D01*
X97600000Y-112050000D02*
X94700000Y-112050000D01*
X105978700Y-107396100D02*
X108594400Y-107396100D01*
X98730000Y-100000000D02*
X98730000Y-102545000D01*
D27*
X108799800Y-109100200D02*
X107249800Y-109100200D01*
D26*
X98343400Y-105931600D02*
X100031800Y-107620000D01*
X94700000Y-112050000D02*
X92825000Y-112050000D01*
X105754800Y-107620000D02*
X105978700Y-107396100D01*
X87700000Y-106350000D02*
X89027500Y-107677500D01*
%TO.N,/GND*%
X96669400Y-103055600D02*
X96669400Y-103810000D01*
X87700000Y-103810000D02*
X96669400Y-103810000D01*
X96669400Y-103810000D02*
X96669400Y-104394400D01*
X97460000Y-102185000D02*
X97500000Y-102225000D01*
X97500000Y-102225000D02*
X96669400Y-103055600D01*
X97460000Y-100000000D02*
X97460000Y-102185000D01*
X99743000Y-103082000D02*
X99743000Y-103812800D01*
X100600000Y-102225000D02*
X99743000Y-103082000D01*
X99743000Y-103812800D02*
X99743000Y-104368000D01*
X96669400Y-104394400D02*
X97500000Y-105225000D01*
X99743000Y-104368000D02*
X100600000Y-105225000D01*
X99667800Y-103812800D02*
X99743000Y-103812800D01*
%TO.N,/SH_GPIO0*%
D28*
X100600000Y-109500000D02*
X99802400Y-108702400D01*
X99802400Y-108702400D02*
X91594900Y-108702400D01*
%TO.N,/CS*%
X101000000Y-113975000D02*
X100600000Y-113575000D01*
X101611900Y-116168100D02*
X101726000Y-116168100D01*
X100600000Y-113575000D02*
X100600000Y-112100000D01*
X102191000Y-115325200D02*
X101000000Y-114134200D01*
X100000000Y-117780000D02*
X101611900Y-116168100D01*
D29*
X101726000Y-116168100D02*
X102191000Y-115703100D01*
X102191000Y-115703100D02*
X102191000Y-115325200D01*
D28*
X101000000Y-114134200D02*
X101000000Y-113975000D01*
%TO.N,/SCK*%
X96912300Y-113287300D02*
X88382700Y-113287300D01*
X88382700Y-113287300D02*
X87700000Y-113970000D01*
X98730000Y-115105000D02*
X97600000Y-113975000D01*
X98730000Y-117780000D02*
X98730000Y-115105000D01*
X97600000Y-113975000D02*
X96912300Y-113287300D01*
%TO.N,/SDI*%
X96476100Y-115380300D02*
X95070800Y-113975000D01*
X95070800Y-113975000D02*
X94700000Y-113975000D01*
X96476100Y-117493900D02*
X96476100Y-115380300D01*
X96190000Y-117780000D02*
X96476100Y-117493900D01*
%TO.N,/GPIO6*%
X100869600Y-118580400D02*
X102940000Y-116510000D01*
X92380000Y-117780000D02*
X93180400Y-118580400D01*
X93180400Y-118580400D02*
X100869600Y-118580400D01*
%TO.N,/SH_GPIO7*%
X90100000Y-116770000D02*
X90100000Y-114800000D01*
X91110000Y-117780000D02*
X90100000Y-116770000D01*
%TO.N,/PROM*%
X92600000Y-110175000D02*
X91485100Y-110175000D01*
X92700000Y-115202200D02*
X92700000Y-114800000D01*
X90953400Y-116424100D02*
X91478100Y-116424100D01*
X91478100Y-116424100D02*
X92700000Y-115202200D01*
%TO.N,/D0*%
X104370100Y-103664100D02*
X104370100Y-104264000D01*
D29*
X102124000Y-109629900D02*
X102124000Y-110016000D01*
X101600200Y-109106100D02*
X102124000Y-109629900D01*
X101576700Y-110563300D02*
X101576700Y-110800000D01*
D28*
X102940000Y-102371700D02*
X103077700Y-102371700D01*
X102940000Y-101270000D02*
X102940000Y-102371700D01*
X103077700Y-102371700D02*
X104370100Y-103664100D01*
D29*
X100600000Y-110800000D02*
X101576700Y-110800000D01*
D28*
X101600200Y-108873200D02*
X101600200Y-109106100D01*
X102124000Y-110016000D02*
X101839800Y-110300200D01*
D29*
X101839800Y-110300200D02*
X101576700Y-110563300D01*
%TO.N,/D7*%
D28*
X89777900Y-113798300D02*
X91400000Y-113798300D01*
X87700000Y-115876200D02*
X89777900Y-113798300D01*
X87700000Y-116510000D02*
X87700000Y-115876200D01*
X91400000Y-114800000D02*
X91400000Y-113798300D01*
%TO.N,/PU_SDA*%
X94700000Y-110750000D02*
X95872500Y-109577500D01*
X95924400Y-115608800D02*
X94716200Y-115608800D01*
X95872500Y-109577500D02*
X95924400Y-109577500D01*
X94716200Y-115608800D02*
X94700000Y-115625000D01*
%TO.N,/PU_SCL*%
X96896300Y-114921300D02*
X97600000Y-115625000D01*
D29*
X98149800Y-111299800D02*
X97600000Y-110750000D01*
X98826000Y-111299800D02*
X98149800Y-111299800D01*
%TD*%
%TA.AperFunction,Conductor*%
%TO.N,/GND*%
G36*
X110317683Y-96919407D02*
G01*
X110329496Y-96929496D01*
X111070504Y-97670504D01*
X111098281Y-97725021D01*
X111099500Y-97740508D01*
X111099500Y-106430220D01*
X111080593Y-106488411D01*
X111031093Y-106524375D01*
X110969907Y-106524375D01*
X110953540Y-106516437D01*
X110947742Y-106514035D01*
X110947740Y-106514034D01*
X110947736Y-106514033D01*
X110874684Y-106499501D01*
X110874674Y-106499500D01*
X109125326Y-106499500D01*
X109125325Y-106499500D01*
X109125315Y-106499501D01*
X109052263Y-106514033D01*
X109052257Y-106514035D01*
X108969400Y-106569397D01*
X108969397Y-106569400D01*
X108914035Y-106652257D01*
X108914033Y-106652263D01*
X108899501Y-106725315D01*
X108899500Y-106725327D01*
X108899500Y-106882487D01*
X108880593Y-106940678D01*
X108831093Y-106976642D01*
X108774913Y-106976642D01*
X108774554Y-106977980D01*
X108744073Y-106969812D01*
X108744073Y-106969813D01*
X108653709Y-106945600D01*
X105919391Y-106945600D01*
X105862102Y-106960950D01*
X105804812Y-106976301D01*
X105761396Y-107001366D01*
X105761397Y-107001367D01*
X105702087Y-107035609D01*
X105597192Y-107140504D01*
X105542676Y-107168281D01*
X105527189Y-107169500D01*
X103899190Y-107169500D01*
X103840999Y-107150593D01*
X103805035Y-107101093D01*
X103805035Y-107039907D01*
X103819097Y-107012309D01*
X103836324Y-106988598D01*
X103881232Y-106926788D01*
X103959873Y-106772445D01*
X103959874Y-106772440D01*
X103959876Y-106772438D01*
X104013401Y-106607706D01*
X104013402Y-106607702D01*
X104040500Y-106436614D01*
X104040500Y-106263385D01*
X104013402Y-106092297D01*
X104013401Y-106092293D01*
X103959876Y-105927561D01*
X103959874Y-105927558D01*
X103959873Y-105927557D01*
X103959873Y-105927555D01*
X103881232Y-105773212D01*
X103779414Y-105633072D01*
X103656928Y-105510586D01*
X103516788Y-105408768D01*
X103516787Y-105408767D01*
X103516785Y-105408766D01*
X103362441Y-105330125D01*
X103362438Y-105330123D01*
X103197706Y-105276598D01*
X103197702Y-105276597D01*
X103026614Y-105249500D01*
X103026611Y-105249500D01*
X102853389Y-105249500D01*
X102853386Y-105249500D01*
X102682297Y-105276597D01*
X102682293Y-105276598D01*
X102517561Y-105330123D01*
X102517558Y-105330125D01*
X102448345Y-105365391D01*
X102387913Y-105374962D01*
X102333396Y-105347184D01*
X102305619Y-105292668D01*
X102304400Y-105277181D01*
X102304400Y-105095492D01*
X102304400Y-105095491D01*
X102273699Y-104980914D01*
X102267663Y-104970459D01*
X102254400Y-104920960D01*
X102254400Y-104857343D01*
X102273307Y-104799152D01*
X102322807Y-104763188D01*
X102383993Y-104763188D01*
X102398344Y-104769132D01*
X102517555Y-104829873D01*
X102517557Y-104829873D01*
X102517558Y-104829874D01*
X102517561Y-104829876D01*
X102682293Y-104883401D01*
X102682297Y-104883402D01*
X102853386Y-104910500D01*
X102853389Y-104910500D01*
X103026614Y-104910500D01*
X103197702Y-104883402D01*
X103197706Y-104883401D01*
X103362438Y-104829876D01*
X103362440Y-104829874D01*
X103362445Y-104829873D01*
X103516788Y-104751232D01*
X103656928Y-104649414D01*
X103755909Y-104550432D01*
X103810424Y-104522656D01*
X103870856Y-104532227D01*
X103911648Y-104570936D01*
X103929591Y-104602015D01*
X104032085Y-104704509D01*
X104032087Y-104704510D01*
X104032089Y-104704512D01*
X104157611Y-104776982D01*
X104157612Y-104776982D01*
X104157615Y-104776984D01*
X104297625Y-104814500D01*
X104297626Y-104814500D01*
X104442574Y-104814500D01*
X104442575Y-104814500D01*
X104582585Y-104776984D01*
X104582587Y-104776982D01*
X104582589Y-104776982D01*
X104708110Y-104704512D01*
X104708110Y-104704511D01*
X104708115Y-104704509D01*
X104810609Y-104602015D01*
X104835391Y-104559091D01*
X104883082Y-104476489D01*
X104883082Y-104476487D01*
X104883084Y-104476485D01*
X104920600Y-104336475D01*
X104920600Y-104191525D01*
X104883084Y-104051515D01*
X104883082Y-104051512D01*
X104883082Y-104051510D01*
X104810612Y-103925989D01*
X104810608Y-103925984D01*
X104749596Y-103864971D01*
X104721819Y-103810454D01*
X104720600Y-103794968D01*
X104720600Y-103617957D01*
X104720600Y-103617956D01*
X104696714Y-103528812D01*
X104650570Y-103448888D01*
X103741186Y-102539504D01*
X103713409Y-102484987D01*
X103722980Y-102424555D01*
X103766245Y-102381290D01*
X103811190Y-102370500D01*
X103814673Y-102370500D01*
X103814674Y-102370500D01*
X103887740Y-102355966D01*
X103970601Y-102300601D01*
X104025966Y-102217740D01*
X104040500Y-102144674D01*
X104040500Y-100395326D01*
X104025966Y-100322260D01*
X103997433Y-100279556D01*
X103970602Y-100239400D01*
X103970599Y-100239397D01*
X103887742Y-100184035D01*
X103887740Y-100184034D01*
X103887737Y-100184033D01*
X103887736Y-100184033D01*
X103814684Y-100169501D01*
X103814674Y-100169500D01*
X102065326Y-100169500D01*
X102065325Y-100169500D01*
X102039605Y-100174616D01*
X101992260Y-100184034D01*
X101992259Y-100184034D01*
X101985973Y-100185285D01*
X101925211Y-100178094D01*
X101880281Y-100136561D01*
X101871033Y-100113815D01*
X101845899Y-100020014D01*
X101845897Y-100020011D01*
X101845897Y-100020009D01*
X101786592Y-99917291D01*
X101786590Y-99917289D01*
X101786589Y-99917287D01*
X101702713Y-99833411D01*
X101702710Y-99833409D01*
X101702708Y-99833407D01*
X101599989Y-99774102D01*
X101599990Y-99774102D01*
X101586451Y-99770474D01*
X101485409Y-99743400D01*
X101485407Y-99743400D01*
X100870336Y-99743400D01*
X100812145Y-99724493D01*
X100776181Y-99674993D01*
X100771903Y-99654981D01*
X100768931Y-99627335D01*
X100768931Y-99627333D01*
X100717379Y-99489117D01*
X100628976Y-99371024D01*
X100628972Y-99371021D01*
X100510882Y-99282620D01*
X100412520Y-99245933D01*
X100372667Y-99231069D01*
X100372663Y-99231068D01*
X100372661Y-99231068D01*
X100345033Y-99228098D01*
X100311565Y-99224500D01*
X100311561Y-99224500D01*
X99688441Y-99224500D01*
X99688435Y-99224501D01*
X99627335Y-99231068D01*
X99627333Y-99231069D01*
X99489117Y-99282620D01*
X99371024Y-99371022D01*
X99371021Y-99371025D01*
X99364901Y-99379201D01*
X99314890Y-99414451D01*
X99253711Y-99413573D01*
X99228807Y-99399715D01*
X99228395Y-99400332D01*
X99224353Y-99397631D01*
X99224352Y-99397630D01*
X99097337Y-99312761D01*
X99097336Y-99312760D01*
X99097334Y-99312759D01*
X98956205Y-99254302D01*
X98806382Y-99224500D01*
X98806380Y-99224500D01*
X98653620Y-99224500D01*
X98653617Y-99224500D01*
X98503795Y-99254302D01*
X98503793Y-99254302D01*
X98362665Y-99312759D01*
X98362664Y-99312759D01*
X98235648Y-99397630D01*
X98235644Y-99397633D01*
X98127633Y-99505644D01*
X98127630Y-99505648D01*
X98042761Y-99632662D01*
X98027624Y-99669205D01*
X98006165Y-99701320D01*
X97757248Y-99950236D01*
X97739556Y-99884204D01*
X97700060Y-99815795D01*
X97644205Y-99759940D01*
X97575796Y-99720444D01*
X97509759Y-99702750D01*
X97906433Y-99306077D01*
X97850781Y-99268892D01*
X97700644Y-99206704D01*
X97541257Y-99175000D01*
X97378742Y-99175000D01*
X97219356Y-99206704D01*
X97219354Y-99206704D01*
X97069218Y-99268892D01*
X97013566Y-99306077D01*
X97410238Y-99702750D01*
X97344204Y-99720444D01*
X97275795Y-99759940D01*
X97219940Y-99815795D01*
X97180444Y-99884204D01*
X97162750Y-99950237D01*
X96913835Y-99701322D01*
X96892375Y-99669204D01*
X96877240Y-99632665D01*
X96877240Y-99632664D01*
X96856094Y-99601018D01*
X96792370Y-99505648D01*
X96684352Y-99397630D01*
X96557337Y-99312761D01*
X96557336Y-99312760D01*
X96557334Y-99312759D01*
X96416205Y-99254302D01*
X96266382Y-99224500D01*
X96266380Y-99224500D01*
X96113620Y-99224500D01*
X96113617Y-99224500D01*
X95963795Y-99254302D01*
X95963793Y-99254302D01*
X95822665Y-99312759D01*
X95822664Y-99312759D01*
X95695648Y-99397630D01*
X95695644Y-99397633D01*
X95625004Y-99468274D01*
X95570487Y-99496051D01*
X95510055Y-99486480D01*
X95484996Y-99468274D01*
X95414355Y-99397633D01*
X95414352Y-99397630D01*
X95287337Y-99312761D01*
X95287336Y-99312760D01*
X95287334Y-99312759D01*
X95146205Y-99254302D01*
X94996382Y-99224500D01*
X94996380Y-99224500D01*
X94843620Y-99224500D01*
X94843617Y-99224500D01*
X94693795Y-99254302D01*
X94693793Y-99254302D01*
X94552665Y-99312759D01*
X94552664Y-99312759D01*
X94425648Y-99397630D01*
X94425644Y-99397633D01*
X94355004Y-99468274D01*
X94300487Y-99496051D01*
X94240055Y-99486480D01*
X94214996Y-99468274D01*
X94144355Y-99397633D01*
X94144352Y-99397630D01*
X94017337Y-99312761D01*
X94017336Y-99312760D01*
X94017334Y-99312759D01*
X93876205Y-99254302D01*
X93726382Y-99224500D01*
X93726380Y-99224500D01*
X93573620Y-99224500D01*
X93573617Y-99224500D01*
X93423795Y-99254302D01*
X93423793Y-99254302D01*
X93282665Y-99312759D01*
X93282664Y-99312759D01*
X93155648Y-99397630D01*
X93155644Y-99397633D01*
X93085004Y-99468274D01*
X93030487Y-99496051D01*
X92970055Y-99486480D01*
X92944996Y-99468274D01*
X92874355Y-99397633D01*
X92874352Y-99397630D01*
X92747337Y-99312761D01*
X92747336Y-99312760D01*
X92747334Y-99312759D01*
X92606205Y-99254302D01*
X92456382Y-99224500D01*
X92456380Y-99224500D01*
X92303620Y-99224500D01*
X92303617Y-99224500D01*
X92153795Y-99254302D01*
X92153793Y-99254302D01*
X92012665Y-99312759D01*
X92012664Y-99312759D01*
X91885648Y-99397630D01*
X91885644Y-99397633D01*
X91777633Y-99505644D01*
X91777630Y-99505648D01*
X91692759Y-99632664D01*
X91692759Y-99632665D01*
X91634302Y-99773793D01*
X91634302Y-99773795D01*
X91604500Y-99923617D01*
X91604500Y-99923620D01*
X91604500Y-100076380D01*
X91625913Y-100184033D01*
X91634302Y-100226204D01*
X91634302Y-100226206D01*
X91692759Y-100367334D01*
X91692759Y-100367335D01*
X91735022Y-100430585D01*
X91777630Y-100494352D01*
X91885648Y-100602370D01*
X92012663Y-100687239D01*
X92153795Y-100745698D01*
X92303620Y-100775500D01*
X92303621Y-100775500D01*
X92456379Y-100775500D01*
X92456380Y-100775500D01*
X92606205Y-100745698D01*
X92747337Y-100687239D01*
X92874352Y-100602370D01*
X92944996Y-100531726D01*
X92999512Y-100503948D01*
X93059944Y-100513519D01*
X93085004Y-100531726D01*
X93155639Y-100602362D01*
X93155643Y-100602365D01*
X93155648Y-100602370D01*
X93282663Y-100687239D01*
X93423795Y-100745698D01*
X93573620Y-100775500D01*
X93573621Y-100775500D01*
X93726379Y-100775500D01*
X93726380Y-100775500D01*
X93876205Y-100745698D01*
X94017337Y-100687239D01*
X94144352Y-100602370D01*
X94214996Y-100531726D01*
X94269512Y-100503948D01*
X94329944Y-100513519D01*
X94355004Y-100531726D01*
X94425639Y-100602362D01*
X94425643Y-100602365D01*
X94425648Y-100602370D01*
X94552663Y-100687239D01*
X94693795Y-100745698D01*
X94843620Y-100775500D01*
X94843621Y-100775500D01*
X94996379Y-100775500D01*
X94996380Y-100775500D01*
X95146205Y-100745698D01*
X95287337Y-100687239D01*
X95414352Y-100602370D01*
X95484996Y-100531726D01*
X95539512Y-100503948D01*
X95599944Y-100513519D01*
X95625004Y-100531726D01*
X95695639Y-100602362D01*
X95695643Y-100602365D01*
X95695648Y-100602370D01*
X95822663Y-100687239D01*
X95963795Y-100745698D01*
X96113620Y-100775500D01*
X96113621Y-100775500D01*
X96266379Y-100775500D01*
X96266380Y-100775500D01*
X96416205Y-100745698D01*
X96557337Y-100687239D01*
X96684352Y-100602370D01*
X96792370Y-100494352D01*
X96877239Y-100367337D01*
X96892376Y-100330793D01*
X96913834Y-100298677D01*
X97162750Y-100049760D01*
X97180444Y-100115796D01*
X97219940Y-100184205D01*
X97275795Y-100240060D01*
X97344204Y-100279556D01*
X97410237Y-100297249D01*
X97013565Y-100693921D01*
X97069219Y-100731107D01*
X97219355Y-100793295D01*
X97378742Y-100824999D01*
X97378746Y-100825000D01*
X97541254Y-100825000D01*
X97541257Y-100824999D01*
X97700643Y-100793295D01*
X97700645Y-100793295D01*
X97850781Y-100731107D01*
X97906433Y-100693921D01*
X97509762Y-100297249D01*
X97575796Y-100279556D01*
X97644205Y-100240060D01*
X97700060Y-100184205D01*
X97739556Y-100115796D01*
X97757249Y-100049762D01*
X98006163Y-100298677D01*
X98027622Y-100330793D01*
X98042756Y-100367329D01*
X98042759Y-100367334D01*
X98042760Y-100367335D01*
X98042761Y-100367337D01*
X98127630Y-100494352D01*
X98235648Y-100602370D01*
X98235652Y-100602373D01*
X98239399Y-100605447D01*
X98238685Y-100606316D01*
X98273376Y-100650306D01*
X98279500Y-100684586D01*
X98279500Y-101543331D01*
X98260593Y-101601522D01*
X98211093Y-101637486D01*
X98149907Y-101637486D01*
X98120681Y-101622215D01*
X98009729Y-101538077D01*
X97875468Y-101485132D01*
X97791104Y-101475000D01*
X97675001Y-101475000D01*
X97675000Y-101475001D01*
X97675000Y-102126000D01*
X97656093Y-102184191D01*
X97606593Y-102220155D01*
X97576000Y-102225000D01*
X97500001Y-102225000D01*
X97500000Y-102225001D01*
X97500000Y-102301000D01*
X97481093Y-102359191D01*
X97431593Y-102395155D01*
X97401000Y-102400000D01*
X96725001Y-102400000D01*
X96725000Y-102400001D01*
X96725000Y-102491104D01*
X96735132Y-102575468D01*
X96788077Y-102709729D01*
X96875276Y-102824717D01*
X96875282Y-102824723D01*
X96990271Y-102911922D01*
X97046621Y-102934144D01*
X97093819Y-102973081D01*
X97109116Y-103032323D01*
X97086670Y-103089243D01*
X97044903Y-103118999D01*
X97032924Y-103123467D01*
X97019774Y-103128372D01*
X97019773Y-103128372D01*
X97019772Y-103128373D01*
X96910315Y-103210311D01*
X96910311Y-103210315D01*
X96828373Y-103319771D01*
X96780587Y-103447887D01*
X96774500Y-103504518D01*
X96774500Y-104045478D01*
X96774501Y-104045484D01*
X96780587Y-104102111D01*
X96780587Y-104102112D01*
X96780588Y-104102114D01*
X96828372Y-104230226D01*
X96910313Y-104339687D01*
X96977015Y-104389619D01*
X97012269Y-104439628D01*
X97011395Y-104500807D01*
X96977507Y-104547756D01*
X96875283Y-104625275D01*
X96875276Y-104625282D01*
X96788077Y-104740270D01*
X96735132Y-104874531D01*
X96725000Y-104958895D01*
X96725000Y-105049999D01*
X96725001Y-105050000D01*
X97401000Y-105050000D01*
X97459191Y-105068907D01*
X97495155Y-105118407D01*
X97500000Y-105149000D01*
X97500000Y-105301000D01*
X97481093Y-105359191D01*
X97431593Y-105395155D01*
X97401000Y-105400000D01*
X96725001Y-105400000D01*
X96725000Y-105400001D01*
X96725000Y-105491104D01*
X96735132Y-105575468D01*
X96788077Y-105709729D01*
X96875276Y-105824717D01*
X96875282Y-105824723D01*
X96990271Y-105911922D01*
X97046621Y-105934144D01*
X97093819Y-105973081D01*
X97109116Y-106032323D01*
X97086670Y-106089243D01*
X97044903Y-106118999D01*
X97032924Y-106123467D01*
X97019774Y-106128372D01*
X97019773Y-106128372D01*
X97019772Y-106128373D01*
X96910315Y-106210311D01*
X96910310Y-106210316D01*
X96854532Y-106284828D01*
X96804523Y-106320082D01*
X96775278Y-106324500D01*
X89870691Y-106324500D01*
X89825508Y-106336606D01*
X89780325Y-106348713D01*
X89780324Y-106348712D01*
X89756115Y-106355200D01*
X89653383Y-106414512D01*
X89097502Y-106970392D01*
X89042986Y-106998169D01*
X88982554Y-106988598D01*
X88957495Y-106970392D01*
X88772500Y-106785397D01*
X88744723Y-106730880D01*
X88748350Y-106684799D01*
X88753347Y-106669421D01*
X88773402Y-106607701D01*
X88776746Y-106586589D01*
X88800500Y-106436614D01*
X88800500Y-106263385D01*
X88773402Y-106092297D01*
X88773401Y-106092293D01*
X88719876Y-105927561D01*
X88719874Y-105927558D01*
X88719873Y-105927557D01*
X88719873Y-105927555D01*
X88641232Y-105773212D01*
X88539414Y-105633072D01*
X88416928Y-105510586D01*
X88276788Y-105408768D01*
X88276787Y-105408767D01*
X88276785Y-105408766D01*
X88122441Y-105330125D01*
X88122438Y-105330123D01*
X87957706Y-105276598D01*
X87957702Y-105276597D01*
X87786614Y-105249500D01*
X87786611Y-105249500D01*
X87613389Y-105249500D01*
X87613386Y-105249500D01*
X87442297Y-105276597D01*
X87442293Y-105276598D01*
X87277561Y-105330123D01*
X87277558Y-105330125D01*
X87123214Y-105408766D01*
X86983073Y-105510585D01*
X86860585Y-105633073D01*
X86758766Y-105773214D01*
X86680125Y-105927558D01*
X86680123Y-105927561D01*
X86626598Y-106092293D01*
X86626597Y-106092297D01*
X86599500Y-106263385D01*
X86599500Y-106436614D01*
X86626597Y-106607702D01*
X86626598Y-106607706D01*
X86680123Y-106772438D01*
X86680125Y-106772441D01*
X86736195Y-106882487D01*
X86758768Y-106926788D01*
X86860586Y-107066928D01*
X86983072Y-107189414D01*
X87123212Y-107291232D01*
X87277555Y-107369873D01*
X87277557Y-107369873D01*
X87277558Y-107369874D01*
X87277561Y-107369876D01*
X87442293Y-107423401D01*
X87442297Y-107423402D01*
X87613386Y-107450500D01*
X87613389Y-107450500D01*
X87786614Y-107450500D01*
X87957696Y-107423403D01*
X87957697Y-107423402D01*
X87957701Y-107423402D01*
X88034800Y-107398349D01*
X88095984Y-107398349D01*
X88135397Y-107422500D01*
X88548004Y-107835107D01*
X88575781Y-107889624D01*
X88577000Y-107905111D01*
X88577000Y-107972586D01*
X88558093Y-108030777D01*
X88508593Y-108066741D01*
X88447407Y-108066741D01*
X88419809Y-108052679D01*
X88320448Y-107980489D01*
X88276788Y-107948768D01*
X88122445Y-107870127D01*
X88122444Y-107870126D01*
X88122441Y-107870125D01*
X88122438Y-107870123D01*
X87957706Y-107816598D01*
X87957702Y-107816597D01*
X87786614Y-107789500D01*
X87786611Y-107789500D01*
X87613389Y-107789500D01*
X87613386Y-107789500D01*
X87442297Y-107816597D01*
X87442293Y-107816598D01*
X87277561Y-107870123D01*
X87277558Y-107870125D01*
X87123214Y-107948766D01*
X86983073Y-108050585D01*
X86860585Y-108173073D01*
X86758766Y-108313214D01*
X86680125Y-108467558D01*
X86680123Y-108467561D01*
X86626598Y-108632293D01*
X86626597Y-108632297D01*
X86599500Y-108803385D01*
X86599500Y-108976614D01*
X86626597Y-109147702D01*
X86626598Y-109147706D01*
X86680123Y-109312438D01*
X86680125Y-109312441D01*
X86736493Y-109423072D01*
X86758768Y-109466788D01*
X86860586Y-109606928D01*
X86983072Y-109729414D01*
X87123212Y-109831232D01*
X87277555Y-109909873D01*
X87277557Y-109909873D01*
X87277558Y-109909874D01*
X87277561Y-109909876D01*
X87442293Y-109963401D01*
X87442297Y-109963402D01*
X87613386Y-109990500D01*
X87613389Y-109990500D01*
X87786614Y-109990500D01*
X87957702Y-109963402D01*
X87957706Y-109963401D01*
X88122438Y-109909876D01*
X88122440Y-109909874D01*
X88122445Y-109909873D01*
X88276788Y-109831232D01*
X88416928Y-109729414D01*
X88539414Y-109606928D01*
X88641232Y-109466788D01*
X88719873Y-109312445D01*
X88722765Y-109303542D01*
X88758727Y-109254042D01*
X88816917Y-109235132D01*
X88875108Y-109254037D01*
X88886925Y-109264128D01*
X91808287Y-112185490D01*
X91911014Y-112244799D01*
X91911016Y-112244799D01*
X91916634Y-112248043D01*
X91915890Y-112249331D01*
X91950830Y-112276666D01*
X92002845Y-112347144D01*
X92002847Y-112347146D01*
X92002850Y-112347150D01*
X92002853Y-112347152D01*
X92002855Y-112347154D01*
X92112116Y-112427792D01*
X92112117Y-112427792D01*
X92112118Y-112427793D01*
X92240301Y-112472646D01*
X92270725Y-112475499D01*
X92270727Y-112475500D01*
X92270734Y-112475500D01*
X92659355Y-112475500D01*
X92684978Y-112478873D01*
X92765691Y-112500500D01*
X93791889Y-112500500D01*
X93850080Y-112519407D01*
X93866692Y-112535585D01*
X93867094Y-112535233D01*
X93869220Y-112537657D01*
X93869231Y-112537668D01*
X93869235Y-112537673D01*
X93962327Y-112630765D01*
X93962331Y-112630768D01*
X93962333Y-112630770D01*
X94015239Y-112671366D01*
X94015243Y-112671369D01*
X94129257Y-112737195D01*
X94129258Y-112737195D01*
X94129261Y-112737197D01*
X94151325Y-112746336D01*
X94197850Y-112786073D01*
X94212134Y-112845567D01*
X94188719Y-112902095D01*
X94136550Y-112934065D01*
X94113439Y-112936800D01*
X88336556Y-112936800D01*
X88311687Y-112943463D01*
X88286818Y-112950127D01*
X88286817Y-112950126D01*
X88247416Y-112960684D01*
X88247406Y-112960689D01*
X88245081Y-112962031D01*
X88243203Y-112962429D01*
X88241419Y-112963169D01*
X88241281Y-112962837D01*
X88185231Y-112974743D01*
X88150650Y-112964497D01*
X88122447Y-112950127D01*
X88122438Y-112950123D01*
X87957706Y-112896598D01*
X87957702Y-112896597D01*
X87786614Y-112869500D01*
X87786611Y-112869500D01*
X87613389Y-112869500D01*
X87613386Y-112869500D01*
X87442297Y-112896597D01*
X87442293Y-112896598D01*
X87277561Y-112950123D01*
X87277558Y-112950125D01*
X87123214Y-113028766D01*
X86983073Y-113130585D01*
X86860585Y-113253073D01*
X86758766Y-113393214D01*
X86680125Y-113547558D01*
X86680123Y-113547561D01*
X86626598Y-113712293D01*
X86626597Y-113712297D01*
X86599500Y-113883385D01*
X86599500Y-114056614D01*
X86626597Y-114227702D01*
X86626598Y-114227706D01*
X86680123Y-114392438D01*
X86680125Y-114392441D01*
X86680126Y-114392444D01*
X86680127Y-114392445D01*
X86758768Y-114546788D01*
X86860586Y-114686928D01*
X86983072Y-114809414D01*
X87123212Y-114911232D01*
X87277555Y-114989873D01*
X87277557Y-114989873D01*
X87277558Y-114989874D01*
X87277561Y-114989876D01*
X87442293Y-115043401D01*
X87442297Y-115043402D01*
X87613386Y-115070500D01*
X87771011Y-115070500D01*
X87829202Y-115089407D01*
X87865166Y-115138907D01*
X87865166Y-115200093D01*
X87841017Y-115239500D01*
X87700012Y-115380505D01*
X87645498Y-115408281D01*
X87630011Y-115409500D01*
X87613386Y-115409500D01*
X87442297Y-115436597D01*
X87442293Y-115436598D01*
X87277561Y-115490123D01*
X87277558Y-115490125D01*
X87123214Y-115568766D01*
X86983073Y-115670585D01*
X86860585Y-115793073D01*
X86758766Y-115933214D01*
X86680125Y-116087558D01*
X86680123Y-116087561D01*
X86626598Y-116252293D01*
X86626597Y-116252297D01*
X86599500Y-116423385D01*
X86599500Y-116596614D01*
X86626597Y-116767702D01*
X86626598Y-116767706D01*
X86680123Y-116932438D01*
X86680125Y-116932441D01*
X86758021Y-117085323D01*
X86758768Y-117086788D01*
X86860586Y-117226928D01*
X86983072Y-117349414D01*
X87123212Y-117451232D01*
X87277555Y-117529873D01*
X87277557Y-117529873D01*
X87277558Y-117529874D01*
X87277561Y-117529876D01*
X87442293Y-117583401D01*
X87442297Y-117583402D01*
X87613386Y-117610500D01*
X87613389Y-117610500D01*
X87786614Y-117610500D01*
X87957702Y-117583402D01*
X87957706Y-117583401D01*
X88122438Y-117529876D01*
X88122440Y-117529874D01*
X88122445Y-117529873D01*
X88276788Y-117451232D01*
X88416928Y-117349414D01*
X88539414Y-117226928D01*
X88641232Y-117086788D01*
X88719873Y-116932445D01*
X88719874Y-116932440D01*
X88719876Y-116932438D01*
X88773401Y-116767706D01*
X88773402Y-116767702D01*
X88800500Y-116596614D01*
X88800500Y-116423385D01*
X88773402Y-116252297D01*
X88773401Y-116252293D01*
X88719876Y-116087561D01*
X88719874Y-116087558D01*
X88719873Y-116087557D01*
X88719873Y-116087555D01*
X88641232Y-115933212D01*
X88539414Y-115793072D01*
X88479112Y-115732770D01*
X88451337Y-115678256D01*
X88460908Y-115617824D01*
X88479111Y-115592768D01*
X89175497Y-114896383D01*
X89230013Y-114868607D01*
X89290445Y-114878178D01*
X89333710Y-114921443D01*
X89344500Y-114966388D01*
X89344500Y-115115827D01*
X89353205Y-115181948D01*
X89353205Y-115181953D01*
X89387281Y-115309125D01*
X89412801Y-115370735D01*
X89412803Y-115370739D01*
X89412805Y-115370743D01*
X89478631Y-115484757D01*
X89478633Y-115484760D01*
X89519229Y-115537666D01*
X89519231Y-115537668D01*
X89519235Y-115537673D01*
X89612327Y-115630765D01*
X89612331Y-115630768D01*
X89612333Y-115630770D01*
X89638785Y-115651067D01*
X89665243Y-115671369D01*
X89700000Y-115691436D01*
X89740940Y-115736902D01*
X89749500Y-115777171D01*
X89749500Y-116816146D01*
X89762723Y-116865492D01*
X89762723Y-116865495D01*
X89762724Y-116865495D01*
X89770773Y-116895536D01*
X89767570Y-116956638D01*
X89729064Y-117004187D01*
X89694461Y-117018256D01*
X89613793Y-117034302D01*
X89472665Y-117092759D01*
X89472664Y-117092759D01*
X89345648Y-117177630D01*
X89345644Y-117177633D01*
X89237633Y-117285644D01*
X89237630Y-117285648D01*
X89152759Y-117412664D01*
X89152759Y-117412665D01*
X89094302Y-117553793D01*
X89094302Y-117553795D01*
X89064500Y-117703617D01*
X89064500Y-117856382D01*
X89094302Y-118006204D01*
X89094302Y-118006206D01*
X89152759Y-118147334D01*
X89152759Y-118147335D01*
X89156322Y-118152667D01*
X89237630Y-118274352D01*
X89345648Y-118382370D01*
X89472663Y-118467239D01*
X89613795Y-118525698D01*
X89763620Y-118555500D01*
X89763621Y-118555500D01*
X89916379Y-118555500D01*
X89916380Y-118555500D01*
X90066205Y-118525698D01*
X90207337Y-118467239D01*
X90334352Y-118382370D01*
X90404996Y-118311726D01*
X90459512Y-118283948D01*
X90519944Y-118293519D01*
X90545004Y-118311726D01*
X90615639Y-118382362D01*
X90615643Y-118382365D01*
X90615648Y-118382370D01*
X90742663Y-118467239D01*
X90883795Y-118525698D01*
X91033620Y-118555500D01*
X91033621Y-118555500D01*
X91186379Y-118555500D01*
X91186380Y-118555500D01*
X91336205Y-118525698D01*
X91477337Y-118467239D01*
X91604352Y-118382370D01*
X91674996Y-118311726D01*
X91729512Y-118283948D01*
X91789944Y-118293519D01*
X91815004Y-118311726D01*
X91885639Y-118382362D01*
X91885643Y-118382365D01*
X91885648Y-118382370D01*
X92012663Y-118467239D01*
X92153795Y-118525698D01*
X92303620Y-118555500D01*
X92303621Y-118555500D01*
X92456379Y-118555500D01*
X92456380Y-118555500D01*
X92574165Y-118532071D01*
X92634926Y-118539263D01*
X92663482Y-118559165D01*
X92965185Y-118860867D01*
X92965188Y-118860870D01*
X93045112Y-118907014D01*
X93134256Y-118930900D01*
X93134257Y-118930900D01*
X93134258Y-118930900D01*
X100915742Y-118930900D01*
X100915744Y-118930900D01*
X101004888Y-118907014D01*
X101084812Y-118860870D01*
X102399293Y-117546387D01*
X102453808Y-117518612D01*
X102514237Y-117528182D01*
X102514243Y-117528185D01*
X102514244Y-117528186D01*
X102517553Y-117529872D01*
X102517563Y-117529876D01*
X102682293Y-117583401D01*
X102682297Y-117583402D01*
X102853386Y-117610500D01*
X102853389Y-117610500D01*
X103026614Y-117610500D01*
X103197702Y-117583402D01*
X103197706Y-117583401D01*
X103362438Y-117529876D01*
X103362440Y-117529874D01*
X103362445Y-117529873D01*
X103516788Y-117451232D01*
X103656928Y-117349414D01*
X103779414Y-117226928D01*
X103881232Y-117086788D01*
X103959873Y-116932445D01*
X103959874Y-116932440D01*
X103959876Y-116932438D01*
X104013401Y-116767706D01*
X104013402Y-116767702D01*
X104040500Y-116596614D01*
X104040500Y-116423385D01*
X104013402Y-116252297D01*
X104013401Y-116252293D01*
X103959876Y-116087561D01*
X103959874Y-116087558D01*
X103959873Y-116087557D01*
X103959873Y-116087555D01*
X103881232Y-115933212D01*
X103779414Y-115793072D01*
X103656928Y-115670586D01*
X103516788Y-115568768D01*
X103516787Y-115568767D01*
X103516785Y-115568766D01*
X103362441Y-115490125D01*
X103362438Y-115490123D01*
X103197706Y-115436598D01*
X103197702Y-115436597D01*
X103026614Y-115409500D01*
X103026611Y-115409500D01*
X102853389Y-115409500D01*
X102853386Y-115409500D01*
X102682297Y-115436597D01*
X102682296Y-115436598D01*
X102671090Y-115440239D01*
X102609905Y-115440238D01*
X102560405Y-115404274D01*
X102541499Y-115346084D01*
X102541499Y-115279057D01*
X102541499Y-115279056D01*
X102517614Y-115189912D01*
X102504419Y-115167058D01*
X102491697Y-115107210D01*
X102516583Y-115051314D01*
X102569570Y-115020721D01*
X102620749Y-115023403D01*
X102682297Y-115043402D01*
X102853386Y-115070500D01*
X102853389Y-115070500D01*
X103026614Y-115070500D01*
X103197702Y-115043402D01*
X103197706Y-115043401D01*
X103362438Y-114989876D01*
X103362440Y-114989874D01*
X103362445Y-114989873D01*
X103516788Y-114911232D01*
X103656928Y-114809414D01*
X103779414Y-114686928D01*
X103881232Y-114546788D01*
X103959873Y-114392445D01*
X103959874Y-114392440D01*
X103959876Y-114392438D01*
X104013401Y-114227706D01*
X104013402Y-114227702D01*
X104040500Y-114056614D01*
X104040500Y-113883385D01*
X104013402Y-113712297D01*
X104013401Y-113712293D01*
X103959876Y-113547561D01*
X103959874Y-113547558D01*
X103959873Y-113547557D01*
X103959873Y-113547555D01*
X103881232Y-113393212D01*
X103779414Y-113253072D01*
X103656928Y-113130586D01*
X103516788Y-113028768D01*
X103516787Y-113028767D01*
X103516785Y-113028766D01*
X103362441Y-112950125D01*
X103362438Y-112950123D01*
X103197706Y-112896598D01*
X103197702Y-112896597D01*
X103026614Y-112869500D01*
X103026611Y-112869500D01*
X102853389Y-112869500D01*
X102853386Y-112869500D01*
X102682297Y-112896597D01*
X102682293Y-112896598D01*
X102517561Y-112950123D01*
X102517558Y-112950125D01*
X102363214Y-113028766D01*
X102223073Y-113130585D01*
X102100585Y-113253073D01*
X101998766Y-113393214D01*
X101920125Y-113547558D01*
X101891673Y-113635123D01*
X101855709Y-113684622D01*
X101797518Y-113703529D01*
X101739328Y-113684621D01*
X101704075Y-113637227D01*
X101677792Y-113562116D01*
X101597154Y-113452855D01*
X101597152Y-113452853D01*
X101597150Y-113452850D01*
X101597146Y-113452847D01*
X101597144Y-113452845D01*
X101487883Y-113372207D01*
X101359703Y-113327355D01*
X101359694Y-113327353D01*
X101329274Y-113324500D01*
X101329266Y-113324500D01*
X101049500Y-113324500D01*
X100991309Y-113305593D01*
X100955345Y-113256093D01*
X100950500Y-113225500D01*
X100950500Y-112931187D01*
X100969407Y-112872996D01*
X101018907Y-112837032D01*
X101023839Y-112835571D01*
X101109123Y-112812719D01*
X101170743Y-112787195D01*
X101284757Y-112721369D01*
X101337673Y-112680765D01*
X101430765Y-112587673D01*
X101471369Y-112534757D01*
X101537195Y-112420743D01*
X101562719Y-112359123D01*
X101596794Y-112231956D01*
X101605500Y-112165826D01*
X101605500Y-111550000D01*
X101586051Y-111452224D01*
X101586050Y-111452222D01*
X101584431Y-111444083D01*
X101584431Y-111405452D01*
X101585964Y-111397741D01*
X101585966Y-111397740D01*
X101600500Y-111324674D01*
X101600500Y-111206570D01*
X101619407Y-111148379D01*
X101668907Y-111112415D01*
X101673850Y-111110951D01*
X101702338Y-111103318D01*
X101715403Y-111095774D01*
X101775250Y-111083052D01*
X101831146Y-111107937D01*
X101861740Y-111160924D01*
X101862685Y-111196997D01*
X101839500Y-111343385D01*
X101839500Y-111516614D01*
X101866597Y-111687702D01*
X101866598Y-111687706D01*
X101920123Y-111852438D01*
X101920125Y-111852441D01*
X101920126Y-111852444D01*
X101920127Y-111852445D01*
X101998768Y-112006788D01*
X102100586Y-112146928D01*
X102223072Y-112269414D01*
X102363212Y-112371232D01*
X102517555Y-112449873D01*
X102517557Y-112449873D01*
X102517558Y-112449874D01*
X102517561Y-112449876D01*
X102682293Y-112503401D01*
X102682297Y-112503402D01*
X102853386Y-112530500D01*
X102853389Y-112530500D01*
X103026614Y-112530500D01*
X103197702Y-112503402D01*
X103197706Y-112503401D01*
X103362438Y-112449876D01*
X103362440Y-112449874D01*
X103362445Y-112449873D01*
X103516788Y-112371232D01*
X103656928Y-112269414D01*
X103779414Y-112146928D01*
X103881232Y-112006788D01*
X103959873Y-111852445D01*
X103959874Y-111852440D01*
X103959876Y-111852438D01*
X104013401Y-111687706D01*
X104013402Y-111687702D01*
X104040500Y-111516614D01*
X104040500Y-111343385D01*
X104013402Y-111172297D01*
X104013401Y-111172293D01*
X103959876Y-111007561D01*
X103959874Y-111007558D01*
X103959873Y-111007557D01*
X103959873Y-111007555D01*
X103881232Y-110853212D01*
X103779414Y-110713072D01*
X103656928Y-110590586D01*
X103516788Y-110488768D01*
X103516787Y-110488767D01*
X103516785Y-110488766D01*
X103362441Y-110410125D01*
X103362438Y-110410123D01*
X103197706Y-110356598D01*
X103197702Y-110356597D01*
X103026614Y-110329500D01*
X103026611Y-110329500D01*
X102853389Y-110329500D01*
X102853386Y-110329500D01*
X102682297Y-110356597D01*
X102682293Y-110356598D01*
X102517561Y-110410123D01*
X102517552Y-110410127D01*
X102479146Y-110429696D01*
X102418713Y-110439267D01*
X102364197Y-110411488D01*
X102336421Y-110356971D01*
X102345993Y-110296539D01*
X102364196Y-110271485D01*
X102404469Y-110231213D01*
X102450614Y-110151288D01*
X102474499Y-110062144D01*
X102474499Y-110032145D01*
X102493406Y-109973954D01*
X102542906Y-109937990D01*
X102604090Y-109937990D01*
X102604093Y-109937991D01*
X102682297Y-109963402D01*
X102853386Y-109990500D01*
X102853389Y-109990500D01*
X103026614Y-109990500D01*
X103197702Y-109963402D01*
X103197706Y-109963401D01*
X103362438Y-109909876D01*
X103362440Y-109909874D01*
X103362445Y-109909873D01*
X103516788Y-109831232D01*
X103656928Y-109729414D01*
X103779414Y-109606928D01*
X103881232Y-109466788D01*
X103959873Y-109312445D01*
X103959874Y-109312440D01*
X103959876Y-109312438D01*
X104013401Y-109147706D01*
X104013402Y-109147702D01*
X104040500Y-108976614D01*
X104040500Y-108803385D01*
X104013402Y-108632297D01*
X104013401Y-108632293D01*
X103959876Y-108467561D01*
X103959874Y-108467558D01*
X103959873Y-108467557D01*
X103959873Y-108467555D01*
X103905182Y-108360216D01*
X103881233Y-108313213D01*
X103819097Y-108227691D01*
X103800190Y-108169500D01*
X103819097Y-108111309D01*
X103868597Y-108075345D01*
X103899190Y-108070500D01*
X105633689Y-108070500D01*
X105691880Y-108089407D01*
X105727844Y-108138907D01*
X105727844Y-108200093D01*
X105703693Y-108239503D01*
X105326411Y-108616785D01*
X105326407Y-108616790D01*
X105267100Y-108719512D01*
X105267100Y-108719513D01*
X105267101Y-108719514D01*
X105253633Y-108769779D01*
X105236400Y-108834092D01*
X105236400Y-109951008D01*
X105254351Y-110018005D01*
X105254352Y-110018007D01*
X105254353Y-110018009D01*
X105267101Y-110065587D01*
X105267102Y-110065589D01*
X105267103Y-110065592D01*
X105326407Y-110168309D01*
X105326409Y-110168311D01*
X105326411Y-110168314D01*
X105972486Y-110814389D01*
X105972488Y-110814390D01*
X105972490Y-110814392D01*
X106075207Y-110873696D01*
X106075209Y-110873697D01*
X106075213Y-110873699D01*
X106099422Y-110880184D01*
X106099425Y-110880187D01*
X106099426Y-110880186D01*
X106189788Y-110904399D01*
X106189790Y-110904400D01*
X106189791Y-110904400D01*
X109167050Y-110904400D01*
X109225241Y-110923307D01*
X109237053Y-110933396D01*
X109265443Y-110961785D01*
X109283072Y-110979414D01*
X109423212Y-111081232D01*
X109577555Y-111159873D01*
X109577557Y-111159873D01*
X109577558Y-111159874D01*
X109577561Y-111159876D01*
X109742293Y-111213401D01*
X109742297Y-111213402D01*
X109913386Y-111240500D01*
X109913389Y-111240500D01*
X110086614Y-111240500D01*
X110257702Y-111213402D01*
X110257706Y-111213401D01*
X110422438Y-111159876D01*
X110422440Y-111159874D01*
X110422445Y-111159873D01*
X110576788Y-111081232D01*
X110716928Y-110979414D01*
X110839414Y-110856928D01*
X110920408Y-110745448D01*
X110969907Y-110709486D01*
X111031093Y-110709486D01*
X111080593Y-110745450D01*
X111099500Y-110803641D01*
X111099500Y-120059492D01*
X111080593Y-120117683D01*
X111070504Y-120129496D01*
X110329496Y-120870504D01*
X110274979Y-120898281D01*
X110259492Y-120899500D01*
X87040508Y-120899500D01*
X86982317Y-120880593D01*
X86970504Y-120870504D01*
X86229496Y-120129496D01*
X86201719Y-120074979D01*
X86200500Y-120059492D01*
X86200500Y-111343385D01*
X86599500Y-111343385D01*
X86599500Y-111516614D01*
X86626597Y-111687702D01*
X86626598Y-111687706D01*
X86680123Y-111852438D01*
X86680125Y-111852441D01*
X86680126Y-111852444D01*
X86680127Y-111852445D01*
X86758768Y-112006788D01*
X86860586Y-112146928D01*
X86983072Y-112269414D01*
X87123212Y-112371232D01*
X87277555Y-112449873D01*
X87277557Y-112449873D01*
X87277558Y-112449874D01*
X87277561Y-112449876D01*
X87442293Y-112503401D01*
X87442297Y-112503402D01*
X87613386Y-112530500D01*
X87613389Y-112530500D01*
X87786614Y-112530500D01*
X87957702Y-112503402D01*
X87957706Y-112503401D01*
X88122438Y-112449876D01*
X88122440Y-112449874D01*
X88122445Y-112449873D01*
X88276788Y-112371232D01*
X88416928Y-112269414D01*
X88539414Y-112146928D01*
X88641232Y-112006788D01*
X88719873Y-111852445D01*
X88719874Y-111852440D01*
X88719876Y-111852438D01*
X88773401Y-111687706D01*
X88773402Y-111687702D01*
X88800500Y-111516614D01*
X88800500Y-111343385D01*
X88773402Y-111172297D01*
X88773401Y-111172293D01*
X88719876Y-111007561D01*
X88719874Y-111007558D01*
X88719873Y-111007557D01*
X88719873Y-111007555D01*
X88641232Y-110853212D01*
X88539414Y-110713072D01*
X88416928Y-110590586D01*
X88276788Y-110488768D01*
X88276787Y-110488767D01*
X88276785Y-110488766D01*
X88122441Y-110410125D01*
X88122438Y-110410123D01*
X87957706Y-110356598D01*
X87957702Y-110356597D01*
X87786614Y-110329500D01*
X87786611Y-110329500D01*
X87613389Y-110329500D01*
X87613386Y-110329500D01*
X87442297Y-110356597D01*
X87442293Y-110356598D01*
X87277561Y-110410123D01*
X87277558Y-110410125D01*
X87123214Y-110488766D01*
X86983073Y-110590585D01*
X86860585Y-110713073D01*
X86758766Y-110853214D01*
X86680125Y-111007558D01*
X86680123Y-111007561D01*
X86626598Y-111172293D01*
X86626597Y-111172297D01*
X86599500Y-111343385D01*
X86200500Y-111343385D01*
X86200500Y-103719489D01*
X86550000Y-103719489D01*
X86550000Y-103900510D01*
X86578316Y-104079289D01*
X86634250Y-104251440D01*
X86716431Y-104412730D01*
X86716435Y-104412736D01*
X86772545Y-104489964D01*
X87243387Y-104019121D01*
X87299901Y-104117007D01*
X87392993Y-104210099D01*
X87490875Y-104266611D01*
X87020034Y-104737452D01*
X87020034Y-104737453D01*
X87097263Y-104793564D01*
X87097269Y-104793568D01*
X87258559Y-104875749D01*
X87430710Y-104931683D01*
X87609490Y-104960000D01*
X87790510Y-104960000D01*
X87969289Y-104931683D01*
X88141440Y-104875749D01*
X88302733Y-104793566D01*
X88379964Y-104737453D01*
X87909123Y-104266612D01*
X88007007Y-104210099D01*
X88100099Y-104117007D01*
X88156612Y-104019123D01*
X88627453Y-104489964D01*
X88683566Y-104412733D01*
X88765749Y-104251440D01*
X88821683Y-104079289D01*
X88850000Y-103900510D01*
X88850000Y-103719489D01*
X88821683Y-103540710D01*
X88765749Y-103368559D01*
X88683568Y-103207269D01*
X88683564Y-103207263D01*
X88627453Y-103130034D01*
X88627452Y-103130034D01*
X88156611Y-103600875D01*
X88100099Y-103502993D01*
X88007007Y-103409901D01*
X87909121Y-103353387D01*
X88379964Y-102882545D01*
X88302736Y-102826435D01*
X88302730Y-102826431D01*
X88141440Y-102744250D01*
X87969289Y-102688316D01*
X87790510Y-102660000D01*
X87609490Y-102660000D01*
X87430710Y-102688316D01*
X87258559Y-102744250D01*
X87097269Y-102826431D01*
X87097265Y-102826433D01*
X87020034Y-102882545D01*
X87490876Y-103353387D01*
X87392993Y-103409901D01*
X87299901Y-103502993D01*
X87243387Y-103600876D01*
X86772545Y-103130034D01*
X86716433Y-103207265D01*
X86716431Y-103207269D01*
X86634250Y-103368559D01*
X86578316Y-103540710D01*
X86550000Y-103719489D01*
X86200500Y-103719489D01*
X86200500Y-101183385D01*
X86599500Y-101183385D01*
X86599500Y-101356614D01*
X86626597Y-101527702D01*
X86626598Y-101527706D01*
X86680123Y-101692438D01*
X86680125Y-101692441D01*
X86719845Y-101770398D01*
X86758768Y-101846788D01*
X86860586Y-101986928D01*
X86983072Y-102109414D01*
X87123212Y-102211232D01*
X87277555Y-102289873D01*
X87277557Y-102289873D01*
X87277558Y-102289874D01*
X87277561Y-102289876D01*
X87442293Y-102343401D01*
X87442297Y-102343402D01*
X87613386Y-102370500D01*
X87613389Y-102370500D01*
X87786614Y-102370500D01*
X87957702Y-102343402D01*
X87957706Y-102343401D01*
X88122438Y-102289876D01*
X88122440Y-102289874D01*
X88122445Y-102289873D01*
X88276788Y-102211232D01*
X88416928Y-102109414D01*
X88539414Y-101986928D01*
X88559781Y-101958895D01*
X96725000Y-101958895D01*
X96725000Y-102049999D01*
X96725001Y-102050000D01*
X97324999Y-102050000D01*
X97325000Y-102049999D01*
X97325000Y-101475001D01*
X97324999Y-101475000D01*
X97208895Y-101475000D01*
X97124531Y-101485132D01*
X96990270Y-101538077D01*
X96875282Y-101625276D01*
X96875276Y-101625282D01*
X96788077Y-101740270D01*
X96735132Y-101874531D01*
X96725000Y-101958895D01*
X88559781Y-101958895D01*
X88641232Y-101846788D01*
X88719873Y-101692445D01*
X88719874Y-101692440D01*
X88719876Y-101692438D01*
X88773401Y-101527706D01*
X88773402Y-101527702D01*
X88800500Y-101356614D01*
X88800500Y-101183385D01*
X88773402Y-101012297D01*
X88773401Y-101012293D01*
X88719876Y-100847561D01*
X88719874Y-100847558D01*
X88719873Y-100847557D01*
X88719873Y-100847555D01*
X88641232Y-100693212D01*
X88539414Y-100553072D01*
X88416928Y-100430586D01*
X88276788Y-100328768D01*
X88276787Y-100328767D01*
X88276785Y-100328766D01*
X88122441Y-100250125D01*
X88122438Y-100250123D01*
X87957706Y-100196598D01*
X87957702Y-100196597D01*
X87786614Y-100169500D01*
X87786611Y-100169500D01*
X87613389Y-100169500D01*
X87613386Y-100169500D01*
X87442297Y-100196597D01*
X87442293Y-100196598D01*
X87277561Y-100250123D01*
X87277558Y-100250125D01*
X87123214Y-100328766D01*
X86983073Y-100430585D01*
X86860585Y-100553073D01*
X86758766Y-100693214D01*
X86680125Y-100847558D01*
X86680123Y-100847561D01*
X86626598Y-101012293D01*
X86626597Y-101012297D01*
X86599500Y-101183385D01*
X86200500Y-101183385D01*
X86200500Y-97740508D01*
X86219407Y-97682317D01*
X86229496Y-97670504D01*
X86970504Y-96929496D01*
X87025021Y-96901719D01*
X87040508Y-96900500D01*
X110259492Y-96900500D01*
X110317683Y-96919407D01*
G37*
%TD.AperFunction*%
%TA.AperFunction,Conductor*%
G36*
X99339000Y-100596736D02*
G01*
X99364904Y-100620801D01*
X99371024Y-100628976D01*
X99489117Y-100717379D01*
X99627333Y-100768931D01*
X99688435Y-100775500D01*
X100311564Y-100775499D01*
X100372667Y-100768931D01*
X100510883Y-100717379D01*
X100581994Y-100664145D01*
X100639908Y-100644410D01*
X100641322Y-100644400D01*
X100926600Y-100644400D01*
X100984791Y-100663307D01*
X101020755Y-100712807D01*
X101025600Y-100743400D01*
X101025600Y-101379551D01*
X101006693Y-101437742D01*
X100957193Y-101473706D01*
X100914797Y-101477845D01*
X100891109Y-101475000D01*
X100775001Y-101475000D01*
X100775000Y-101475001D01*
X100775000Y-102126000D01*
X100756093Y-102184191D01*
X100706593Y-102220155D01*
X100676000Y-102225000D01*
X100600001Y-102225000D01*
X100600000Y-102225001D01*
X100600000Y-102301000D01*
X100581093Y-102359191D01*
X100531593Y-102395155D01*
X100501000Y-102400000D01*
X99825001Y-102400000D01*
X99825000Y-102400001D01*
X99825000Y-102491104D01*
X99835132Y-102575468D01*
X99888077Y-102709729D01*
X99975276Y-102824717D01*
X99975282Y-102824723D01*
X100090271Y-102911922D01*
X100146621Y-102934144D01*
X100193819Y-102973081D01*
X100209116Y-103032323D01*
X100186670Y-103089243D01*
X100144902Y-103118999D01*
X100119777Y-103128370D01*
X100119771Y-103128373D01*
X100010315Y-103210311D01*
X100010311Y-103210315D01*
X99928373Y-103319771D01*
X99880587Y-103447887D01*
X99874500Y-103504518D01*
X99874500Y-104045478D01*
X99874501Y-104045484D01*
X99880587Y-104102111D01*
X99880587Y-104102112D01*
X99880588Y-104102114D01*
X99928372Y-104230226D01*
X100010313Y-104339687D01*
X100077015Y-104389619D01*
X100112269Y-104439628D01*
X100111395Y-104500807D01*
X100077507Y-104547756D01*
X99975283Y-104625275D01*
X99975276Y-104625282D01*
X99888077Y-104740270D01*
X99835132Y-104874531D01*
X99825000Y-104958895D01*
X99825000Y-105049999D01*
X99825001Y-105050000D01*
X100501000Y-105050000D01*
X100559191Y-105068907D01*
X100595155Y-105118407D01*
X100600000Y-105149000D01*
X100600000Y-105301000D01*
X100581093Y-105359191D01*
X100531593Y-105395155D01*
X100501000Y-105400000D01*
X99825001Y-105400000D01*
X99825000Y-105400001D01*
X99825000Y-105491104D01*
X99835132Y-105575468D01*
X99888077Y-105709729D01*
X99975276Y-105824717D01*
X99975282Y-105824723D01*
X100090271Y-105911922D01*
X100146621Y-105934144D01*
X100193819Y-105973081D01*
X100209116Y-106032323D01*
X100186670Y-106089243D01*
X100144903Y-106118999D01*
X100132924Y-106123467D01*
X100119774Y-106128372D01*
X100119773Y-106128372D01*
X100119772Y-106128373D01*
X100010315Y-106210311D01*
X100010311Y-106210315D01*
X99928373Y-106319771D01*
X99880587Y-106447887D01*
X99874500Y-106504518D01*
X99874500Y-106586589D01*
X99855593Y-106644780D01*
X99806093Y-106680744D01*
X99744907Y-106680744D01*
X99705496Y-106656593D01*
X98822896Y-105773993D01*
X98795119Y-105719476D01*
X98793900Y-105703989D01*
X98793900Y-104559092D01*
X98763200Y-104444518D01*
X98763199Y-104444514D01*
X98763199Y-104444513D01*
X98703890Y-104341786D01*
X98254494Y-103892391D01*
X98226718Y-103837875D01*
X98225499Y-103822388D01*
X98225499Y-103727612D01*
X98244406Y-103669421D01*
X98254495Y-103657608D01*
X98602103Y-103310000D01*
X99090490Y-102821614D01*
X99149799Y-102718887D01*
X99152129Y-102710189D01*
X99156287Y-102694672D01*
X99156287Y-102694669D01*
X99180500Y-102604309D01*
X99180500Y-101958895D01*
X99825000Y-101958895D01*
X99825000Y-102049999D01*
X99825001Y-102050000D01*
X100424999Y-102050000D01*
X100425000Y-102049999D01*
X100425000Y-101475001D01*
X100424999Y-101475000D01*
X100308895Y-101475000D01*
X100224531Y-101485132D01*
X100090270Y-101538077D01*
X99975282Y-101625276D01*
X99975276Y-101625282D01*
X99888077Y-101740270D01*
X99835132Y-101874531D01*
X99825000Y-101958895D01*
X99180500Y-101958895D01*
X99180500Y-100684586D01*
X99199407Y-100626396D01*
X99220833Y-100605797D01*
X99220569Y-100605475D01*
X99222823Y-100603624D01*
X99223281Y-100603444D01*
X99224507Y-100602266D01*
X99228405Y-100599662D01*
X99229344Y-100601069D01*
X99279793Y-100581306D01*
X99339000Y-100596736D01*
G37*
%TD.AperFunction*%
%TD*%
M02*
