%TF.GenerationSoftware,KiCad,Pcbnew,10.0.6-10.0.6~ubuntu26.04.1*%
%TF.CreationDate,2026-10-05T18:27:09-04:00*%
%TF.ProjectId,board_b,626f6172-645f-4622-9e6b-696361645f70,rev?*%
%TF.SameCoordinates,Original*%
%TF.FileFunction,Soldermask,Top*%
%TF.FilePolarity,Negative*%
%FSLAX46Y46*%
G04 Gerber Fmt 4.6, Leading zero omitted, Abs format (unit mm)*
G04 Created by KiCad (PCBNEW 10.0.6-10.0.6~ubuntu26.04.1) date 2026-10-05 18:27:09*
%MOMM*%
%LPD*%
G01*
G04 APERTURE LIST*
G04 Aperture macros list*
%AMRoundRect*
0 Rectangle with rounded corners*
0 $1 Rounding radius*
0 $2 $3 $4 $5 $6 $7 $8 $9 X,Y pos of 4 corners*
0 Add a 4 corners polygon primitive as box body*
4,1,4,$2,$3,$4,$5,$6,$7,$8,$9,$2,$3,0*
0 Add four circle primitives for the rounded corners*
1,1,$1+$1,$2,$3*
1,1,$1+$1,$4,$5*
1,1,$1+$1,$6,$7*
1,1,$1+$1,$8,$9*
0 Add four rect primitives between the rounded corners*
20,1,$1+$1,$2,$3,$4,$5,0*
20,1,$1+$1,$4,$5,$6,$7,0*
20,1,$1+$1,$6,$7,$8,$9,0*
20,1,$1+$1,$8,$9,$2,$3,0*%
%AMFreePoly0*
4,1,23,0.550000,-0.750000,0.000000,-0.750000,0.000000,-0.745722,-0.065263,-0.745722,-0.191342,-0.711940,-0.304381,-0.646677,-0.396677,-0.554381,-0.461940,-0.441342,-0.495722,-0.315263,-0.495722,-0.250000,-0.500000,-0.250000,-0.500000,0.250000,-0.495722,0.250000,-0.495722,0.315263,-0.461940,0.441342,-0.396677,0.554381,-0.304381,0.646677,-0.191342,0.711940,-0.065263,0.745722,0.000000,0.745722,
0.000000,0.750000,0.550000,0.750000,0.550000,-0.750000,0.550000,-0.750000,$1*%
%AMFreePoly1*
4,1,23,0.000000,0.745722,0.065263,0.745722,0.191342,0.711940,0.304381,0.646677,0.396677,0.554381,0.461940,0.441342,0.495722,0.315263,0.495722,0.250000,0.500000,0.250000,0.500000,-0.250000,0.495722,-0.250000,0.495722,-0.315263,0.461940,-0.441342,0.396677,-0.554381,0.304381,-0.646677,0.191342,-0.711940,0.065263,-0.745722,0.000000,-0.745722,0.000000,-0.750000,-0.550000,-0.750000,
-0.550000,0.750000,0.000000,0.750000,0.000000,0.745722,0.000000,0.745722,$1*%
%AMFreePoly2*
4,1,23,0.500000,-0.750000,0.000000,-0.750000,0.000000,-0.745722,-0.065263,-0.745722,-0.191342,-0.711940,-0.304381,-0.646677,-0.396677,-0.554381,-0.461940,-0.441342,-0.495722,-0.315263,-0.495722,-0.250000,-0.500000,-0.250000,-0.500000,0.250000,-0.495722,0.250000,-0.495722,0.315263,-0.461940,0.441342,-0.396677,0.554381,-0.304381,0.646677,-0.191342,0.711940,-0.065263,0.745722,0.000000,0.745722,
0.000000,0.750000,0.500000,0.750000,0.500000,-0.750000,0.500000,-0.750000,$1*%
%AMFreePoly3*
4,1,23,0.000000,0.745722,0.065263,0.745722,0.191342,0.711940,0.304381,0.646677,0.396677,0.554381,0.461940,0.441342,0.495722,0.315263,0.495722,0.250000,0.500000,0.250000,0.500000,-0.250000,0.495722,-0.250000,0.495722,-0.315263,0.461940,-0.441342,0.396677,-0.554381,0.304381,-0.646677,0.191342,-0.711940,0.065263,-0.745722,0.000000,-0.745722,0.000000,-0.750000,-0.500000,-0.750000,
-0.500000,0.750000,0.000000,0.750000,0.000000,0.745722,0.000000,0.745722,$1*%
G04 Aperture macros list end*
%ADD10RoundRect,0.200000X0.275000X-0.200000X0.275000X0.200000X-0.275000X0.200000X-0.275000X-0.200000X0*%
%ADD11R,1.700000X1.700000*%
%ADD12C,1.700000*%
%ADD13FreePoly0,270.000000*%
%ADD14R,1.500000X1.000000*%
%ADD15FreePoly1,270.000000*%
%ADD16RoundRect,0.262500X-0.262500X-0.262500X0.262500X-0.262500X0.262500X0.262500X-0.262500X0.262500X0*%
%ADD17C,1.050000*%
%ADD18FreePoly0,0.000000*%
%ADD19R,1.000000X1.500000*%
%ADD20FreePoly1,0.000000*%
%ADD21RoundRect,0.225000X0.250000X-0.225000X0.250000X0.225000X-0.250000X0.225000X-0.250000X-0.225000X0*%
%ADD22FreePoly2,90.000000*%
%ADD23FreePoly3,90.000000*%
G04 APERTURE END LIST*
%TO.C,JP2*%
G36*
X99850000Y-110050000D02*
G01*
X101350000Y-110050000D01*
X101350000Y-111550000D01*
X99850000Y-111550000D01*
X99850000Y-110050000D01*
G37*
%TO.C,JP5*%
G36*
X90650000Y-114050000D02*
G01*
X92150000Y-114050000D01*
X92150000Y-115550000D01*
X90650000Y-115550000D01*
X90650000Y-114050000D01*
G37*
%TO.C,JP3*%
G36*
X93950000Y-111250000D02*
G01*
X95450000Y-111250000D01*
X95450000Y-111550000D01*
X93950000Y-111550000D01*
X93950000Y-111250000D01*
G37*
%TO.C,JP1*%
G36*
X106050000Y-108750000D02*
G01*
X107550000Y-108750000D01*
X107550000Y-109050000D01*
X106050000Y-109050000D01*
X106050000Y-108750000D01*
G37*
%TO.C,JP4*%
G36*
X96850000Y-111250000D02*
G01*
X98350000Y-111250000D01*
X98350000Y-111550000D01*
X96850000Y-111550000D01*
X96850000Y-111250000D01*
G37*
%TD*%
D10*
%TO.C,R4*%
X101000000Y-115625000D03*
X101000000Y-113975000D03*
%TD*%
D11*
%TO.C,J3*%
X110000000Y-107600000D03*
D12*
X110000000Y-110140000D03*
%TD*%
D13*
%TO.C,JP2*%
X100600000Y-109500000D03*
D14*
X100600000Y-110800000D03*
D15*
X100600000Y-112100000D03*
%TD*%
D16*
%TO.C,J1*%
X100000000Y-100000000D03*
D17*
X98730000Y-100000000D03*
X97460000Y-100000000D03*
X96190000Y-100000000D03*
X94920000Y-100000000D03*
X93650000Y-100000000D03*
X92380000Y-100000000D03*
D16*
X100000000Y-117780000D03*
D17*
X98730000Y-117780000D03*
X97460000Y-117780000D03*
X96190000Y-117780000D03*
X94920000Y-117780000D03*
X93650000Y-117780000D03*
X92380000Y-117780000D03*
X91110000Y-117780000D03*
X89840000Y-117780000D03*
%TD*%
D18*
%TO.C,JP5*%
X90100000Y-114800000D03*
D19*
X91400000Y-114800000D03*
D20*
X92700000Y-114800000D03*
%TD*%
D10*
%TO.C,R1*%
X94700000Y-115625000D03*
X94700000Y-113975000D03*
%TD*%
D21*
%TO.C,C2*%
X100600000Y-106775000D03*
X100600000Y-105225000D03*
%TD*%
%TO.C,C4*%
X97500000Y-106775000D03*
X97500000Y-105225000D03*
%TD*%
D22*
%TO.C,JP3*%
X94700000Y-112050000D03*
D23*
X94700000Y-110750000D03*
%TD*%
D21*
%TO.C,C3*%
X97500000Y-103775000D03*
X97500000Y-102225000D03*
%TD*%
D10*
%TO.C,R3*%
X92600000Y-111825000D03*
X92600000Y-110175000D03*
%TD*%
D22*
%TO.C,JP1*%
X106800000Y-109550000D03*
D23*
X106800000Y-108250000D03*
%TD*%
D22*
%TO.C,JP4*%
X97600000Y-112050000D03*
D23*
X97600000Y-110750000D03*
%TD*%
D21*
%TO.C,C1*%
X100600000Y-103775000D03*
X100600000Y-102225000D03*
%TD*%
D10*
%TO.C,R2*%
X97600000Y-115625000D03*
X97600000Y-113975000D03*
%TD*%
D11*
%TO.C,U1*%
X102940000Y-101270000D03*
D12*
X102940000Y-103810000D03*
X102940000Y-106350000D03*
X102940000Y-108890000D03*
X102940000Y-111430000D03*
X102940000Y-113970000D03*
X102940000Y-116510000D03*
X87700000Y-116510000D03*
X87700000Y-113970000D03*
X87700000Y-111430000D03*
X87700000Y-108890000D03*
X87700000Y-106350000D03*
X87700000Y-103810000D03*
X87700000Y-101270000D03*
%TD*%
M02*
