M48
; DRILL file KiCad 10.0.6-10.0.6~ubuntu26.04.1 date 2026-10-05T17:38:55
; FORMAT={-:-/ absolute / metric / decimal}
; #@! TF.CreationDate,2026-10-05T17:38:55-04:00
; #@! TF.GenerationSoftware,Kicad,Pcbnew,10.0.6-10.0.6~ubuntu26.04.1
; #@! TF.FileFunction,MixedPlating,1,2
FMAT,2
METRIC
; #@! TA.AperFunction,Plated,PTH,ViaDrill
T1C0.300
; #@! TA.AperFunction,Plated,PTH,ComponentDrill
T2C0.600
; #@! TA.AperFunction,Plated,PTH,ComponentDrill
T3C1.000
%
G90
G05
T1
X90.953Y-116.424
X91.485Y-110.175
X91.595Y-108.702
X95.924Y-109.578
X95.924Y-115.609
X96.896Y-114.921
X98.826Y-111.3
X99.668Y-103.813
X101.6Y-108.873
X104.37Y-104.264
T2
X89.84Y-117.78
X91.11Y-117.78
X92.38Y-100.0
X92.38Y-117.78
X93.65Y-100.0
X93.65Y-117.78
X94.92Y-100.0
X94.92Y-117.78
X96.19Y-100.0
X96.19Y-117.78
X97.46Y-100.0
X97.46Y-117.78
X98.73Y-100.0
X98.73Y-117.78
X100.0Y-100.0
X100.0Y-117.78
T3
X87.7Y-101.27
X87.7Y-103.81
X87.7Y-106.35
X87.7Y-108.89
X87.7Y-111.43
X87.7Y-113.97
X87.7Y-116.51
X102.94Y-101.27
X102.94Y-103.81
X102.94Y-106.35
X102.94Y-108.89
X102.94Y-111.43
X102.94Y-113.97
X102.94Y-116.51
X110.0Y-107.6
X110.0Y-110.14
M30
