%TF.GenerationSoftware,KiCad,Pcbnew,10.0.6-10.0.6~ubuntu26.04.1*%
%TF.CreationDate,2026-10-05T17:38:54-04:00*%
%TF.ProjectId,board_b,626f6172-645f-4622-9e6b-696361645f70,rev?*%
%TF.SameCoordinates,Original*%
%TF.FileFunction,Copper,L2,Bot*%
%TF.FilePolarity,Positive*%
%FSLAX46Y46*%
G04 Gerber Fmt 4.6, Leading zero omitted, Abs format (unit mm)*
G04 Created by KiCad (PCBNEW 10.0.6-10.0.6~ubuntu26.04.1) date 2026-10-05 17:38:54*
%MOMM*%
%LPD*%
G01*
G04 APERTURE LIST*
G04 Aperture macros list*
%AMRoundRect*
0 Rectangle with rounded corners*
0 $1 Rounding radius*
0 $2 $3 $4 $5 $6 $7 $8 $9 X,Y pos of 4 corners*
0 Add a 4 corners polygon primitive as box body*
4,1,4,$2,$3,$4,$5,$6,$7,$8,$9,$2,$3,0*
0 Add four circle primitives for the rounded corners*
1,1,$1+$1,$2,$3*
1,1,$1+$1,$4,$5*
1,1,$1+$1,$6,$7*
1,1,$1+$1,$8,$9*
0 Add four rect primitives between the rounded corners*
20,1,$1+$1,$2,$3,$4,$5,0*
20,1,$1+$1,$4,$5,$6,$7,0*
20,1,$1+$1,$6,$7,$8,$9,0*
20,1,$1+$1,$8,$9,$2,$3,0*%
G04 Aperture macros list end*
%TA.AperFunction,ComponentPad*%
%ADD10RoundRect,0.262500X-0.262500X-0.262500X0.262500X-0.262500X0.262500X0.262500X-0.262500X0.262500X0*%
%TD*%
%TA.AperFunction,ComponentPad*%
%ADD11C,1.050000*%
%TD*%
%TA.AperFunction,ComponentPad*%
%ADD12R,1.700000X1.700000*%
%TD*%
%TA.AperFunction,ComponentPad*%
%ADD13C,1.700000*%
%TD*%
%TA.AperFunction,ViaPad*%
%ADD14C,0.600000*%
%TD*%
%TA.AperFunction,Conductor*%
%ADD15C,0.400000*%
%TD*%
%TA.AperFunction,Conductor*%
%ADD16C,0.200000*%
%TD*%
G04 APERTURE END LIST*
D10*
%TO.P,J1,1*%
%TO.N,/VDD*%
X100000000Y-100000000D03*
D11*
%TO.P,J1,2*%
%TO.N,/3V3*%
X98730000Y-100000000D03*
%TO.P,J1,3*%
%TO.N,/GND*%
X97460000Y-100000000D03*
%TO.P,J1,4*%
%TO.N,/SH_GPIO0*%
X96190000Y-100000000D03*
%TO.P,J1,5*%
%TO.N,/GPIO1*%
X94920000Y-100000000D03*
%TO.P,J1,6*%
%TO.N,/GPIO2*%
X93650000Y-100000000D03*
%TO.P,J1,7*%
%TO.N,/GPIO3*%
X92380000Y-100000000D03*
D10*
%TO.P,J1,11*%
%TO.N,/CS*%
X100000000Y-117780000D03*
D11*
%TO.P,J1,12*%
%TO.N,/SCK*%
X98730000Y-117780000D03*
%TO.P,J1,13*%
%TO.N,/SDO*%
X97460000Y-117780000D03*
%TO.P,J1,14*%
%TO.N,/SDI*%
X96190000Y-117780000D03*
%TO.P,J1,15*%
%TO.N,/GPIO4*%
X94920000Y-117780000D03*
%TO.P,J1,16*%
%TO.N,/GPIO5*%
X93650000Y-117780000D03*
%TO.P,J1,17*%
%TO.N,/GPIO6*%
X92380000Y-117780000D03*
%TO.P,J1,18*%
%TO.N,/SH_GPIO7*%
X91110000Y-117780000D03*
%TO.P,J1,19*%
%TO.N,/PROM*%
X89840000Y-117780000D03*
%TD*%
D12*
%TO.P,J3,1*%
%TO.N,/3V3*%
X110000000Y-107600000D03*
D13*
%TO.P,J3,2*%
%TO.N,/VDD*%
X110000000Y-110140000D03*
%TD*%
D12*
%TO.P,U1,1*%
%TO.N,/D0*%
X102940000Y-101270000D03*
D13*
%TO.P,U1,2*%
%TO.N,/GPIO1*%
X102940000Y-103810000D03*
%TO.P,U1,3*%
%TO.N,/GPIO2*%
X102940000Y-106350000D03*
%TO.P,U1,4*%
%TO.N,/GPIO3*%
X102940000Y-108890000D03*
%TO.P,U1,5*%
%TO.N,/GPIO4*%
X102940000Y-111430000D03*
%TO.P,U1,6*%
%TO.N,/GPIO5*%
X102940000Y-113970000D03*
%TO.P,U1,7*%
%TO.N,/GPIO6*%
X102940000Y-116510000D03*
%TO.P,U1,8*%
%TO.N,/D7*%
X87700000Y-116510000D03*
%TO.P,U1,9*%
%TO.N,/SCK*%
X87700000Y-113970000D03*
%TO.P,U1,10*%
%TO.N,/SDO*%
X87700000Y-111430000D03*
%TO.P,U1,11*%
%TO.N,/SDI*%
X87700000Y-108890000D03*
%TO.P,U1,12*%
%TO.N,/3V3*%
X87700000Y-106350000D03*
%TO.P,U1,13*%
%TO.N,/GND*%
X87700000Y-103810000D03*
%TO.P,U1,14*%
%TO.N,unconnected-(U1-5V-Pad14)*%
X87700000Y-101270000D03*
%TD*%
D14*
%TO.N,/GND*%
X99667800Y-103812800D03*
%TO.N,/SH_GPIO0*%
X91594900Y-108702400D03*
%TO.N,/PROM*%
X91485100Y-110175000D03*
X90953400Y-116424100D03*
%TO.N,/D0*%
X104370100Y-104264000D03*
X101600200Y-108873200D03*
%TO.N,/PU_SDA*%
X95924400Y-115608800D03*
X95924400Y-109577500D03*
%TO.N,/PU_SCL*%
X98826000Y-111299800D03*
X96896300Y-114921300D03*
%TD*%
%TO.N,/VDD*%
D15*
X100000000Y-100563200D02*
X100000000Y-100000000D01*
X105021800Y-105161800D02*
X105021800Y-103994100D01*
X101976800Y-102540000D02*
X100000000Y-100563200D01*
X110000000Y-110140000D02*
X105021800Y-105161800D01*
X105021800Y-103994100D02*
X103567700Y-102540000D01*
X103567700Y-102540000D02*
X101976800Y-102540000D01*
%TO.N,/GND*%
X99667800Y-102207800D02*
X99667800Y-103812800D01*
X97460000Y-100000000D02*
X99667800Y-102207800D01*
%TO.N,/SH_GPIO0*%
D16*
X96190000Y-100000000D02*
X95367300Y-99177300D01*
X95367300Y-99177300D02*
X92077000Y-99177300D01*
X91594900Y-99659400D02*
X91594900Y-108702400D01*
X92077000Y-99177300D02*
X91594900Y-99659400D01*
%TO.N,/GPIO1*%
X99332100Y-104412100D02*
X94920000Y-100000000D01*
X102337900Y-104412100D02*
X99332100Y-104412100D01*
X102940000Y-103810000D02*
X102337900Y-104412100D01*
%TO.N,/GPIO2*%
X93650000Y-100000000D02*
X100000000Y-106350000D01*
X100000000Y-106350000D02*
X102940000Y-106350000D01*
%TO.N,/GPIO3*%
X100619800Y-108239800D02*
X102289800Y-108239800D01*
X92380000Y-100000000D02*
X100619800Y-108239800D01*
X102289800Y-108239800D02*
X102940000Y-108890000D01*
%TO.N,/SDO*%
X88806600Y-112536600D02*
X88806600Y-117156600D01*
X87700000Y-111430000D02*
X88806600Y-112536600D01*
X88806600Y-117156600D02*
X88630700Y-117332500D01*
X88630700Y-118171700D02*
X89417900Y-118958900D01*
X89417900Y-118958900D02*
X96281100Y-118958900D01*
X96281100Y-118958900D02*
X97460000Y-117780000D01*
X88630700Y-117332500D02*
X88630700Y-118171700D01*
%TO.N,/SDI*%
X89044800Y-117476800D02*
X89205300Y-117316300D01*
X95362800Y-118607200D02*
X89563500Y-118607200D01*
X89563500Y-118607200D02*
X89044800Y-118088500D01*
X89205300Y-117316300D02*
X89205300Y-110395300D01*
X89044800Y-118088500D02*
X89044800Y-117476800D01*
X96190000Y-117780000D02*
X95362800Y-118607200D01*
X89205300Y-110395300D02*
X87700000Y-108890000D01*
%TO.N,/GPIO4*%
X100477800Y-116996700D02*
X102234500Y-115240000D01*
X94920000Y-117780000D02*
X95703300Y-116996700D01*
X103286500Y-115240000D02*
X104055200Y-114471300D01*
X102234500Y-115240000D02*
X103286500Y-115240000D01*
X95703300Y-116996700D02*
X100477800Y-116996700D01*
X104055200Y-112545200D02*
X102940000Y-111430000D01*
X104055200Y-114471300D02*
X104055200Y-112545200D01*
%TO.N,/GPIO5*%
X100316100Y-116593900D02*
X94836100Y-116593900D01*
X102940000Y-113970000D02*
X100316100Y-116593900D01*
X94836100Y-116593900D02*
X93650000Y-117780000D01*
%TO.N,/PROM*%
X90953400Y-110706700D02*
X91485100Y-110175000D01*
X89840000Y-117537500D02*
X90953400Y-116424100D01*
X89840000Y-117780000D02*
X89840000Y-117537500D01*
X90953400Y-116424100D02*
X90953400Y-110706700D01*
%TO.N,/D0*%
X103383500Y-110040200D02*
X102505400Y-110040200D01*
X101600200Y-109135000D02*
X101600200Y-108873200D01*
X102505400Y-110040200D02*
X101600200Y-109135000D01*
X104370100Y-109053600D02*
X103383500Y-110040200D01*
X104370100Y-104264000D02*
X104370100Y-109053600D01*
%TO.N,/PU_SDA*%
X95924400Y-115608800D02*
X95924400Y-109577500D01*
%TO.N,/PU_SCL*%
X98826000Y-111299800D02*
X96896300Y-113229500D01*
X96896300Y-113229500D02*
X96896300Y-114921300D01*
%TD*%
%TA.AperFunction,Conductor*%
%TO.N,/GND*%
G36*
X110317683Y-96919407D02*
G01*
X110329496Y-96929496D01*
X111070504Y-97670504D01*
X111098281Y-97725021D01*
X111099500Y-97740508D01*
X111099500Y-106430220D01*
X111080593Y-106488411D01*
X111031093Y-106524375D01*
X110969907Y-106524375D01*
X110953540Y-106516437D01*
X110947742Y-106514035D01*
X110947740Y-106514034D01*
X110947736Y-106514033D01*
X110874684Y-106499501D01*
X110874674Y-106499500D01*
X109125326Y-106499500D01*
X109125325Y-106499500D01*
X109125315Y-106499501D01*
X109052263Y-106514033D01*
X109052257Y-106514035D01*
X108969400Y-106569397D01*
X108969397Y-106569400D01*
X108914035Y-106652257D01*
X108914034Y-106652261D01*
X108899501Y-106725315D01*
X108899500Y-106725327D01*
X108899500Y-108163389D01*
X108880593Y-108221580D01*
X108831093Y-108257544D01*
X108769907Y-108257544D01*
X108730496Y-108233393D01*
X105501296Y-105004193D01*
X105473519Y-104949676D01*
X105472300Y-104934189D01*
X105472300Y-103934792D01*
X105462069Y-103896611D01*
X105441599Y-103820214D01*
X105441599Y-103820213D01*
X105441599Y-103820212D01*
X105382292Y-103717490D01*
X105382291Y-103717489D01*
X105382290Y-103717488D01*
X105382289Y-103717486D01*
X104025969Y-102361166D01*
X103998192Y-102306649D01*
X104007763Y-102246217D01*
X104013650Y-102236171D01*
X104025966Y-102217740D01*
X104040500Y-102144674D01*
X104040500Y-100395326D01*
X104025966Y-100322260D01*
X103977768Y-100250125D01*
X103970602Y-100239400D01*
X103970599Y-100239397D01*
X103887742Y-100184035D01*
X103887740Y-100184034D01*
X103887737Y-100184033D01*
X103887736Y-100184033D01*
X103814684Y-100169501D01*
X103814674Y-100169500D01*
X102065326Y-100169500D01*
X102065325Y-100169500D01*
X102065315Y-100169501D01*
X101992263Y-100184033D01*
X101992257Y-100184035D01*
X101909400Y-100239397D01*
X101909397Y-100239400D01*
X101854035Y-100322257D01*
X101854033Y-100322263D01*
X101839501Y-100395315D01*
X101839500Y-100395327D01*
X101839500Y-101526589D01*
X101820593Y-101584780D01*
X101771093Y-101620744D01*
X101709907Y-101620744D01*
X101670496Y-101596593D01*
X100721273Y-100647370D01*
X100693496Y-100592853D01*
X100703067Y-100532421D01*
X100712025Y-100518035D01*
X100712040Y-100518013D01*
X100717379Y-100510883D01*
X100768931Y-100372667D01*
X100775500Y-100311565D01*
X100775499Y-99688436D01*
X100768931Y-99627333D01*
X100717379Y-99489117D01*
X100628976Y-99371024D01*
X100628972Y-99371021D01*
X100510882Y-99282620D01*
X100398585Y-99240736D01*
X100372667Y-99231069D01*
X100372663Y-99231068D01*
X100372661Y-99231068D01*
X100345033Y-99228098D01*
X100311565Y-99224500D01*
X100311561Y-99224500D01*
X99688441Y-99224500D01*
X99688435Y-99224501D01*
X99627335Y-99231068D01*
X99627333Y-99231069D01*
X99489117Y-99282620D01*
X99371024Y-99371022D01*
X99371021Y-99371025D01*
X99364901Y-99379201D01*
X99314890Y-99414451D01*
X99253711Y-99413573D01*
X99228807Y-99399715D01*
X99228395Y-99400332D01*
X99224353Y-99397631D01*
X99224352Y-99397630D01*
X99097337Y-99312761D01*
X99097336Y-99312760D01*
X99097334Y-99312759D01*
X98956205Y-99254302D01*
X98806382Y-99224500D01*
X98806380Y-99224500D01*
X98653620Y-99224500D01*
X98653617Y-99224500D01*
X98503795Y-99254302D01*
X98503793Y-99254302D01*
X98362665Y-99312759D01*
X98362664Y-99312759D01*
X98235648Y-99397630D01*
X98235644Y-99397633D01*
X98127633Y-99505644D01*
X98127632Y-99505646D01*
X98127630Y-99505648D01*
X98095000Y-99554482D01*
X98042761Y-99632662D01*
X98027624Y-99669205D01*
X98006165Y-99701320D01*
X97757248Y-99950236D01*
X97739556Y-99884204D01*
X97700060Y-99815795D01*
X97644205Y-99759940D01*
X97575796Y-99720444D01*
X97509759Y-99702750D01*
X97906433Y-99306077D01*
X97850781Y-99268892D01*
X97700644Y-99206704D01*
X97541257Y-99175000D01*
X97378742Y-99175000D01*
X97219356Y-99206704D01*
X97219354Y-99206704D01*
X97069218Y-99268892D01*
X97013566Y-99306077D01*
X97410238Y-99702750D01*
X97344204Y-99720444D01*
X97275795Y-99759940D01*
X97219940Y-99815795D01*
X97180444Y-99884204D01*
X97162750Y-99950237D01*
X96913835Y-99701322D01*
X96892375Y-99669204D01*
X96877240Y-99632665D01*
X96877240Y-99632664D01*
X96825000Y-99554482D01*
X96792370Y-99505648D01*
X96684352Y-99397630D01*
X96557337Y-99312761D01*
X96557336Y-99312760D01*
X96557334Y-99312759D01*
X96416205Y-99254302D01*
X96266382Y-99224500D01*
X96266380Y-99224500D01*
X96113620Y-99224500D01*
X96113614Y-99224500D01*
X95995833Y-99247928D01*
X95935072Y-99240736D01*
X95906517Y-99220834D01*
X95582514Y-98896832D01*
X95582512Y-98896830D01*
X95502588Y-98850686D01*
X95413444Y-98826800D01*
X92030856Y-98826800D01*
X91941712Y-98850686D01*
X91941711Y-98850686D01*
X91941709Y-98850687D01*
X91861790Y-98896829D01*
X91314427Y-99444191D01*
X91314426Y-99444192D01*
X91278946Y-99505645D01*
X91278947Y-99505646D01*
X91268286Y-99524111D01*
X91244400Y-99613257D01*
X91244400Y-108233368D01*
X91225493Y-108291559D01*
X91215404Y-108303371D01*
X91154391Y-108364384D01*
X91154387Y-108364389D01*
X91081917Y-108489910D01*
X91062229Y-108563386D01*
X91044400Y-108629925D01*
X91044400Y-108774875D01*
X91055148Y-108814987D01*
X91081917Y-108914889D01*
X91154387Y-109040410D01*
X91154389Y-109040412D01*
X91154391Y-109040415D01*
X91256885Y-109142909D01*
X91256887Y-109142910D01*
X91256889Y-109142912D01*
X91382411Y-109215382D01*
X91382412Y-109215382D01*
X91382415Y-109215384D01*
X91522425Y-109252900D01*
X91522426Y-109252900D01*
X91667374Y-109252900D01*
X91667375Y-109252900D01*
X91807385Y-109215384D01*
X91807387Y-109215382D01*
X91807389Y-109215382D01*
X91932910Y-109142912D01*
X91932910Y-109142911D01*
X91932915Y-109142909D01*
X92035409Y-109040415D01*
X92072245Y-108976614D01*
X92107882Y-108914889D01*
X92107882Y-108914887D01*
X92107884Y-108914885D01*
X92145400Y-108774875D01*
X92145400Y-108629925D01*
X92107884Y-108489915D01*
X92107882Y-108489912D01*
X92107882Y-108489910D01*
X92035412Y-108364389D01*
X92035408Y-108364384D01*
X91974396Y-108303371D01*
X91946619Y-108248854D01*
X91945400Y-108233368D01*
X91945400Y-100807541D01*
X91964307Y-100749350D01*
X92013807Y-100713386D01*
X92074993Y-100713386D01*
X92082266Y-100716069D01*
X92153795Y-100745698D01*
X92303620Y-100775500D01*
X92303621Y-100775500D01*
X92456379Y-100775500D01*
X92456380Y-100775500D01*
X92574165Y-100752071D01*
X92634926Y-100759263D01*
X92663483Y-100779165D01*
X100404588Y-108520270D01*
X100479267Y-108563386D01*
X100484509Y-108566412D01*
X100484508Y-108566412D01*
X100484512Y-108566414D01*
X100573656Y-108590300D01*
X100977064Y-108590300D01*
X101035255Y-108609207D01*
X101071219Y-108658707D01*
X101072690Y-108714922D01*
X101049700Y-108800725D01*
X101049700Y-108945675D01*
X101057990Y-108976614D01*
X101087217Y-109085689D01*
X101159687Y-109211210D01*
X101159689Y-109211212D01*
X101159691Y-109211215D01*
X101262185Y-109313709D01*
X101300683Y-109335936D01*
X101321182Y-109351664D01*
X102290188Y-110320670D01*
X102327776Y-110342371D01*
X102368716Y-110387840D01*
X102375112Y-110448690D01*
X102344519Y-110501678D01*
X102336466Y-110508199D01*
X102223077Y-110590581D01*
X102100585Y-110713073D01*
X101998766Y-110853214D01*
X101920125Y-111007558D01*
X101920123Y-111007561D01*
X101866598Y-111172293D01*
X101866597Y-111172297D01*
X101839500Y-111343385D01*
X101839500Y-111516614D01*
X101866597Y-111687702D01*
X101866598Y-111687706D01*
X101920123Y-111852438D01*
X101920125Y-111852441D01*
X101920126Y-111852444D01*
X101920127Y-111852445D01*
X101998768Y-112006788D01*
X102100586Y-112146928D01*
X102223072Y-112269414D01*
X102363212Y-112371232D01*
X102517555Y-112449873D01*
X102517557Y-112449873D01*
X102517558Y-112449874D01*
X102517561Y-112449876D01*
X102682293Y-112503401D01*
X102682297Y-112503402D01*
X102853386Y-112530500D01*
X102853389Y-112530500D01*
X103026614Y-112530500D01*
X103197702Y-112503402D01*
X103254073Y-112485085D01*
X103362445Y-112449873D01*
X103365747Y-112448190D01*
X103426174Y-112438609D01*
X103480695Y-112466378D01*
X103480707Y-112466389D01*
X103675704Y-112661386D01*
X103703481Y-112715903D01*
X103704700Y-112731390D01*
X103704700Y-112970995D01*
X103685793Y-113029186D01*
X103636293Y-113065150D01*
X103575107Y-113065150D01*
X103547510Y-113051088D01*
X103516791Y-113028770D01*
X103516787Y-113028767D01*
X103362441Y-112950125D01*
X103362438Y-112950123D01*
X103197706Y-112896598D01*
X103197702Y-112896597D01*
X103026614Y-112869500D01*
X103026611Y-112869500D01*
X102853389Y-112869500D01*
X102853386Y-112869500D01*
X102682297Y-112896597D01*
X102682293Y-112896598D01*
X102517561Y-112950123D01*
X102517558Y-112950125D01*
X102363214Y-113028766D01*
X102223073Y-113130585D01*
X102100585Y-113253073D01*
X101998766Y-113393214D01*
X101920125Y-113547558D01*
X101920123Y-113547561D01*
X101866598Y-113712293D01*
X101866597Y-113712297D01*
X101839500Y-113883385D01*
X101839500Y-114056614D01*
X101866597Y-114227702D01*
X101866598Y-114227706D01*
X101920123Y-114392438D01*
X101920127Y-114392447D01*
X101921815Y-114395759D01*
X101931386Y-114456191D01*
X101903609Y-114510707D01*
X100199914Y-116214404D01*
X100145397Y-116242181D01*
X100129910Y-116243400D01*
X96295713Y-116243400D01*
X96237522Y-116224493D01*
X96201558Y-116174993D01*
X96201558Y-116113807D01*
X96237522Y-116064307D01*
X96246213Y-116058664D01*
X96262410Y-116049312D01*
X96262410Y-116049311D01*
X96262415Y-116049309D01*
X96364909Y-115946815D01*
X96437384Y-115821285D01*
X96474900Y-115681275D01*
X96474900Y-115536325D01*
X96466180Y-115503781D01*
X96469381Y-115442679D01*
X96507886Y-115395129D01*
X96566986Y-115379293D01*
X96611305Y-115392420D01*
X96683815Y-115434284D01*
X96823825Y-115471800D01*
X96823826Y-115471800D01*
X96968774Y-115471800D01*
X96968775Y-115471800D01*
X97108785Y-115434284D01*
X97108787Y-115434282D01*
X97108789Y-115434282D01*
X97234310Y-115361812D01*
X97234310Y-115361811D01*
X97234315Y-115361809D01*
X97336809Y-115259315D01*
X97336812Y-115259310D01*
X97409282Y-115133789D01*
X97409282Y-115133787D01*
X97409284Y-115133785D01*
X97446800Y-114993775D01*
X97446800Y-114848825D01*
X97409284Y-114708815D01*
X97409282Y-114708812D01*
X97409282Y-114708810D01*
X97336812Y-114583289D01*
X97336808Y-114583284D01*
X97275796Y-114522271D01*
X97248019Y-114467754D01*
X97246800Y-114452268D01*
X97246800Y-113415690D01*
X97265707Y-113357499D01*
X97275796Y-113345686D01*
X98742186Y-111879296D01*
X98796703Y-111851519D01*
X98812190Y-111850300D01*
X98898474Y-111850300D01*
X98898475Y-111850300D01*
X99038485Y-111812784D01*
X99038487Y-111812782D01*
X99038489Y-111812782D01*
X99164010Y-111740312D01*
X99164010Y-111740311D01*
X99164015Y-111740309D01*
X99266509Y-111637815D01*
X99336485Y-111516614D01*
X99338982Y-111512289D01*
X99338982Y-111512287D01*
X99338984Y-111512285D01*
X99376500Y-111372275D01*
X99376500Y-111227325D01*
X99338984Y-111087315D01*
X99338982Y-111087312D01*
X99338982Y-111087310D01*
X99266512Y-110961789D01*
X99266510Y-110961787D01*
X99266509Y-110961785D01*
X99164015Y-110859291D01*
X99164012Y-110859289D01*
X99164010Y-110859287D01*
X99038488Y-110786817D01*
X99038489Y-110786817D01*
X99008896Y-110778887D01*
X98898475Y-110749300D01*
X98753525Y-110749300D01*
X98691790Y-110765841D01*
X98613510Y-110786817D01*
X98487989Y-110859287D01*
X98385487Y-110961789D01*
X98313017Y-111087310D01*
X98275500Y-111227325D01*
X98275500Y-111313610D01*
X98256593Y-111371801D01*
X98246504Y-111383614D01*
X96615830Y-113014288D01*
X96569686Y-113094212D01*
X96545800Y-113183357D01*
X96545800Y-114452268D01*
X96526893Y-114510459D01*
X96516804Y-114522271D01*
X96455787Y-114583288D01*
X96452438Y-114587653D01*
X96402012Y-114622306D01*
X96340847Y-114620700D01*
X96292308Y-114583450D01*
X96274900Y-114527381D01*
X96274900Y-110046531D01*
X96293807Y-109988340D01*
X96303890Y-109976533D01*
X96364909Y-109915515D01*
X96368166Y-109909874D01*
X96437382Y-109789989D01*
X96437382Y-109789987D01*
X96437384Y-109789985D01*
X96474900Y-109649975D01*
X96474900Y-109505025D01*
X96437384Y-109365015D01*
X96437382Y-109365012D01*
X96437382Y-109365010D01*
X96364912Y-109239489D01*
X96364910Y-109239487D01*
X96364909Y-109239485D01*
X96262415Y-109136991D01*
X96262412Y-109136989D01*
X96262410Y-109136987D01*
X96136888Y-109064517D01*
X96136889Y-109064517D01*
X96107296Y-109056587D01*
X95996875Y-109027000D01*
X95851925Y-109027000D01*
X95805275Y-109039500D01*
X95711910Y-109064517D01*
X95586389Y-109136987D01*
X95483887Y-109239489D01*
X95411417Y-109365010D01*
X95384146Y-109466785D01*
X95373900Y-109505025D01*
X95373900Y-109649975D01*
X95377127Y-109662017D01*
X95411417Y-109789989D01*
X95483887Y-109915510D01*
X95483889Y-109915512D01*
X95483891Y-109915515D01*
X95544905Y-109976529D01*
X95572681Y-110031044D01*
X95573900Y-110046531D01*
X95573900Y-115139768D01*
X95554993Y-115197959D01*
X95544904Y-115209771D01*
X95483891Y-115270784D01*
X95483887Y-115270789D01*
X95411417Y-115396310D01*
X95373900Y-115536325D01*
X95373900Y-115681274D01*
X95411417Y-115821289D01*
X95483887Y-115946810D01*
X95483889Y-115946812D01*
X95483891Y-115946815D01*
X95586385Y-116049309D01*
X95586387Y-116049310D01*
X95586389Y-116049312D01*
X95602587Y-116058664D01*
X95643528Y-116104133D01*
X95649924Y-116164983D01*
X95619331Y-116217971D01*
X95563435Y-116242858D01*
X95553087Y-116243400D01*
X94789956Y-116243400D01*
X94700812Y-116267286D01*
X94620885Y-116313432D01*
X93933481Y-117000834D01*
X93878965Y-117028611D01*
X93844164Y-117027928D01*
X93726383Y-117004500D01*
X93726380Y-117004500D01*
X93573620Y-117004500D01*
X93573617Y-117004500D01*
X93423795Y-117034302D01*
X93423793Y-117034302D01*
X93282665Y-117092759D01*
X93282664Y-117092759D01*
X93155648Y-117177630D01*
X93155644Y-117177633D01*
X93085004Y-117248274D01*
X93030487Y-117276051D01*
X92970055Y-117266480D01*
X92944996Y-117248274D01*
X92874355Y-117177633D01*
X92874352Y-117177630D01*
X92747337Y-117092761D01*
X92747336Y-117092760D01*
X92747334Y-117092759D01*
X92606205Y-117034302D01*
X92456382Y-117004500D01*
X92456380Y-117004500D01*
X92303620Y-117004500D01*
X92303617Y-117004500D01*
X92153795Y-117034302D01*
X92153793Y-117034302D01*
X92012665Y-117092759D01*
X92012664Y-117092759D01*
X91885648Y-117177630D01*
X91885644Y-117177633D01*
X91815004Y-117248274D01*
X91760487Y-117276051D01*
X91700055Y-117266480D01*
X91674996Y-117248274D01*
X91604355Y-117177633D01*
X91604352Y-117177630D01*
X91477337Y-117092761D01*
X91477336Y-117092760D01*
X91477334Y-117092759D01*
X91336206Y-117034302D01*
X91331547Y-117032889D01*
X91332112Y-117031025D01*
X91285548Y-117004919D01*
X91259959Y-116949342D01*
X91271924Y-116889338D01*
X91288275Y-116867748D01*
X91291412Y-116864610D01*
X91291415Y-116864609D01*
X91393909Y-116762115D01*
X91466384Y-116636585D01*
X91503900Y-116496575D01*
X91503900Y-116351625D01*
X91466384Y-116211615D01*
X91466382Y-116211612D01*
X91466382Y-116211610D01*
X91393912Y-116086089D01*
X91393908Y-116086084D01*
X91332896Y-116025071D01*
X91305119Y-115970554D01*
X91303900Y-115955068D01*
X91303900Y-110892888D01*
X91322807Y-110834697D01*
X91332897Y-110822884D01*
X91401286Y-110754496D01*
X91455803Y-110726719D01*
X91471289Y-110725500D01*
X91557574Y-110725500D01*
X91557575Y-110725500D01*
X91697585Y-110687984D01*
X91697587Y-110687982D01*
X91697589Y-110687982D01*
X91823110Y-110615512D01*
X91823110Y-110615511D01*
X91823115Y-110615509D01*
X91925609Y-110513015D01*
X91928390Y-110508199D01*
X91998082Y-110387489D01*
X91998082Y-110387487D01*
X91998084Y-110387485D01*
X92035600Y-110247475D01*
X92035600Y-110102525D01*
X91998084Y-109962515D01*
X91998082Y-109962512D01*
X91998082Y-109962510D01*
X91925612Y-109836989D01*
X91925610Y-109836987D01*
X91925609Y-109836985D01*
X91823115Y-109734491D01*
X91823112Y-109734489D01*
X91823110Y-109734487D01*
X91697588Y-109662017D01*
X91697589Y-109662017D01*
X91652644Y-109649974D01*
X91557575Y-109624500D01*
X91412625Y-109624500D01*
X91350890Y-109641041D01*
X91272610Y-109662017D01*
X91147089Y-109734487D01*
X91044587Y-109836989D01*
X90972117Y-109962510D01*
X90934600Y-110102525D01*
X90934600Y-110188810D01*
X90915693Y-110247001D01*
X90905604Y-110258813D01*
X90672929Y-110491488D01*
X90633491Y-110559798D01*
X90626789Y-110571405D01*
X90626787Y-110571410D01*
X90626786Y-110571412D01*
X90614970Y-110615512D01*
X90602900Y-110660557D01*
X90602900Y-115955068D01*
X90583993Y-116013259D01*
X90573904Y-116025071D01*
X90512891Y-116086084D01*
X90512887Y-116086089D01*
X90440417Y-116211610D01*
X90402900Y-116351625D01*
X90402900Y-116437910D01*
X90383993Y-116496101D01*
X90373904Y-116507914D01*
X89906314Y-116975504D01*
X89851797Y-117003281D01*
X89836310Y-117004500D01*
X89763614Y-117004500D01*
X89674113Y-117022303D01*
X89613352Y-117015111D01*
X89568423Y-116973578D01*
X89555800Y-116925205D01*
X89555800Y-110349157D01*
X89554749Y-110345233D01*
X89531914Y-110260012D01*
X89512630Y-110226611D01*
X89512629Y-110226610D01*
X89501278Y-110206949D01*
X89485770Y-110180088D01*
X88736389Y-109430707D01*
X88708612Y-109376190D01*
X88718182Y-109315763D01*
X88719873Y-109312445D01*
X88756810Y-109198766D01*
X88773403Y-109147700D01*
X88800500Y-108976614D01*
X88800500Y-108803385D01*
X88773402Y-108632297D01*
X88773401Y-108632293D01*
X88719876Y-108467561D01*
X88719874Y-108467558D01*
X88719873Y-108467557D01*
X88719873Y-108467555D01*
X88641232Y-108313212D01*
X88539414Y-108173072D01*
X88416928Y-108050586D01*
X88276788Y-107948768D01*
X88276787Y-107948767D01*
X88276785Y-107948766D01*
X88122441Y-107870125D01*
X88122438Y-107870123D01*
X87957706Y-107816598D01*
X87957702Y-107816597D01*
X87786614Y-107789500D01*
X87786611Y-107789500D01*
X87613389Y-107789500D01*
X87613386Y-107789500D01*
X87442297Y-107816597D01*
X87442293Y-107816598D01*
X87277561Y-107870123D01*
X87277558Y-107870125D01*
X87123214Y-107948766D01*
X86983073Y-108050585D01*
X86860585Y-108173073D01*
X86758766Y-108313214D01*
X86680125Y-108467558D01*
X86680123Y-108467561D01*
X86626598Y-108632293D01*
X86626597Y-108632297D01*
X86599500Y-108803385D01*
X86599500Y-108976614D01*
X86626597Y-109147700D01*
X86626598Y-109147706D01*
X86680123Y-109312438D01*
X86680125Y-109312441D01*
X86736493Y-109423072D01*
X86758768Y-109466788D01*
X86860586Y-109606928D01*
X86983072Y-109729414D01*
X87123212Y-109831232D01*
X87277555Y-109909873D01*
X87277557Y-109909873D01*
X87277558Y-109909874D01*
X87277561Y-109909876D01*
X87442293Y-109963401D01*
X87442297Y-109963402D01*
X87613386Y-109990500D01*
X87613389Y-109990500D01*
X87786614Y-109990500D01*
X87957702Y-109963402D01*
X88014073Y-109945085D01*
X88122445Y-109909873D01*
X88125747Y-109908190D01*
X88186174Y-109898609D01*
X88240695Y-109926378D01*
X88240707Y-109926389D01*
X88825804Y-110511486D01*
X88853581Y-110566003D01*
X88854800Y-110581490D01*
X88854800Y-110859997D01*
X88835893Y-110918188D01*
X88786393Y-110954152D01*
X88725207Y-110954152D01*
X88675707Y-110918188D01*
X88667591Y-110904942D01*
X88641238Y-110853222D01*
X88641234Y-110853215D01*
X88565735Y-110749300D01*
X88539414Y-110713072D01*
X88416928Y-110590586D01*
X88276788Y-110488768D01*
X88276787Y-110488767D01*
X88276785Y-110488766D01*
X88122441Y-110410125D01*
X88122438Y-110410123D01*
X87957706Y-110356598D01*
X87957702Y-110356597D01*
X87786614Y-110329500D01*
X87786611Y-110329500D01*
X87613389Y-110329500D01*
X87613386Y-110329500D01*
X87442297Y-110356597D01*
X87442293Y-110356598D01*
X87277561Y-110410123D01*
X87277558Y-110410125D01*
X87123214Y-110488766D01*
X86983073Y-110590585D01*
X86860585Y-110713073D01*
X86758766Y-110853214D01*
X86680125Y-111007558D01*
X86680123Y-111007561D01*
X86626598Y-111172293D01*
X86626597Y-111172297D01*
X86599500Y-111343385D01*
X86599500Y-111516614D01*
X86626597Y-111687702D01*
X86626598Y-111687706D01*
X86680123Y-111852438D01*
X86680125Y-111852441D01*
X86680126Y-111852444D01*
X86680127Y-111852445D01*
X86758768Y-112006788D01*
X86860586Y-112146928D01*
X86983072Y-112269414D01*
X87123212Y-112371232D01*
X87277555Y-112449873D01*
X87277557Y-112449873D01*
X87277558Y-112449874D01*
X87277561Y-112449876D01*
X87442293Y-112503401D01*
X87442297Y-112503402D01*
X87613386Y-112530500D01*
X87613389Y-112530500D01*
X87786614Y-112530500D01*
X87957702Y-112503402D01*
X88014073Y-112485085D01*
X88122445Y-112449873D01*
X88125747Y-112448190D01*
X88186174Y-112438609D01*
X88240695Y-112466378D01*
X88240707Y-112466389D01*
X88427104Y-112652786D01*
X88454881Y-112707303D01*
X88456100Y-112722790D01*
X88456100Y-112964747D01*
X88437193Y-113022938D01*
X88387693Y-113058902D01*
X88326507Y-113058902D01*
X88298910Y-113044840D01*
X88276791Y-113028769D01*
X88276787Y-113028767D01*
X88122441Y-112950125D01*
X88122438Y-112950123D01*
X87957706Y-112896598D01*
X87957702Y-112896597D01*
X87786614Y-112869500D01*
X87786611Y-112869500D01*
X87613389Y-112869500D01*
X87613386Y-112869500D01*
X87442297Y-112896597D01*
X87442293Y-112896598D01*
X87277561Y-112950123D01*
X87277558Y-112950125D01*
X87123214Y-113028766D01*
X86983073Y-113130585D01*
X86860585Y-113253073D01*
X86758766Y-113393214D01*
X86680125Y-113547558D01*
X86680123Y-113547561D01*
X86626598Y-113712293D01*
X86626597Y-113712297D01*
X86599500Y-113883385D01*
X86599500Y-114056614D01*
X86626597Y-114227702D01*
X86626598Y-114227706D01*
X86680123Y-114392438D01*
X86680125Y-114392441D01*
X86748879Y-114527381D01*
X86758768Y-114546788D01*
X86860586Y-114686928D01*
X86983072Y-114809414D01*
X87123212Y-114911232D01*
X87277555Y-114989873D01*
X87277557Y-114989873D01*
X87277558Y-114989874D01*
X87277561Y-114989876D01*
X87442293Y-115043401D01*
X87442297Y-115043402D01*
X87613386Y-115070500D01*
X87613389Y-115070500D01*
X87786614Y-115070500D01*
X87957702Y-115043402D01*
X87957706Y-115043401D01*
X88122438Y-114989876D01*
X88122440Y-114989874D01*
X88122445Y-114989873D01*
X88276788Y-114911232D01*
X88298910Y-114895159D01*
X88357098Y-114876252D01*
X88415289Y-114895158D01*
X88451254Y-114944658D01*
X88456100Y-114975252D01*
X88456100Y-115504747D01*
X88437193Y-115562938D01*
X88387693Y-115598902D01*
X88326507Y-115598902D01*
X88298910Y-115584840D01*
X88276791Y-115568769D01*
X88276787Y-115568767D01*
X88122441Y-115490125D01*
X88122438Y-115490123D01*
X87957706Y-115436598D01*
X87957702Y-115436597D01*
X87786614Y-115409500D01*
X87786611Y-115409500D01*
X87613389Y-115409500D01*
X87613386Y-115409500D01*
X87442297Y-115436597D01*
X87442293Y-115436598D01*
X87277561Y-115490123D01*
X87277558Y-115490125D01*
X87123214Y-115568766D01*
X86983073Y-115670585D01*
X86860585Y-115793073D01*
X86758766Y-115933214D01*
X86680125Y-116087558D01*
X86680123Y-116087561D01*
X86626598Y-116252293D01*
X86626597Y-116252297D01*
X86599500Y-116423385D01*
X86599500Y-116596614D01*
X86626597Y-116767702D01*
X86626598Y-116767706D01*
X86680123Y-116932438D01*
X86680125Y-116932441D01*
X86748207Y-117066062D01*
X86758768Y-117086788D01*
X86860586Y-117226928D01*
X86983072Y-117349414D01*
X87123212Y-117451232D01*
X87277555Y-117529873D01*
X87277557Y-117529873D01*
X87277558Y-117529874D01*
X87277561Y-117529876D01*
X87442293Y-117583401D01*
X87442297Y-117583402D01*
X87613386Y-117610500D01*
X87613389Y-117610500D01*
X87786614Y-117610500D01*
X87957702Y-117583402D01*
X87957706Y-117583401D01*
X88122438Y-117529876D01*
X88122440Y-117529875D01*
X88122442Y-117529873D01*
X88122445Y-117529873D01*
X88136254Y-117522836D01*
X88196685Y-117513265D01*
X88251202Y-117541041D01*
X88278981Y-117595557D01*
X88280200Y-117611046D01*
X88280200Y-118217843D01*
X88297012Y-118280587D01*
X88297012Y-118280588D01*
X88304083Y-118306982D01*
X88304084Y-118306984D01*
X88304085Y-118306987D01*
X88304086Y-118306988D01*
X88350230Y-118386912D01*
X89202688Y-119239370D01*
X89282612Y-119285514D01*
X89371756Y-119309400D01*
X89371758Y-119309400D01*
X96327242Y-119309400D01*
X96327244Y-119309400D01*
X96416388Y-119285514D01*
X96496312Y-119239370D01*
X97176516Y-118559163D01*
X97231031Y-118531387D01*
X97265828Y-118532069D01*
X97383620Y-118555500D01*
X97383621Y-118555500D01*
X97536379Y-118555500D01*
X97536380Y-118555500D01*
X97686205Y-118525698D01*
X97827337Y-118467239D01*
X97954352Y-118382370D01*
X98024996Y-118311726D01*
X98079512Y-118283948D01*
X98139944Y-118293519D01*
X98165004Y-118311726D01*
X98235639Y-118382362D01*
X98235643Y-118382365D01*
X98235648Y-118382370D01*
X98362663Y-118467239D01*
X98503795Y-118525698D01*
X98653620Y-118555500D01*
X98653621Y-118555500D01*
X98806379Y-118555500D01*
X98806380Y-118555500D01*
X98956205Y-118525698D01*
X99097337Y-118467239D01*
X99097340Y-118467237D01*
X99228397Y-118379668D01*
X99229335Y-118381072D01*
X99279793Y-118361306D01*
X99339000Y-118376736D01*
X99364904Y-118400801D01*
X99371024Y-118408976D01*
X99489117Y-118497379D01*
X99627333Y-118548931D01*
X99688435Y-118555500D01*
X100311564Y-118555499D01*
X100372667Y-118548931D01*
X100510883Y-118497379D01*
X100628976Y-118408976D01*
X100717379Y-118290883D01*
X100768931Y-118152667D01*
X100775500Y-118091565D01*
X100775499Y-117468436D01*
X100768931Y-117407333D01*
X100735180Y-117316845D01*
X100732561Y-117255716D01*
X100757933Y-117212247D01*
X101679137Y-116291043D01*
X101733652Y-116263268D01*
X101794084Y-116272839D01*
X101837349Y-116316104D01*
X101846920Y-116376535D01*
X101839500Y-116423384D01*
X101839500Y-116596614D01*
X101866597Y-116767702D01*
X101866598Y-116767706D01*
X101920123Y-116932438D01*
X101920125Y-116932441D01*
X101988207Y-117066062D01*
X101998768Y-117086788D01*
X102100586Y-117226928D01*
X102223072Y-117349414D01*
X102363212Y-117451232D01*
X102517555Y-117529873D01*
X102517557Y-117529873D01*
X102517558Y-117529874D01*
X102517561Y-117529876D01*
X102682293Y-117583401D01*
X102682297Y-117583402D01*
X102853386Y-117610500D01*
X102853389Y-117610500D01*
X103026614Y-117610500D01*
X103197702Y-117583402D01*
X103197706Y-117583401D01*
X103362438Y-117529876D01*
X103362440Y-117529874D01*
X103362445Y-117529873D01*
X103516788Y-117451232D01*
X103656928Y-117349414D01*
X103779414Y-117226928D01*
X103881232Y-117086788D01*
X103959873Y-116932445D01*
X103959874Y-116932440D01*
X103959876Y-116932438D01*
X104013401Y-116767706D01*
X104013402Y-116767702D01*
X104040500Y-116596614D01*
X104040500Y-116423385D01*
X104013402Y-116252297D01*
X104013401Y-116252293D01*
X103959876Y-116087561D01*
X103959874Y-116087558D01*
X103959873Y-116087557D01*
X103959873Y-116087555D01*
X103881232Y-115933212D01*
X103779414Y-115793072D01*
X103656928Y-115670586D01*
X103656924Y-115670583D01*
X103656922Y-115670581D01*
X103573858Y-115610231D01*
X103537894Y-115560731D01*
X103537895Y-115499546D01*
X103562041Y-115460140D01*
X104335670Y-114686512D01*
X104381814Y-114606588D01*
X104405700Y-114517444D01*
X104405700Y-112499056D01*
X104381814Y-112409912D01*
X104359482Y-112371232D01*
X104335670Y-112329988D01*
X104275096Y-112269414D01*
X103976389Y-111970706D01*
X103948612Y-111916190D01*
X103958182Y-111855763D01*
X103959873Y-111852445D01*
X103996308Y-111740312D01*
X104013402Y-111687702D01*
X104040500Y-111516614D01*
X104040500Y-111343385D01*
X104013402Y-111172297D01*
X104013401Y-111172293D01*
X103959876Y-111007561D01*
X103959874Y-111007558D01*
X103959873Y-111007557D01*
X103959873Y-111007555D01*
X103881232Y-110853212D01*
X103779414Y-110713072D01*
X103656928Y-110590586D01*
X103656924Y-110590583D01*
X103656922Y-110590581D01*
X103547474Y-110511062D01*
X103511510Y-110461562D01*
X103511511Y-110400377D01*
X103547475Y-110350877D01*
X103556153Y-110345240D01*
X103598712Y-110320670D01*
X104650570Y-109268812D01*
X104696714Y-109188888D01*
X104707749Y-109147706D01*
X104707751Y-109147700D01*
X104715139Y-109120123D01*
X104720600Y-109099744D01*
X104720600Y-105736711D01*
X104739507Y-105678520D01*
X104789007Y-105642556D01*
X104850193Y-105642556D01*
X104889604Y-105666707D01*
X108927498Y-109704601D01*
X108955275Y-109759118D01*
X108951649Y-109805197D01*
X108926597Y-109882301D01*
X108899500Y-110053385D01*
X108899500Y-110226610D01*
X108899499Y-110226612D01*
X108926597Y-110397702D01*
X108926598Y-110397706D01*
X108980123Y-110562438D01*
X108980125Y-110562441D01*
X109056874Y-110713072D01*
X109058768Y-110716788D01*
X109160586Y-110856928D01*
X109283072Y-110979414D01*
X109423212Y-111081232D01*
X109577555Y-111159873D01*
X109577557Y-111159873D01*
X109577558Y-111159874D01*
X109577561Y-111159876D01*
X109742293Y-111213401D01*
X109742297Y-111213402D01*
X109913386Y-111240500D01*
X109913389Y-111240500D01*
X110086614Y-111240500D01*
X110257702Y-111213402D01*
X110257706Y-111213401D01*
X110422438Y-111159876D01*
X110422440Y-111159874D01*
X110422445Y-111159873D01*
X110576788Y-111081232D01*
X110716928Y-110979414D01*
X110839414Y-110856928D01*
X110920408Y-110745448D01*
X110969907Y-110709486D01*
X111031093Y-110709486D01*
X111080593Y-110745450D01*
X111099500Y-110803641D01*
X111099500Y-120059492D01*
X111080593Y-120117683D01*
X111070504Y-120129496D01*
X110329496Y-120870504D01*
X110274979Y-120898281D01*
X110259492Y-120899500D01*
X87040508Y-120899500D01*
X86982317Y-120880593D01*
X86970504Y-120870504D01*
X86229496Y-120129496D01*
X86201719Y-120074979D01*
X86200500Y-120059492D01*
X86200500Y-106263385D01*
X86599500Y-106263385D01*
X86599500Y-106436614D01*
X86626597Y-106607702D01*
X86626598Y-106607706D01*
X86680123Y-106772438D01*
X86680125Y-106772441D01*
X86680126Y-106772444D01*
X86680127Y-106772445D01*
X86758768Y-106926788D01*
X86860586Y-107066928D01*
X86983072Y-107189414D01*
X87123212Y-107291232D01*
X87277555Y-107369873D01*
X87277557Y-107369873D01*
X87277558Y-107369874D01*
X87277561Y-107369876D01*
X87442293Y-107423401D01*
X87442297Y-107423402D01*
X87613386Y-107450500D01*
X87613389Y-107450500D01*
X87786614Y-107450500D01*
X87957702Y-107423402D01*
X87957706Y-107423401D01*
X88122438Y-107369876D01*
X88122440Y-107369874D01*
X88122445Y-107369873D01*
X88276788Y-107291232D01*
X88416928Y-107189414D01*
X88539414Y-107066928D01*
X88641232Y-106926788D01*
X88719873Y-106772445D01*
X88719874Y-106772440D01*
X88719876Y-106772438D01*
X88773401Y-106607706D01*
X88773402Y-106607702D01*
X88800500Y-106436614D01*
X88800500Y-106263385D01*
X88773402Y-106092297D01*
X88773401Y-106092293D01*
X88719876Y-105927561D01*
X88719874Y-105927558D01*
X88719873Y-105927557D01*
X88719873Y-105927555D01*
X88641232Y-105773212D01*
X88539414Y-105633072D01*
X88416928Y-105510586D01*
X88276788Y-105408768D01*
X88276787Y-105408767D01*
X88276785Y-105408766D01*
X88122441Y-105330125D01*
X88122438Y-105330123D01*
X87957706Y-105276598D01*
X87957702Y-105276597D01*
X87786614Y-105249500D01*
X87786611Y-105249500D01*
X87613389Y-105249500D01*
X87613386Y-105249500D01*
X87442297Y-105276597D01*
X87442293Y-105276598D01*
X87277561Y-105330123D01*
X87277558Y-105330125D01*
X87123214Y-105408766D01*
X86983073Y-105510585D01*
X86860585Y-105633073D01*
X86758766Y-105773214D01*
X86680125Y-105927558D01*
X86680123Y-105927561D01*
X86626598Y-106092293D01*
X86626597Y-106092297D01*
X86599500Y-106263385D01*
X86200500Y-106263385D01*
X86200500Y-103719489D01*
X86550000Y-103719489D01*
X86550000Y-103900510D01*
X86578316Y-104079289D01*
X86634250Y-104251440D01*
X86716431Y-104412730D01*
X86716435Y-104412736D01*
X86772545Y-104489964D01*
X87243387Y-104019121D01*
X87299901Y-104117007D01*
X87392993Y-104210099D01*
X87490875Y-104266611D01*
X87020034Y-104737452D01*
X87020034Y-104737453D01*
X87097263Y-104793564D01*
X87097269Y-104793568D01*
X87258559Y-104875749D01*
X87430710Y-104931683D01*
X87609490Y-104960000D01*
X87790510Y-104960000D01*
X87969289Y-104931683D01*
X88141440Y-104875749D01*
X88302733Y-104793566D01*
X88379964Y-104737453D01*
X87909123Y-104266612D01*
X88007007Y-104210099D01*
X88100099Y-104117007D01*
X88156612Y-104019123D01*
X88627453Y-104489964D01*
X88683566Y-104412733D01*
X88765749Y-104251440D01*
X88821683Y-104079289D01*
X88850000Y-103900510D01*
X88850000Y-103719489D01*
X88821683Y-103540710D01*
X88765749Y-103368559D01*
X88683568Y-103207269D01*
X88683564Y-103207263D01*
X88627453Y-103130034D01*
X88627452Y-103130034D01*
X88156611Y-103600875D01*
X88100099Y-103502993D01*
X88007007Y-103409901D01*
X87909121Y-103353387D01*
X88379964Y-102882545D01*
X88302736Y-102826435D01*
X88302730Y-102826431D01*
X88141440Y-102744250D01*
X87969289Y-102688316D01*
X87790510Y-102660000D01*
X87609490Y-102660000D01*
X87430710Y-102688316D01*
X87258559Y-102744250D01*
X87097269Y-102826431D01*
X87097265Y-102826433D01*
X87020034Y-102882545D01*
X87490876Y-103353387D01*
X87392993Y-103409901D01*
X87299901Y-103502993D01*
X87243387Y-103600876D01*
X86772545Y-103130034D01*
X86716433Y-103207265D01*
X86716431Y-103207269D01*
X86634250Y-103368559D01*
X86578316Y-103540710D01*
X86550000Y-103719489D01*
X86200500Y-103719489D01*
X86200500Y-101183385D01*
X86599500Y-101183385D01*
X86599500Y-101356614D01*
X86626597Y-101527702D01*
X86626598Y-101527706D01*
X86680123Y-101692438D01*
X86680125Y-101692441D01*
X86680126Y-101692444D01*
X86680127Y-101692445D01*
X86758768Y-101846788D01*
X86860586Y-101986928D01*
X86983072Y-102109414D01*
X87123212Y-102211232D01*
X87277555Y-102289873D01*
X87277557Y-102289873D01*
X87277558Y-102289874D01*
X87277561Y-102289876D01*
X87442293Y-102343401D01*
X87442297Y-102343402D01*
X87613386Y-102370500D01*
X87613389Y-102370500D01*
X87786614Y-102370500D01*
X87957702Y-102343402D01*
X87957706Y-102343401D01*
X88122438Y-102289876D01*
X88122440Y-102289874D01*
X88122445Y-102289873D01*
X88276788Y-102211232D01*
X88416928Y-102109414D01*
X88539414Y-101986928D01*
X88641232Y-101846788D01*
X88719873Y-101692445D01*
X88719874Y-101692440D01*
X88719876Y-101692438D01*
X88773401Y-101527706D01*
X88773402Y-101527702D01*
X88800500Y-101356614D01*
X88800500Y-101183385D01*
X88773402Y-101012297D01*
X88773401Y-101012293D01*
X88719876Y-100847561D01*
X88719874Y-100847558D01*
X88719873Y-100847557D01*
X88719873Y-100847555D01*
X88641232Y-100693212D01*
X88539414Y-100553072D01*
X88416928Y-100430586D01*
X88276788Y-100328768D01*
X88276787Y-100328767D01*
X88276785Y-100328766D01*
X88122441Y-100250125D01*
X88122438Y-100250123D01*
X87957706Y-100196598D01*
X87957702Y-100196597D01*
X87786614Y-100169500D01*
X87786611Y-100169500D01*
X87613389Y-100169500D01*
X87613386Y-100169500D01*
X87442297Y-100196597D01*
X87442293Y-100196598D01*
X87277561Y-100250123D01*
X87277558Y-100250125D01*
X87123214Y-100328766D01*
X86983073Y-100430585D01*
X86860585Y-100553073D01*
X86758766Y-100693214D01*
X86680125Y-100847558D01*
X86680123Y-100847561D01*
X86626598Y-101012293D01*
X86626597Y-101012297D01*
X86599500Y-101183385D01*
X86200500Y-101183385D01*
X86200500Y-97740508D01*
X86219407Y-97682317D01*
X86229496Y-97670504D01*
X86970504Y-96929496D01*
X87025021Y-96901719D01*
X87040508Y-96900500D01*
X110259492Y-96900500D01*
X110317683Y-96919407D01*
G37*
%TD.AperFunction*%
%TA.AperFunction,Conductor*%
G36*
X97180444Y-100115796D02*
G01*
X97219940Y-100184205D01*
X97275795Y-100240060D01*
X97344204Y-100279556D01*
X97410237Y-100297249D01*
X97013565Y-100693921D01*
X97069219Y-100731107D01*
X97219355Y-100793295D01*
X97378742Y-100824999D01*
X97378746Y-100825000D01*
X97541254Y-100825000D01*
X97541257Y-100824999D01*
X97700643Y-100793295D01*
X97700645Y-100793295D01*
X97850781Y-100731107D01*
X97906433Y-100693921D01*
X97509762Y-100297249D01*
X97575796Y-100279556D01*
X97644205Y-100240060D01*
X97700060Y-100184205D01*
X97739556Y-100115796D01*
X97757249Y-100049762D01*
X98006163Y-100298677D01*
X98027622Y-100330793D01*
X98042756Y-100367329D01*
X98042759Y-100367334D01*
X98042760Y-100367336D01*
X98042761Y-100367337D01*
X98127630Y-100494352D01*
X98235648Y-100602370D01*
X98362663Y-100687239D01*
X98503795Y-100745698D01*
X98653620Y-100775500D01*
X98653621Y-100775500D01*
X98806379Y-100775500D01*
X98806380Y-100775500D01*
X98956205Y-100745698D01*
X99097337Y-100687239D01*
X99097340Y-100687237D01*
X99228397Y-100599668D01*
X99229335Y-100601072D01*
X99279793Y-100581306D01*
X99339000Y-100596736D01*
X99364904Y-100620801D01*
X99371024Y-100628976D01*
X99371027Y-100628978D01*
X99489118Y-100717380D01*
X99557351Y-100742829D01*
X99605266Y-100780879D01*
X99608485Y-100786077D01*
X99639511Y-100839814D01*
X101700186Y-102900489D01*
X101759496Y-102934731D01*
X101802914Y-102959799D01*
X101917491Y-102990500D01*
X101980810Y-102990500D01*
X102039001Y-103009407D01*
X102074965Y-103058907D01*
X102074965Y-103120093D01*
X102060903Y-103147691D01*
X101998766Y-103233213D01*
X101920125Y-103387558D01*
X101920123Y-103387561D01*
X101866598Y-103552293D01*
X101866597Y-103552297D01*
X101839500Y-103723385D01*
X101839500Y-103896612D01*
X101842080Y-103912901D01*
X101845547Y-103934792D01*
X101847499Y-103947112D01*
X101837928Y-104007544D01*
X101794664Y-104050809D01*
X101749718Y-104061600D01*
X99518290Y-104061600D01*
X99460099Y-104042693D01*
X99448286Y-104032604D01*
X96334626Y-100918944D01*
X96306849Y-100864427D01*
X96316420Y-100803995D01*
X96359685Y-100760730D01*
X96385314Y-100751842D01*
X96416205Y-100745698D01*
X96557337Y-100687239D01*
X96684352Y-100602370D01*
X96792370Y-100494352D01*
X96877239Y-100367337D01*
X96892376Y-100330793D01*
X96913834Y-100298677D01*
X97162750Y-100049760D01*
X97180444Y-100115796D01*
G37*
%TD.AperFunction*%
%TD*%
M02*
