M48
; DRILL file KiCad 10.0.6-10.0.6~ubuntu26.04.1 date 2026-10-05T18:27:24
; FORMAT={-:-/ absolute / metric / decimal}
; #@! TF.CreationDate,2026-10-05T18:27:24-04:00
; #@! TF.GenerationSoftware,Kicad,Pcbnew,10.0.6-10.0.6~ubuntu26.04.1
; #@! TF.FileFunction,MixedPlating,1,2
FMAT,2
METRIC
; #@! TA.AperFunction,Plated,PTH,ViaDrill
T1C0.300
; #@! TA.AperFunction,Plated,PTH,ComponentDrill
T2C0.600
; #@! TA.AperFunction,Plated,PTH,ComponentDrill
T3C1.000
%
G90
G05
T1
X99.052Y-112.901
X99.751Y-104.576
X99.948Y-110.1
X105.648Y-109.101
X107.195Y-120.355
T2
X89.84Y-117.78
X91.11Y-117.78
X92.38Y-100.0
X92.38Y-117.78
X93.65Y-100.0
X93.65Y-117.78
X94.92Y-100.0
X94.92Y-117.78
X96.19Y-100.0
X96.19Y-117.78
X97.46Y-100.0
X97.46Y-117.78
X98.73Y-100.0
X98.73Y-117.78
X100.0Y-100.0
X100.0Y-117.78
T3
X110.16Y-100.0
X110.16Y-102.54
X110.16Y-105.08
X110.16Y-107.62
X110.16Y-110.16
X110.16Y-112.7
X110.16Y-115.24
X110.16Y-117.78
X110.16Y-121.6
X112.7Y-100.0
X112.7Y-102.54
X112.7Y-105.08
X112.7Y-107.62
X112.7Y-110.16
X112.7Y-112.7
X112.7Y-115.24
X112.7Y-117.78
X112.7Y-121.6
M30
