%TF.GenerationSoftware,KiCad,Pcbnew,10.0.6-10.0.6~ubuntu26.04.1*%
%TF.CreationDate,2026-10-05T18:27:24-04:00*%
%TF.ProjectId,board_a,626f6172-645f-4612-9e6b-696361645f70,rev?*%
%TF.SameCoordinates,Original*%
%TF.FileFunction,Soldermask,Top*%
%TF.FilePolarity,Negative*%
%FSLAX46Y46*%
G04 Gerber Fmt 4.6, Leading zero omitted, Abs format (unit mm)*
G04 Created by KiCad (PCBNEW 10.0.6-10.0.6~ubuntu26.04.1) date 2026-10-05 18:27:24*
%MOMM*%
%LPD*%
G01*
G04 APERTURE LIST*
G04 Aperture macros list*
%AMRoundRect*
0 Rectangle with rounded corners*
0 $1 Rounding radius*
0 $2 $3 $4 $5 $6 $7 $8 $9 X,Y pos of 4 corners*
0 Add a 4 corners polygon primitive as box body*
4,1,4,$2,$3,$4,$5,$6,$7,$8,$9,$2,$3,0*
0 Add four circle primitives for the rounded corners*
1,1,$1+$1,$2,$3*
1,1,$1+$1,$4,$5*
1,1,$1+$1,$6,$7*
1,1,$1+$1,$8,$9*
0 Add four rect primitives between the rounded corners*
20,1,$1+$1,$2,$3,$4,$5,0*
20,1,$1+$1,$4,$5,$6,$7,0*
20,1,$1+$1,$6,$7,$8,$9,0*
20,1,$1+$1,$8,$9,$2,$3,0*%
%AMFreePoly0*
4,1,23,0.500000,-0.750000,0.000000,-0.750000,0.000000,-0.745722,-0.065263,-0.745722,-0.191342,-0.711940,-0.304381,-0.646677,-0.396677,-0.554381,-0.461940,-0.441342,-0.495722,-0.315263,-0.495722,-0.250000,-0.500000,-0.250000,-0.500000,0.250000,-0.495722,0.250000,-0.495722,0.315263,-0.461940,0.441342,-0.396677,0.554381,-0.304381,0.646677,-0.191342,0.711940,-0.065263,0.745722,0.000000,0.745722,
0.000000,0.750000,0.500000,0.750000,0.500000,-0.750000,0.500000,-0.750000,$1*%
%AMFreePoly1*
4,1,23,0.000000,0.745722,0.065263,0.745722,0.191342,0.711940,0.304381,0.646677,0.396677,0.554381,0.461940,0.441342,0.495722,0.315263,0.495722,0.250000,0.500000,0.250000,0.500000,-0.250000,0.495722,-0.250000,0.495722,-0.315263,0.461940,-0.441342,0.396677,-0.554381,0.304381,-0.646677,0.191342,-0.711940,0.065263,-0.745722,0.000000,-0.745722,0.000000,-0.750000,-0.500000,-0.750000,
-0.500000,0.750000,0.000000,0.750000,0.000000,0.745722,0.000000,0.745722,$1*%
G04 Aperture macros list end*
%ADD10FreePoly0,90.000000*%
%ADD11FreePoly1,90.000000*%
%ADD12RoundRect,0.225000X0.250000X-0.225000X0.250000X0.225000X-0.250000X0.225000X-0.250000X-0.225000X0*%
%ADD13RoundRect,0.200000X0.275000X-0.200000X0.275000X0.200000X-0.275000X0.200000X-0.275000X-0.200000X0*%
%ADD14FreePoly0,0.000000*%
%ADD15FreePoly1,0.000000*%
%ADD16R,1.700000X1.700000*%
%ADD17C,1.700000*%
%ADD18RoundRect,0.262500X-0.262500X-0.262500X0.262500X-0.262500X0.262500X0.262500X-0.262500X0.262500X0*%
%ADD19C,1.050000*%
G04 APERTURE END LIST*
%TO.C,JP3*%
G36*
X95440000Y-110850000D02*
G01*
X96940000Y-110850000D01*
X96940000Y-111150000D01*
X95440000Y-111150000D01*
X95440000Y-110850000D01*
G37*
%TO.C,JP4*%
G36*
X97980000Y-110850000D02*
G01*
X99480000Y-110850000D01*
X99480000Y-111150000D01*
X97980000Y-111150000D01*
X97980000Y-110850000D01*
G37*
%TO.C,JP1*%
G36*
X106450000Y-120850000D02*
G01*
X106750000Y-120850000D01*
X106750000Y-122350000D01*
X106450000Y-122350000D01*
X106450000Y-120850000D01*
G37*
%TO.C,JP2*%
G36*
X103650000Y-108750000D02*
G01*
X105150000Y-108750000D01*
X105150000Y-109050000D01*
X103650000Y-109050000D01*
X103650000Y-108750000D01*
G37*
%TD*%
D10*
%TO.C,JP3*%
X96190000Y-111650000D03*
D11*
X96190000Y-110350000D03*
%TD*%
D12*
%TO.C,C1*%
X100600000Y-103775000D03*
X100600000Y-102225000D03*
%TD*%
%TO.C,C3*%
X97500000Y-103775000D03*
X97500000Y-102225000D03*
%TD*%
D10*
%TO.C,JP4*%
X98730000Y-111650000D03*
D11*
X98730000Y-110350000D03*
%TD*%
D13*
%TO.C,R4*%
X101600000Y-115425000D03*
X101600000Y-113775000D03*
%TD*%
%TO.C,R2*%
X98730000Y-115425000D03*
X98730000Y-113775000D03*
%TD*%
D14*
%TO.C,JP1*%
X105950000Y-121600000D03*
D15*
X107250000Y-121600000D03*
%TD*%
D10*
%TO.C,JP2*%
X104400000Y-109550000D03*
D11*
X104400000Y-108250000D03*
%TD*%
D13*
%TO.C,R3*%
X89840000Y-115425000D03*
X89840000Y-113775000D03*
%TD*%
D16*
%TO.C,J2*%
X110160000Y-100000000D03*
D17*
X112700000Y-100000000D03*
X110160000Y-102540000D03*
X112700000Y-102540000D03*
X110160000Y-105080000D03*
X112700000Y-105080000D03*
X110160000Y-107620000D03*
X112700000Y-107620000D03*
X110160000Y-110160000D03*
X112700000Y-110160000D03*
X110160000Y-112700000D03*
X112700000Y-112700000D03*
X110160000Y-115240000D03*
X112700000Y-115240000D03*
X110160000Y-117780000D03*
X112700000Y-117780000D03*
%TD*%
D16*
%TO.C,J3*%
X110160000Y-121600000D03*
D17*
X112700000Y-121600000D03*
%TD*%
D12*
%TO.C,C2*%
X100600000Y-106975000D03*
X100600000Y-105425000D03*
%TD*%
%TO.C,C4*%
X97500000Y-106975000D03*
X97500000Y-105425000D03*
%TD*%
D18*
%TO.C,J1*%
X100000000Y-100000000D03*
D19*
X98730000Y-100000000D03*
X97460000Y-100000000D03*
X96190000Y-100000000D03*
X94920000Y-100000000D03*
X93650000Y-100000000D03*
X92380000Y-100000000D03*
D18*
X100000000Y-117780000D03*
D19*
X98730000Y-117780000D03*
X97460000Y-117780000D03*
X96190000Y-117780000D03*
X94920000Y-117780000D03*
X93650000Y-117780000D03*
X92380000Y-117780000D03*
X91110000Y-117780000D03*
X89840000Y-117780000D03*
%TD*%
D13*
%TO.C,R1*%
X96190000Y-115425000D03*
X96190000Y-113775000D03*
%TD*%
M02*
