%TF.GenerationSoftware,KiCad,Pcbnew,10.0.6-10.0.6~ubuntu26.04.1*%
%TF.CreationDate,2026-10-05T17:17:38-04:00*%
%TF.ProjectId,board_a,626f6172-645f-4612-9e6b-696361645f70,rev?*%
%TF.SameCoordinates,Original*%
%TF.FileFunction,Copper,L1,Top*%
%TF.FilePolarity,Positive*%
%FSLAX46Y46*%
G04 Gerber Fmt 4.6, Leading zero omitted, Abs format (unit mm)*
G04 Created by KiCad (PCBNEW 10.0.6-10.0.6~ubuntu26.04.1) date 2026-10-05 17:17:38*
%MOMM*%
%LPD*%
G01*
G04 APERTURE LIST*
G04 Aperture macros list*
%AMRoundRect*
0 Rectangle with rounded corners*
0 $1 Rounding radius*
0 $2 $3 $4 $5 $6 $7 $8 $9 X,Y pos of 4 corners*
0 Add a 4 corners polygon primitive as box body*
4,1,4,$2,$3,$4,$5,$6,$7,$8,$9,$2,$3,0*
0 Add four circle primitives for the rounded corners*
1,1,$1+$1,$2,$3*
1,1,$1+$1,$4,$5*
1,1,$1+$1,$6,$7*
1,1,$1+$1,$8,$9*
0 Add four rect primitives between the rounded corners*
20,1,$1+$1,$2,$3,$4,$5,0*
20,1,$1+$1,$4,$5,$6,$7,0*
20,1,$1+$1,$6,$7,$8,$9,0*
20,1,$1+$1,$8,$9,$2,$3,0*%
%AMFreePoly0*
4,1,23,0.500000,-0.750000,0.000000,-0.750000,0.000000,-0.745722,-0.065263,-0.745722,-0.191342,-0.711940,-0.304381,-0.646677,-0.396677,-0.554381,-0.461940,-0.441342,-0.495722,-0.315263,-0.495722,-0.250000,-0.500000,-0.250000,-0.500000,0.250000,-0.495722,0.250000,-0.495722,0.315263,-0.461940,0.441342,-0.396677,0.554381,-0.304381,0.646677,-0.191342,0.711940,-0.065263,0.745722,0.000000,0.745722,
0.000000,0.750000,0.500000,0.750000,0.500000,-0.750000,0.500000,-0.750000,$1*%
%AMFreePoly1*
4,1,23,0.000000,0.745722,0.065263,0.745722,0.191342,0.711940,0.304381,0.646677,0.396677,0.554381,0.461940,0.441342,0.495722,0.315263,0.495722,0.250000,0.500000,0.250000,0.500000,-0.250000,0.495722,-0.250000,0.495722,-0.315263,0.461940,-0.441342,0.396677,-0.554381,0.304381,-0.646677,0.191342,-0.711940,0.065263,-0.745722,0.000000,-0.745722,0.000000,-0.750000,-0.500000,-0.750000,
-0.500000,0.750000,0.000000,0.750000,0.000000,0.745722,0.000000,0.745722,$1*%
G04 Aperture macros list end*
%TA.AperFunction,EtchedComponent*%
%ADD10C,0.000000*%
%TD*%
%TA.AperFunction,ComponentPad*%
%ADD11R,1.700000X1.700000*%
%TD*%
%TA.AperFunction,ComponentPad*%
%ADD12C,1.700000*%
%TD*%
%TA.AperFunction,SMDPad,CuDef*%
%ADD13RoundRect,0.200000X0.275000X-0.200000X0.275000X0.200000X-0.275000X0.200000X-0.275000X-0.200000X0*%
%TD*%
%TA.AperFunction,ComponentPad*%
%ADD14RoundRect,0.262500X-0.262500X-0.262500X0.262500X-0.262500X0.262500X0.262500X-0.262500X0.262500X0*%
%TD*%
%TA.AperFunction,ComponentPad*%
%ADD15C,1.050000*%
%TD*%
%TA.AperFunction,SMDPad,CuDef*%
%ADD16RoundRect,0.225000X0.250000X-0.225000X0.250000X0.225000X-0.250000X0.225000X-0.250000X-0.225000X0*%
%TD*%
%TA.AperFunction,SMDPad,CuDef*%
%ADD17FreePoly0,90.000000*%
%TD*%
%TA.AperFunction,SMDPad,CuDef*%
%ADD18FreePoly1,90.000000*%
%TD*%
%TA.AperFunction,SMDPad,CuDef*%
%ADD19FreePoly0,0.000000*%
%TD*%
%TA.AperFunction,SMDPad,CuDef*%
%ADD20FreePoly1,0.000000*%
%TD*%
%TA.AperFunction,ViaPad*%
%ADD21C,0.600000*%
%TD*%
%TA.AperFunction,Conductor*%
%ADD22C,0.400000*%
%TD*%
%TA.AperFunction,Conductor*%
%ADD23C,0.300000*%
%TD*%
%TA.AperFunction,Conductor*%
%ADD24C,0.200000*%
%TD*%
%TA.AperFunction,Conductor*%
%ADD25C,0.150000*%
%TD*%
G04 APERTURE END LIST*
D10*
%TA.AperFunction,EtchedComponent*%
%TO.C,JP4*%
G36*
X99030000Y-111250000D02*
G01*
X98430000Y-111250000D01*
X98430000Y-110750000D01*
X99030000Y-110750000D01*
X99030000Y-111250000D01*
G37*
%TD.AperFunction*%
%TA.AperFunction,EtchedComponent*%
%TO.C,JP1*%
G36*
X106850000Y-121900000D02*
G01*
X106350000Y-121900000D01*
X106350000Y-121300000D01*
X106850000Y-121300000D01*
X106850000Y-121900000D01*
G37*
%TD.AperFunction*%
%TA.AperFunction,EtchedComponent*%
%TO.C,JP2*%
G36*
X104700000Y-109150000D02*
G01*
X104100000Y-109150000D01*
X104100000Y-108650000D01*
X104700000Y-108650000D01*
X104700000Y-109150000D01*
G37*
%TD.AperFunction*%
%TA.AperFunction,EtchedComponent*%
%TO.C,JP3*%
G36*
X96490000Y-111250000D02*
G01*
X95890000Y-111250000D01*
X95890000Y-110750000D01*
X96490000Y-110750000D01*
X96490000Y-111250000D01*
G37*
%TD.AperFunction*%
%TD*%
D11*
%TO.P,J2,1*%
%TO.N,/GPIO0*%
X110160000Y-100000000D03*
D12*
%TO.P,J2,2*%
%TO.N,/VDDIO*%
X112700000Y-100000000D03*
%TO.P,J2,3*%
%TO.N,/GPIO1*%
X110160000Y-102540000D03*
%TO.P,J2,4*%
%TO.N,/VDD_IN*%
X112700000Y-102540000D03*
%TO.P,J2,5*%
%TO.N,/GPIO2*%
X110160000Y-105080000D03*
%TO.P,J2,6*%
%TO.N,/GND*%
X112700000Y-105080000D03*
%TO.P,J2,7*%
%TO.N,/GPIO3*%
X110160000Y-107620000D03*
%TO.P,J2,8*%
%TO.N,/SCK*%
X112700000Y-107620000D03*
%TO.P,J2,9*%
%TO.N,/GPIO4*%
X110160000Y-110160000D03*
%TO.P,J2,10*%
%TO.N,/SDO*%
X112700000Y-110160000D03*
%TO.P,J2,11*%
%TO.N,/GPIO5*%
X110160000Y-112700000D03*
%TO.P,J2,12*%
%TO.N,/SDI*%
X112700000Y-112700000D03*
%TO.P,J2,13*%
%TO.N,/GPIO6*%
X110160000Y-115240000D03*
%TO.P,J2,14*%
%TO.N,/CS*%
X112700000Y-115240000D03*
%TO.P,J2,15*%
%TO.N,/GPIO7*%
X110160000Y-117780000D03*
%TO.P,J2,16*%
%TO.N,/PROM*%
X112700000Y-117780000D03*
%TD*%
D13*
%TO.P,R1,1*%
%TO.N,/PU_SDA*%
X96190000Y-115425000D03*
%TO.P,R1,2*%
%TO.N,/SDI*%
X96190000Y-113775000D03*
%TD*%
D14*
%TO.P,J1,1*%
%TO.N,/VDD*%
X100000000Y-100000000D03*
D15*
%TO.P,J1,2*%
%TO.N,/VDDIO*%
X98730000Y-100000000D03*
%TO.P,J1,3*%
%TO.N,/GND*%
X97460000Y-100000000D03*
%TO.P,J1,4*%
%TO.N,/GPIO0*%
X96190000Y-100000000D03*
%TO.P,J1,5*%
%TO.N,/GPIO1*%
X94920000Y-100000000D03*
%TO.P,J1,6*%
%TO.N,/GPIO2*%
X93650000Y-100000000D03*
%TO.P,J1,7*%
%TO.N,/GPIO3*%
X92380000Y-100000000D03*
D14*
%TO.P,J1,11*%
%TO.N,/CS*%
X100000000Y-117780000D03*
D15*
%TO.P,J1,12*%
%TO.N,/SCK*%
X98730000Y-117780000D03*
%TO.P,J1,13*%
%TO.N,/SDO*%
X97460000Y-117780000D03*
%TO.P,J1,14*%
%TO.N,/SDI*%
X96190000Y-117780000D03*
%TO.P,J1,15*%
%TO.N,/GPIO4*%
X94920000Y-117780000D03*
%TO.P,J1,16*%
%TO.N,/GPIO5*%
X93650000Y-117780000D03*
%TO.P,J1,17*%
%TO.N,/GPIO6*%
X92380000Y-117780000D03*
%TO.P,J1,18*%
%TO.N,/GPIO7*%
X91110000Y-117780000D03*
%TO.P,J1,19*%
%TO.N,/PROM*%
X89840000Y-117780000D03*
%TD*%
D16*
%TO.P,C1,1*%
%TO.N,/VDD*%
X100600000Y-103775000D03*
%TO.P,C1,2*%
%TO.N,/GND*%
X100600000Y-102225000D03*
%TD*%
D13*
%TO.P,R3,1*%
%TO.N,/VDDIO*%
X89840000Y-115425000D03*
%TO.P,R3,2*%
%TO.N,/PROM*%
X89840000Y-113775000D03*
%TD*%
D17*
%TO.P,JP4,1*%
%TO.N,/VDDIO*%
X98730000Y-111650000D03*
D18*
%TO.P,JP4,2*%
%TO.N,/PU_SCL*%
X98730000Y-110350000D03*
%TD*%
D13*
%TO.P,R2,1*%
%TO.N,/PU_SCL*%
X98730000Y-115425000D03*
%TO.P,R2,2*%
%TO.N,/SCK*%
X98730000Y-113775000D03*
%TD*%
D11*
%TO.P,J3,1*%
%TO.N,/VDD_IN*%
X110160000Y-121600000D03*
D12*
%TO.P,J3,2*%
%TO.N,/VDD*%
X112700000Y-121600000D03*
%TD*%
D19*
%TO.P,JP1,1*%
%TO.N,/VDD_IN*%
X105950000Y-121600000D03*
D20*
%TO.P,JP1,2*%
%TO.N,/VDD*%
X107250000Y-121600000D03*
%TD*%
D13*
%TO.P,R4,1*%
%TO.N,/VDDIO*%
X101600000Y-115425000D03*
%TO.P,R4,2*%
%TO.N,/CS*%
X101600000Y-113775000D03*
%TD*%
D16*
%TO.P,C2,1*%
%TO.N,/VDD*%
X100600000Y-106975000D03*
%TO.P,C2,2*%
%TO.N,/GND*%
X100600000Y-105425000D03*
%TD*%
D17*
%TO.P,JP2,1*%
%TO.N,/VDD_IN*%
X104400000Y-109550000D03*
D18*
%TO.P,JP2,2*%
%TO.N,/VDDIO*%
X104400000Y-108250000D03*
%TD*%
D17*
%TO.P,JP3,1*%
%TO.N,/VDDIO*%
X96190000Y-111650000D03*
D18*
%TO.P,JP3,2*%
%TO.N,/PU_SDA*%
X96190000Y-110350000D03*
%TD*%
D16*
%TO.P,C3,1*%
%TO.N,/VDDIO*%
X97500000Y-103775000D03*
%TO.P,C3,2*%
%TO.N,/GND*%
X97500000Y-102225000D03*
%TD*%
%TO.P,C4,1*%
%TO.N,/VDDIO*%
X97500000Y-106975000D03*
%TO.P,C4,2*%
%TO.N,/GND*%
X97500000Y-105425000D03*
%TD*%
D21*
%TO.N,/GND*%
X99751100Y-104576100D03*
%TO.N,/VDD_IN*%
X107194600Y-120355400D03*
X105648300Y-109101000D03*
%TO.N,/PU_SCL*%
X99948400Y-110099700D03*
X99051800Y-112900900D03*
%TD*%
%TO.N,/VDD*%
D22*
X108959800Y-120399800D02*
X107759600Y-121600000D01*
X112700000Y-121600000D02*
X111499800Y-120399800D01*
X100600000Y-103775000D02*
X101444800Y-104619800D01*
X101444800Y-104619800D02*
X101444800Y-106130200D01*
X100000000Y-100000000D02*
X101482500Y-101482500D01*
X101444800Y-106130200D02*
X100600000Y-106975000D01*
D23*
X111499800Y-120399800D02*
X108959800Y-120399800D01*
D22*
X101482500Y-101482500D02*
X101482500Y-102892500D01*
X101482500Y-102892500D02*
X100600000Y-103775000D01*
X107759600Y-121600000D02*
X107250000Y-121600000D01*
%TO.N,/VDDIO*%
X97500000Y-103775000D02*
X98349100Y-104624100D01*
X98730000Y-99796400D02*
X99737300Y-98789100D01*
X98349100Y-106125900D02*
X97500000Y-106975000D01*
X111489100Y-98789100D02*
X112700000Y-100000000D01*
X97500000Y-111650000D02*
X98730000Y-111650000D01*
X100701000Y-113621000D02*
X100701000Y-114526000D01*
X97500000Y-109473200D02*
X95530100Y-109473200D01*
X99737300Y-98789100D02*
X111489100Y-98789100D01*
X97500000Y-111650000D02*
X97500000Y-109473200D01*
X89840000Y-115163300D02*
X89840000Y-115425000D01*
X97500000Y-108250000D02*
X104400000Y-108250000D01*
X97500000Y-109473200D02*
X97500000Y-108250000D01*
X98730000Y-100000000D02*
X98730000Y-102545000D01*
X98730000Y-111650000D02*
X100701000Y-113621000D01*
X96190000Y-111650000D02*
X97500000Y-111650000D01*
X98730000Y-100000000D02*
X98730000Y-99796400D01*
X95530100Y-109473200D02*
X89840000Y-115163300D01*
X100701000Y-114526000D02*
X101600000Y-115425000D01*
X98730000Y-102545000D02*
X97500000Y-103775000D01*
X98349100Y-104624100D02*
X98349100Y-106125900D01*
X97500000Y-106975000D02*
X97500000Y-108250000D01*
%TO.N,/GND*%
X97460000Y-100000000D02*
X97460000Y-102185000D01*
X97460000Y-102185000D02*
X97500000Y-102225000D01*
X97500000Y-102225000D02*
X96651100Y-103073900D01*
X100600000Y-102225000D02*
X99751100Y-103073900D01*
X99751100Y-103073900D02*
X99751100Y-104576100D01*
X96651100Y-103073900D02*
X96651100Y-104576100D01*
X96651100Y-104576100D02*
X97500000Y-105425000D01*
X99751100Y-104576100D02*
X100600000Y-105425000D01*
%TO.N,/GPIO0*%
D24*
X112225600Y-101101700D02*
X111261700Y-100137800D01*
X110160000Y-100000000D02*
X111261700Y-100000000D01*
X111261700Y-100137800D02*
X111261700Y-100000000D01*
X97898500Y-98291500D02*
X112550900Y-98291500D01*
X113814700Y-99555300D02*
X113814700Y-100471700D01*
X112550900Y-98291500D02*
X113814700Y-99555300D01*
X96190000Y-100000000D02*
X97898500Y-98291500D01*
X113814700Y-100471700D02*
X113184700Y-101101700D01*
X113184700Y-101101700D02*
X112225600Y-101101700D01*
%TO.N,/GPIO2*%
X112696500Y-97939800D02*
X95710200Y-97939800D01*
X110160000Y-105080000D02*
X110881800Y-105080000D01*
X114166400Y-99409700D02*
X112696500Y-97939800D01*
X112275700Y-103686100D02*
X113186900Y-103686100D01*
X114166400Y-102706600D02*
X114166400Y-99409700D01*
X95710200Y-97939800D02*
X93650000Y-100000000D01*
X110881800Y-105080000D02*
X112275700Y-103686100D01*
X113186900Y-103686100D02*
X114166400Y-102706600D01*
%TO.N,/CS*%
X102349200Y-114524200D02*
X101600000Y-113775000D01*
X100000000Y-117780000D02*
X100399000Y-117780000D01*
X102349200Y-115829800D02*
X102349200Y-114524200D01*
X100399000Y-117780000D02*
X102349200Y-115829800D01*
%TO.N,/SCK*%
X97960000Y-117010000D02*
X97960000Y-114545000D01*
X103106100Y-115969800D02*
X103106100Y-113111100D01*
X97960000Y-114545000D02*
X98730000Y-113775000D01*
X99512400Y-118562400D02*
X100513500Y-118562400D01*
X100513500Y-118562400D02*
X103106100Y-115969800D01*
X98730000Y-117780000D02*
X99512400Y-118562400D01*
X98730000Y-117780000D02*
X97960000Y-117010000D01*
X109708500Y-106508700D02*
X111588700Y-106508700D01*
X103106100Y-113111100D02*
X109708500Y-106508700D01*
X111588700Y-106508700D02*
X112700000Y-107620000D01*
%TO.N,/SDO*%
X103581700Y-115115500D02*
X109708600Y-108988600D01*
X111528600Y-108988600D02*
X112700000Y-110160000D01*
X98594100Y-118914100D02*
X100659100Y-118914100D01*
X109708600Y-108988600D02*
X111528600Y-108988600D01*
X103581700Y-115991500D02*
X103581700Y-115115500D01*
X97460000Y-117780000D02*
X98594100Y-118914100D01*
X100659100Y-118914100D02*
X103581700Y-115991500D01*
%TO.N,/SDI*%
X96922000Y-114507000D02*
X96190000Y-113775000D01*
X96922000Y-117048000D02*
X96922000Y-114507000D01*
X96190000Y-117780000D02*
X96922000Y-117048000D01*
%TO.N,/GPIO4*%
X96405800Y-119265800D02*
X100804700Y-119265800D01*
X109910500Y-110160000D02*
X110160000Y-110160000D01*
X100804700Y-119265800D02*
X109910500Y-110160000D01*
X94920000Y-117780000D02*
X96405800Y-119265800D01*
%TO.N,/GPIO5*%
X93650000Y-117780000D02*
X95487500Y-119617500D01*
X107867800Y-112700000D02*
X110160000Y-112700000D01*
X100950300Y-119617500D02*
X107867800Y-112700000D01*
X95487500Y-119617500D02*
X100950300Y-119617500D01*
%TO.N,/GPIO6*%
X92380000Y-117780000D02*
X94569200Y-119969200D01*
X105825100Y-115240000D02*
X110160000Y-115240000D01*
X101095900Y-119969200D02*
X105825100Y-115240000D01*
X94569200Y-119969200D02*
X101095900Y-119969200D01*
%TO.N,/GPIO7*%
X101241500Y-120320900D02*
X103782400Y-117780000D01*
X103782400Y-117780000D02*
X110160000Y-117780000D01*
X93650900Y-120320900D02*
X101241500Y-120320900D01*
X91110000Y-117780000D02*
X93650900Y-120320900D01*
%TO.N,/PROM*%
X89840000Y-117780000D02*
X89309600Y-117249600D01*
X88912100Y-114702900D02*
X89840000Y-113775000D01*
X101387100Y-120672600D02*
X102442200Y-119617500D01*
X89840000Y-117780000D02*
X92732600Y-120672600D01*
X110862500Y-119617500D02*
X112700000Y-117780000D01*
D25*
X89114000Y-115689700D02*
X88912100Y-115487800D01*
X89114000Y-117249600D02*
X89114000Y-115689700D01*
D24*
X88912100Y-115487800D02*
X88912100Y-114702900D01*
X102442200Y-119617500D02*
X110862500Y-119617500D01*
X89309600Y-117249600D02*
X89114000Y-117249600D01*
X92732600Y-120672600D02*
X101387100Y-120672600D01*
%TO.N,/VDD_IN*%
D22*
X105649100Y-109100200D02*
X105649100Y-107870100D01*
X105950000Y-121600000D02*
X105950000Y-121133200D01*
X105649100Y-107870100D02*
X109709200Y-103810000D01*
D23*
X105649100Y-109100200D02*
X105648300Y-109100200D01*
X105648300Y-109101000D02*
X104849000Y-109101000D01*
D22*
X109709200Y-103810000D02*
X111430000Y-103810000D01*
D23*
X104849000Y-109101000D02*
X104400000Y-109550000D01*
D22*
X105950000Y-121133200D02*
X106727800Y-120355400D01*
X111430000Y-103810000D02*
X112700000Y-102540000D01*
X105648300Y-109100200D02*
X105648300Y-109101000D01*
X106727800Y-120355400D02*
X107194600Y-120355400D01*
%TO.N,/PU_SDA*%
D25*
X95640200Y-110899800D02*
X96190000Y-110350000D01*
D24*
X95130800Y-114365800D02*
X95130800Y-110899800D01*
D25*
X95130800Y-110899800D02*
X95640200Y-110899800D01*
D24*
X96190000Y-115425000D02*
X95130800Y-114365800D01*
%TO.N,/PU_SCL*%
X99948400Y-110099700D02*
X98980300Y-110099700D01*
X99051800Y-112900900D02*
X99476100Y-113325200D01*
X98980300Y-110099700D02*
X98730000Y-110350000D01*
X99476100Y-113325200D02*
X99476100Y-114678900D01*
X99476100Y-114678900D02*
X98730000Y-115425000D01*
%TD*%
%TA.AperFunction,Conductor*%
%TO.N,/GND*%
G36*
X116317683Y-97319407D02*
G01*
X116329496Y-97329496D01*
X117070504Y-98070504D01*
X117098281Y-98125021D01*
X117099500Y-98140508D01*
X117099500Y-122059492D01*
X117080593Y-122117683D01*
X117070504Y-122129496D01*
X116329496Y-122870504D01*
X116274979Y-122898281D01*
X116259492Y-122899500D01*
X89240508Y-122899500D01*
X89182317Y-122880593D01*
X89170504Y-122870504D01*
X88429496Y-122129496D01*
X88401719Y-122074979D01*
X88400500Y-122059492D01*
X88400500Y-115672156D01*
X88419407Y-115613965D01*
X88468907Y-115578001D01*
X88530093Y-115578001D01*
X88579593Y-115613965D01*
X88585236Y-115622655D01*
X88617925Y-115679274D01*
X88631631Y-115703012D01*
X88696888Y-115768269D01*
X88739001Y-115792583D01*
X88779941Y-115838052D01*
X88788500Y-115878319D01*
X88788500Y-117097120D01*
X88785127Y-117122742D01*
X88763500Y-117203456D01*
X88763500Y-117295744D01*
X88781011Y-117361095D01*
X88787387Y-117384890D01*
X88802227Y-117410594D01*
X88833531Y-117464812D01*
X88898788Y-117530069D01*
X88978712Y-117576214D01*
X88994653Y-117580485D01*
X89045968Y-117613809D01*
X89067895Y-117670930D01*
X89066130Y-117695421D01*
X89064500Y-117703615D01*
X89064500Y-117856382D01*
X89094302Y-118006204D01*
X89094302Y-118006206D01*
X89152759Y-118147334D01*
X89152759Y-118147335D01*
X89160885Y-118159496D01*
X89237630Y-118274352D01*
X89345648Y-118382370D01*
X89472663Y-118467239D01*
X89613795Y-118525698D01*
X89763620Y-118555500D01*
X89763621Y-118555500D01*
X89916379Y-118555500D01*
X89916380Y-118555500D01*
X90034165Y-118532071D01*
X90094926Y-118539263D01*
X90123483Y-118559165D01*
X92517388Y-120953070D01*
X92597312Y-120999214D01*
X92686456Y-121023100D01*
X92686458Y-121023100D01*
X101433242Y-121023100D01*
X101433244Y-121023100D01*
X101522388Y-120999214D01*
X101602312Y-120953070D01*
X102558386Y-119996996D01*
X102612903Y-119969219D01*
X102628390Y-119968000D01*
X106239090Y-119968000D01*
X106297281Y-119986907D01*
X106333245Y-120036407D01*
X106333245Y-120097593D01*
X106309093Y-120137004D01*
X105870293Y-120575801D01*
X105821101Y-120602101D01*
X105821173Y-120602368D01*
X105820030Y-120602674D01*
X105819627Y-120602890D01*
X105818060Y-120603201D01*
X105690874Y-120637281D01*
X105629264Y-120662801D01*
X105515239Y-120728633D01*
X105462333Y-120769229D01*
X105369229Y-120862333D01*
X105328633Y-120915239D01*
X105262801Y-121029264D01*
X105237281Y-121090874D01*
X105203205Y-121218046D01*
X105203205Y-121218051D01*
X105194500Y-121284172D01*
X105194500Y-121915827D01*
X105203205Y-121981948D01*
X105203205Y-121981953D01*
X105237281Y-122109125D01*
X105262801Y-122170735D01*
X105262803Y-122170739D01*
X105262805Y-122170743D01*
X105279697Y-122200000D01*
X105328633Y-122284760D01*
X105369229Y-122337666D01*
X105369231Y-122337668D01*
X105369235Y-122337673D01*
X105462327Y-122430765D01*
X105462331Y-122430768D01*
X105462333Y-122430770D01*
X105515239Y-122471366D01*
X105515243Y-122471369D01*
X105629257Y-122537195D01*
X105629263Y-122537197D01*
X105629264Y-122537198D01*
X105690874Y-122562718D01*
X105690875Y-122562718D01*
X105690877Y-122562719D01*
X105818044Y-122596794D01*
X105884174Y-122605500D01*
X105884175Y-122605500D01*
X106449999Y-122605500D01*
X106450000Y-122605500D01*
X106547776Y-122586051D01*
X106547782Y-122586046D01*
X106556788Y-122582318D01*
X106557627Y-122584346D01*
X106603879Y-122571298D01*
X106642569Y-122583869D01*
X106643212Y-122582318D01*
X106652219Y-122586047D01*
X106652224Y-122586051D01*
X106750000Y-122605500D01*
X106750001Y-122605500D01*
X107315825Y-122605500D01*
X107315826Y-122605500D01*
X107381956Y-122596794D01*
X107509123Y-122562719D01*
X107570743Y-122537195D01*
X107684757Y-122471369D01*
X107737673Y-122430765D01*
X107830765Y-122337673D01*
X107871369Y-122284757D01*
X107937195Y-122170743D01*
X107962719Y-122109123D01*
X107985770Y-122023092D01*
X108019094Y-121971780D01*
X108031895Y-121962982D01*
X108036214Y-121960489D01*
X108890498Y-121106204D01*
X108945013Y-121078429D01*
X109005445Y-121088000D01*
X109048710Y-121131265D01*
X109059500Y-121176210D01*
X109059500Y-122474672D01*
X109059501Y-122474684D01*
X109074033Y-122547736D01*
X109074035Y-122547742D01*
X109129397Y-122630599D01*
X109129399Y-122630601D01*
X109212260Y-122685966D01*
X109255771Y-122694621D01*
X109285315Y-122700498D01*
X109285320Y-122700498D01*
X109285326Y-122700500D01*
X109285327Y-122700500D01*
X111034673Y-122700500D01*
X111034674Y-122700500D01*
X111107740Y-122685966D01*
X111190601Y-122630601D01*
X111245966Y-122547740D01*
X111260500Y-122474674D01*
X111260500Y-121036611D01*
X111279407Y-120978420D01*
X111328907Y-120942456D01*
X111390093Y-120942456D01*
X111429504Y-120966607D01*
X111627498Y-121164601D01*
X111655275Y-121219118D01*
X111651649Y-121265197D01*
X111626597Y-121342301D01*
X111599500Y-121513385D01*
X111599500Y-121686614D01*
X111626597Y-121857702D01*
X111626598Y-121857706D01*
X111680123Y-122022438D01*
X111680125Y-122022441D01*
X111755687Y-122170743D01*
X111758768Y-122176788D01*
X111860586Y-122316928D01*
X111983072Y-122439414D01*
X112123212Y-122541232D01*
X112277555Y-122619873D01*
X112277557Y-122619873D01*
X112277558Y-122619874D01*
X112277561Y-122619876D01*
X112442293Y-122673401D01*
X112442297Y-122673402D01*
X112613386Y-122700500D01*
X112613389Y-122700500D01*
X112786614Y-122700500D01*
X112957702Y-122673402D01*
X112957706Y-122673401D01*
X113122438Y-122619876D01*
X113122440Y-122619874D01*
X113122445Y-122619873D01*
X113276788Y-122541232D01*
X113416928Y-122439414D01*
X113539414Y-122316928D01*
X113641232Y-122176788D01*
X113719873Y-122022445D01*
X113719874Y-122022440D01*
X113719876Y-122022438D01*
X113773401Y-121857706D01*
X113773402Y-121857702D01*
X113800500Y-121686614D01*
X113800500Y-121513385D01*
X113773402Y-121342297D01*
X113773401Y-121342293D01*
X113719876Y-121177561D01*
X113719874Y-121177558D01*
X113719873Y-121177557D01*
X113719873Y-121177555D01*
X113641232Y-121023212D01*
X113539414Y-120883072D01*
X113416928Y-120760586D01*
X113276788Y-120658768D01*
X113276787Y-120658767D01*
X113276785Y-120658766D01*
X113122441Y-120580125D01*
X113122438Y-120580123D01*
X112957706Y-120526598D01*
X112957702Y-120526597D01*
X112786614Y-120499500D01*
X112786611Y-120499500D01*
X112613389Y-120499500D01*
X112613386Y-120499500D01*
X112442301Y-120526597D01*
X112365197Y-120551649D01*
X112304011Y-120551648D01*
X112264601Y-120527498D01*
X112059203Y-120322100D01*
X111776414Y-120039311D01*
X111776411Y-120039309D01*
X111776410Y-120039308D01*
X111776409Y-120039307D01*
X111673692Y-119980003D01*
X111673689Y-119980002D01*
X111673687Y-119980001D01*
X111559109Y-119949301D01*
X111440491Y-119949301D01*
X111325913Y-119980001D01*
X111325912Y-119980001D01*
X111325910Y-119980002D01*
X111315458Y-119986037D01*
X111265959Y-119999300D01*
X111215389Y-119999300D01*
X111157198Y-119980393D01*
X111121234Y-119930893D01*
X111121234Y-119869707D01*
X111145383Y-119830298D01*
X112159292Y-118816387D01*
X112213807Y-118788612D01*
X112274237Y-118798182D01*
X112277555Y-118799873D01*
X112277557Y-118799873D01*
X112277560Y-118799875D01*
X112277561Y-118799876D01*
X112442293Y-118853401D01*
X112442297Y-118853402D01*
X112613386Y-118880500D01*
X112613389Y-118880500D01*
X112786614Y-118880500D01*
X112957702Y-118853402D01*
X112957706Y-118853401D01*
X113122438Y-118799876D01*
X113122440Y-118799874D01*
X113122445Y-118799873D01*
X113276788Y-118721232D01*
X113416928Y-118619414D01*
X113539414Y-118496928D01*
X113641232Y-118356788D01*
X113719873Y-118202445D01*
X113719874Y-118202440D01*
X113719876Y-118202438D01*
X113773401Y-118037706D01*
X113773402Y-118037702D01*
X113800500Y-117866614D01*
X113800500Y-117693385D01*
X113773402Y-117522297D01*
X113773401Y-117522293D01*
X113719876Y-117357561D01*
X113719874Y-117357558D01*
X113719873Y-117357557D01*
X113719873Y-117357555D01*
X113641232Y-117203212D01*
X113539414Y-117063072D01*
X113416928Y-116940586D01*
X113276788Y-116838768D01*
X113276787Y-116838767D01*
X113276785Y-116838766D01*
X113122441Y-116760125D01*
X113122438Y-116760123D01*
X112957706Y-116706598D01*
X112957702Y-116706597D01*
X112786614Y-116679500D01*
X112786611Y-116679500D01*
X112613389Y-116679500D01*
X112613386Y-116679500D01*
X112442297Y-116706597D01*
X112442293Y-116706598D01*
X112277561Y-116760123D01*
X112277558Y-116760125D01*
X112123214Y-116838766D01*
X111983073Y-116940585D01*
X111860585Y-117063073D01*
X111758766Y-117203214D01*
X111680125Y-117357558D01*
X111680123Y-117357561D01*
X111626598Y-117522293D01*
X111626597Y-117522297D01*
X111599500Y-117693385D01*
X111599500Y-117866614D01*
X111626597Y-118037702D01*
X111626598Y-118037706D01*
X111680123Y-118202438D01*
X111680126Y-118202445D01*
X111681818Y-118205765D01*
X111691385Y-118266198D01*
X111663609Y-118320708D01*
X110746314Y-119238004D01*
X110691797Y-119265781D01*
X110676310Y-119267000D01*
X103030089Y-119267000D01*
X102971898Y-119248093D01*
X102935934Y-119198593D01*
X102935934Y-119137407D01*
X102960085Y-119097996D01*
X103898585Y-118159496D01*
X103953102Y-118131719D01*
X103968589Y-118130500D01*
X109044823Y-118130500D01*
X109103014Y-118149407D01*
X109138977Y-118198905D01*
X109140127Y-118202446D01*
X109200384Y-118320708D01*
X109218768Y-118356788D01*
X109320586Y-118496928D01*
X109443072Y-118619414D01*
X109583212Y-118721232D01*
X109737555Y-118799873D01*
X109737557Y-118799873D01*
X109737558Y-118799874D01*
X109737561Y-118799876D01*
X109902293Y-118853401D01*
X109902297Y-118853402D01*
X110073386Y-118880500D01*
X110073389Y-118880500D01*
X110246614Y-118880500D01*
X110417702Y-118853402D01*
X110417706Y-118853401D01*
X110582438Y-118799876D01*
X110582440Y-118799874D01*
X110582445Y-118799873D01*
X110736788Y-118721232D01*
X110876928Y-118619414D01*
X110999414Y-118496928D01*
X111101232Y-118356788D01*
X111179873Y-118202445D01*
X111179874Y-118202440D01*
X111179876Y-118202438D01*
X111233401Y-118037706D01*
X111233402Y-118037702D01*
X111260500Y-117866614D01*
X111260500Y-117693385D01*
X111233402Y-117522297D01*
X111233401Y-117522293D01*
X111179876Y-117357561D01*
X111179874Y-117357558D01*
X111179873Y-117357557D01*
X111179873Y-117357555D01*
X111101232Y-117203212D01*
X110999414Y-117063072D01*
X110876928Y-116940586D01*
X110736788Y-116838768D01*
X110736787Y-116838767D01*
X110736785Y-116838766D01*
X110582441Y-116760125D01*
X110582438Y-116760123D01*
X110417706Y-116706598D01*
X110417702Y-116706597D01*
X110246614Y-116679500D01*
X110246611Y-116679500D01*
X110073389Y-116679500D01*
X110073386Y-116679500D01*
X109902297Y-116706597D01*
X109902293Y-116706598D01*
X109737561Y-116760123D01*
X109737558Y-116760125D01*
X109583214Y-116838766D01*
X109443073Y-116940585D01*
X109320585Y-117063073D01*
X109218766Y-117203214D01*
X109140127Y-117357553D01*
X109139294Y-117360117D01*
X109138978Y-117361093D01*
X109138977Y-117361095D01*
X109103011Y-117410594D01*
X109044823Y-117429500D01*
X104370290Y-117429500D01*
X104312099Y-117410593D01*
X104276135Y-117361093D01*
X104276135Y-117299907D01*
X104300286Y-117260496D01*
X105941286Y-115619496D01*
X105995803Y-115591719D01*
X106011290Y-115590500D01*
X109044823Y-115590500D01*
X109103014Y-115609407D01*
X109138977Y-115658905D01*
X109140127Y-115662446D01*
X109218766Y-115816785D01*
X109218768Y-115816788D01*
X109320586Y-115956928D01*
X109443072Y-116079414D01*
X109583212Y-116181232D01*
X109737555Y-116259873D01*
X109737557Y-116259873D01*
X109737558Y-116259874D01*
X109737561Y-116259876D01*
X109902293Y-116313401D01*
X109902297Y-116313402D01*
X110073386Y-116340500D01*
X110073389Y-116340500D01*
X110246614Y-116340500D01*
X110417702Y-116313402D01*
X110417706Y-116313401D01*
X110582438Y-116259876D01*
X110582440Y-116259874D01*
X110582445Y-116259873D01*
X110736788Y-116181232D01*
X110876928Y-116079414D01*
X110999414Y-115956928D01*
X111101232Y-115816788D01*
X111179873Y-115662445D01*
X111179874Y-115662440D01*
X111179876Y-115662438D01*
X111233401Y-115497706D01*
X111233402Y-115497702D01*
X111260500Y-115326614D01*
X111260500Y-115153385D01*
X111599500Y-115153385D01*
X111599500Y-115326614D01*
X111626597Y-115497702D01*
X111626598Y-115497706D01*
X111680123Y-115662438D01*
X111680125Y-115662441D01*
X111757851Y-115814990D01*
X111758768Y-115816788D01*
X111860586Y-115956928D01*
X111983072Y-116079414D01*
X112123212Y-116181232D01*
X112277555Y-116259873D01*
X112277557Y-116259873D01*
X112277558Y-116259874D01*
X112277561Y-116259876D01*
X112442293Y-116313401D01*
X112442297Y-116313402D01*
X112613386Y-116340500D01*
X112613389Y-116340500D01*
X112786614Y-116340500D01*
X112957702Y-116313402D01*
X112957706Y-116313401D01*
X113122438Y-116259876D01*
X113122440Y-116259874D01*
X113122445Y-116259873D01*
X113276788Y-116181232D01*
X113416928Y-116079414D01*
X113539414Y-115956928D01*
X113641232Y-115816788D01*
X113719873Y-115662445D01*
X113719874Y-115662440D01*
X113719876Y-115662438D01*
X113773401Y-115497706D01*
X113773402Y-115497702D01*
X113800500Y-115326614D01*
X113800500Y-115153385D01*
X113773402Y-114982297D01*
X113773401Y-114982293D01*
X113719876Y-114817561D01*
X113719874Y-114817558D01*
X113719873Y-114817557D01*
X113719873Y-114817555D01*
X113641232Y-114663212D01*
X113539414Y-114523072D01*
X113416928Y-114400586D01*
X113276788Y-114298768D01*
X113276787Y-114298767D01*
X113276785Y-114298766D01*
X113122441Y-114220125D01*
X113122438Y-114220123D01*
X112957706Y-114166598D01*
X112957702Y-114166597D01*
X112786614Y-114139500D01*
X112786611Y-114139500D01*
X112613389Y-114139500D01*
X112613386Y-114139500D01*
X112442297Y-114166597D01*
X112442293Y-114166598D01*
X112277561Y-114220123D01*
X112277558Y-114220125D01*
X112123214Y-114298766D01*
X111983073Y-114400585D01*
X111983072Y-114400586D01*
X111860586Y-114523072D01*
X111758768Y-114663212D01*
X111740080Y-114699890D01*
X111680125Y-114817558D01*
X111680123Y-114817561D01*
X111626598Y-114982293D01*
X111626597Y-114982297D01*
X111599500Y-115153385D01*
X111260500Y-115153385D01*
X111233402Y-114982297D01*
X111233401Y-114982293D01*
X111179876Y-114817561D01*
X111179874Y-114817558D01*
X111179873Y-114817557D01*
X111179873Y-114817555D01*
X111101232Y-114663212D01*
X110999414Y-114523072D01*
X110876928Y-114400586D01*
X110736788Y-114298768D01*
X110736787Y-114298767D01*
X110736785Y-114298766D01*
X110582441Y-114220125D01*
X110582438Y-114220123D01*
X110417706Y-114166598D01*
X110417702Y-114166597D01*
X110246614Y-114139500D01*
X110246611Y-114139500D01*
X110073389Y-114139500D01*
X110073386Y-114139500D01*
X109902297Y-114166597D01*
X109902293Y-114166598D01*
X109737561Y-114220123D01*
X109737558Y-114220125D01*
X109583214Y-114298766D01*
X109443073Y-114400585D01*
X109443072Y-114400586D01*
X109320586Y-114523072D01*
X109218768Y-114663212D01*
X109205026Y-114690182D01*
X109140127Y-114817553D01*
X109139294Y-114820117D01*
X109138978Y-114821093D01*
X109138977Y-114821095D01*
X109103011Y-114870594D01*
X109044823Y-114889500D01*
X106412989Y-114889500D01*
X106354798Y-114870593D01*
X106318834Y-114821093D01*
X106318834Y-114759907D01*
X106342985Y-114720496D01*
X107983985Y-113079496D01*
X108038502Y-113051719D01*
X108053989Y-113050500D01*
X109044823Y-113050500D01*
X109103014Y-113069407D01*
X109138977Y-113118905D01*
X109140127Y-113122446D01*
X109218766Y-113276785D01*
X109218768Y-113276788D01*
X109320586Y-113416928D01*
X109443072Y-113539414D01*
X109583212Y-113641232D01*
X109737555Y-113719873D01*
X109737557Y-113719873D01*
X109737558Y-113719874D01*
X109737561Y-113719876D01*
X109902293Y-113773401D01*
X109902297Y-113773402D01*
X110073386Y-113800500D01*
X110073389Y-113800500D01*
X110246614Y-113800500D01*
X110417702Y-113773402D01*
X110417706Y-113773401D01*
X110582438Y-113719876D01*
X110582440Y-113719874D01*
X110582445Y-113719873D01*
X110736788Y-113641232D01*
X110876928Y-113539414D01*
X110999414Y-113416928D01*
X111101232Y-113276788D01*
X111179873Y-113122445D01*
X111179874Y-113122440D01*
X111179876Y-113122438D01*
X111233401Y-112957706D01*
X111233402Y-112957702D01*
X111260500Y-112786614D01*
X111260500Y-112613385D01*
X111599500Y-112613385D01*
X111599500Y-112786614D01*
X111626597Y-112957702D01*
X111626598Y-112957706D01*
X111680123Y-113122438D01*
X111680125Y-113122441D01*
X111756214Y-113271777D01*
X111758768Y-113276788D01*
X111860586Y-113416928D01*
X111983072Y-113539414D01*
X112123212Y-113641232D01*
X112277555Y-113719873D01*
X112277557Y-113719873D01*
X112277558Y-113719874D01*
X112277561Y-113719876D01*
X112442293Y-113773401D01*
X112442297Y-113773402D01*
X112613386Y-113800500D01*
X112613389Y-113800500D01*
X112786614Y-113800500D01*
X112957702Y-113773402D01*
X112957706Y-113773401D01*
X113122438Y-113719876D01*
X113122440Y-113719874D01*
X113122445Y-113719873D01*
X113276788Y-113641232D01*
X113416928Y-113539414D01*
X113539414Y-113416928D01*
X113641232Y-113276788D01*
X113719873Y-113122445D01*
X113719874Y-113122440D01*
X113719876Y-113122438D01*
X113773401Y-112957706D01*
X113773402Y-112957702D01*
X113800500Y-112786614D01*
X113800500Y-112613385D01*
X113773402Y-112442297D01*
X113773401Y-112442293D01*
X113719876Y-112277561D01*
X113719874Y-112277558D01*
X113719873Y-112277557D01*
X113719873Y-112277555D01*
X113641232Y-112123212D01*
X113539414Y-111983072D01*
X113416928Y-111860586D01*
X113276788Y-111758768D01*
X113276787Y-111758767D01*
X113276785Y-111758766D01*
X113122441Y-111680125D01*
X113122438Y-111680123D01*
X112957706Y-111626598D01*
X112957702Y-111626597D01*
X112786614Y-111599500D01*
X112786611Y-111599500D01*
X112613389Y-111599500D01*
X112613386Y-111599500D01*
X112442297Y-111626597D01*
X112442293Y-111626598D01*
X112277561Y-111680123D01*
X112277558Y-111680125D01*
X112123214Y-111758766D01*
X111983073Y-111860585D01*
X111860585Y-111983073D01*
X111758766Y-112123214D01*
X111680125Y-112277558D01*
X111680123Y-112277561D01*
X111626598Y-112442293D01*
X111626597Y-112442297D01*
X111599500Y-112613385D01*
X111260500Y-112613385D01*
X111233402Y-112442297D01*
X111233401Y-112442293D01*
X111179876Y-112277561D01*
X111179874Y-112277558D01*
X111179873Y-112277557D01*
X111179873Y-112277555D01*
X111101232Y-112123212D01*
X110999414Y-111983072D01*
X110876928Y-111860586D01*
X110736788Y-111758768D01*
X110736787Y-111758767D01*
X110736785Y-111758766D01*
X110582441Y-111680125D01*
X110582438Y-111680123D01*
X110417706Y-111626598D01*
X110417702Y-111626597D01*
X110246614Y-111599500D01*
X110246611Y-111599500D01*
X110073389Y-111599500D01*
X110073386Y-111599500D01*
X109902297Y-111626597D01*
X109902293Y-111626598D01*
X109737561Y-111680123D01*
X109737558Y-111680125D01*
X109583214Y-111758766D01*
X109443073Y-111860585D01*
X109320585Y-111983073D01*
X109218766Y-112123214D01*
X109140127Y-112277553D01*
X109139294Y-112280117D01*
X109138978Y-112281093D01*
X109138977Y-112281095D01*
X109103011Y-112330594D01*
X109044823Y-112349500D01*
X108455690Y-112349500D01*
X108397499Y-112330593D01*
X108361535Y-112281093D01*
X108361535Y-112219907D01*
X108385686Y-112180496D01*
X108618719Y-111947463D01*
X109454928Y-111111252D01*
X109509443Y-111083477D01*
X109569875Y-111093048D01*
X109583128Y-111101171D01*
X109583212Y-111101232D01*
X109737555Y-111179873D01*
X109737557Y-111179873D01*
X109737558Y-111179874D01*
X109737561Y-111179876D01*
X109902293Y-111233401D01*
X109902297Y-111233402D01*
X110073386Y-111260500D01*
X110073389Y-111260500D01*
X110246614Y-111260500D01*
X110417702Y-111233402D01*
X110417706Y-111233401D01*
X110582438Y-111179876D01*
X110582440Y-111179874D01*
X110582445Y-111179873D01*
X110736788Y-111101232D01*
X110876928Y-110999414D01*
X110999414Y-110876928D01*
X111101232Y-110736788D01*
X111179873Y-110582445D01*
X111179874Y-110582440D01*
X111179876Y-110582438D01*
X111233401Y-110417706D01*
X111233402Y-110417702D01*
X111260500Y-110246614D01*
X111260500Y-110073385D01*
X111233402Y-109902297D01*
X111233401Y-109902293D01*
X111179876Y-109737561D01*
X111179874Y-109737558D01*
X111179873Y-109737557D01*
X111179873Y-109737555D01*
X111101232Y-109583212D01*
X111038080Y-109496291D01*
X111019172Y-109438101D01*
X111038079Y-109379910D01*
X111087579Y-109343946D01*
X111118172Y-109339100D01*
X111342410Y-109339100D01*
X111400601Y-109358007D01*
X111412414Y-109368096D01*
X111663609Y-109619291D01*
X111691386Y-109673808D01*
X111681820Y-109734229D01*
X111680130Y-109737546D01*
X111680123Y-109737561D01*
X111626598Y-109902293D01*
X111626597Y-109902297D01*
X111599500Y-110073385D01*
X111599500Y-110246614D01*
X111626597Y-110417702D01*
X111626598Y-110417706D01*
X111680123Y-110582438D01*
X111680125Y-110582441D01*
X111714649Y-110650200D01*
X111758768Y-110736788D01*
X111860586Y-110876928D01*
X111983072Y-110999414D01*
X112123212Y-111101232D01*
X112277555Y-111179873D01*
X112277557Y-111179873D01*
X112277558Y-111179874D01*
X112277561Y-111179876D01*
X112442293Y-111233401D01*
X112442297Y-111233402D01*
X112613386Y-111260500D01*
X112613389Y-111260500D01*
X112786614Y-111260500D01*
X112957702Y-111233402D01*
X112957706Y-111233401D01*
X113122438Y-111179876D01*
X113122440Y-111179874D01*
X113122445Y-111179873D01*
X113276788Y-111101232D01*
X113416928Y-110999414D01*
X113539414Y-110876928D01*
X113641232Y-110736788D01*
X113719873Y-110582445D01*
X113719874Y-110582440D01*
X113719876Y-110582438D01*
X113773401Y-110417706D01*
X113773402Y-110417702D01*
X113800500Y-110246614D01*
X113800500Y-110073385D01*
X113773402Y-109902297D01*
X113773401Y-109902293D01*
X113719876Y-109737561D01*
X113719874Y-109737558D01*
X113719873Y-109737557D01*
X113719873Y-109737555D01*
X113641232Y-109583212D01*
X113539414Y-109443072D01*
X113416928Y-109320586D01*
X113276788Y-109218768D01*
X113276787Y-109218767D01*
X113276785Y-109218766D01*
X113122441Y-109140125D01*
X113122438Y-109140123D01*
X112957706Y-109086598D01*
X112957702Y-109086597D01*
X112786614Y-109059500D01*
X112786611Y-109059500D01*
X112613389Y-109059500D01*
X112613386Y-109059500D01*
X112442297Y-109086597D01*
X112442293Y-109086598D01*
X112277561Y-109140123D01*
X112277546Y-109140130D01*
X112274229Y-109141820D01*
X112213795Y-109151384D01*
X112159292Y-109123609D01*
X111743814Y-108708132D01*
X111743812Y-108708130D01*
X111663888Y-108661986D01*
X111574744Y-108638100D01*
X111574742Y-108638100D01*
X110935678Y-108638100D01*
X110877487Y-108619193D01*
X110841523Y-108569693D01*
X110841523Y-108508507D01*
X110874718Y-108462817D01*
X110873970Y-108461941D01*
X110876917Y-108459423D01*
X110876922Y-108459418D01*
X110876928Y-108459414D01*
X110999414Y-108336928D01*
X111101232Y-108196788D01*
X111179873Y-108042445D01*
X111179874Y-108042440D01*
X111179876Y-108042438D01*
X111233401Y-107877706D01*
X111233402Y-107877702D01*
X111260500Y-107706614D01*
X111260500Y-107533385D01*
X111233402Y-107362297D01*
X111233401Y-107362293D01*
X111179876Y-107197561D01*
X111179874Y-107197558D01*
X111179873Y-107197557D01*
X111179873Y-107197555D01*
X111119615Y-107079291D01*
X111101233Y-107043213D01*
X111081745Y-107016391D01*
X111062838Y-106958200D01*
X111081745Y-106900009D01*
X111131245Y-106864045D01*
X111161838Y-106859200D01*
X111402510Y-106859200D01*
X111460701Y-106878107D01*
X111472514Y-106888196D01*
X111663609Y-107079291D01*
X111691386Y-107133808D01*
X111681820Y-107194229D01*
X111680130Y-107197546D01*
X111680123Y-107197561D01*
X111626598Y-107362293D01*
X111626597Y-107362297D01*
X111599500Y-107533385D01*
X111599500Y-107706614D01*
X111626597Y-107877702D01*
X111626598Y-107877706D01*
X111680123Y-108042438D01*
X111680125Y-108042441D01*
X111680126Y-108042444D01*
X111680127Y-108042445D01*
X111758768Y-108196788D01*
X111860586Y-108336928D01*
X111983072Y-108459414D01*
X112123212Y-108561232D01*
X112277555Y-108639873D01*
X112277557Y-108639873D01*
X112277558Y-108639874D01*
X112277561Y-108639876D01*
X112442293Y-108693401D01*
X112442297Y-108693402D01*
X112613386Y-108720500D01*
X112613389Y-108720500D01*
X112786614Y-108720500D01*
X112957702Y-108693402D01*
X112957706Y-108693401D01*
X113122438Y-108639876D01*
X113122440Y-108639874D01*
X113122445Y-108639873D01*
X113276788Y-108561232D01*
X113416928Y-108459414D01*
X113539414Y-108336928D01*
X113641232Y-108196788D01*
X113719873Y-108042445D01*
X113719874Y-108042440D01*
X113719876Y-108042438D01*
X113773401Y-107877706D01*
X113773402Y-107877702D01*
X113800500Y-107706614D01*
X113800500Y-107533385D01*
X113773402Y-107362297D01*
X113773401Y-107362293D01*
X113719876Y-107197561D01*
X113719874Y-107197558D01*
X113719873Y-107197557D01*
X113719873Y-107197555D01*
X113641232Y-107043212D01*
X113539414Y-106903072D01*
X113416928Y-106780586D01*
X113276788Y-106678768D01*
X113276787Y-106678767D01*
X113276785Y-106678766D01*
X113122441Y-106600125D01*
X113122438Y-106600123D01*
X112957706Y-106546598D01*
X112957702Y-106546597D01*
X112786614Y-106519500D01*
X112786611Y-106519500D01*
X112613389Y-106519500D01*
X112613386Y-106519500D01*
X112442297Y-106546597D01*
X112442293Y-106546598D01*
X112277561Y-106600123D01*
X112277546Y-106600130D01*
X112274229Y-106601820D01*
X112213795Y-106611384D01*
X112159292Y-106583609D01*
X111803914Y-106228232D01*
X111803912Y-106228230D01*
X111723988Y-106182086D01*
X111723987Y-106182085D01*
X111723986Y-106182085D01*
X111718065Y-106180499D01*
X111718065Y-106180498D01*
X111665303Y-106166361D01*
X111634844Y-106158200D01*
X111634842Y-106158200D01*
X110852958Y-106158200D01*
X110825576Y-106149303D01*
X110797898Y-106141476D01*
X110796665Y-106139909D01*
X110794767Y-106139293D01*
X110777839Y-106115994D01*
X110760053Y-106093399D01*
X110759976Y-106091407D01*
X110758803Y-106089793D01*
X110758803Y-106061002D01*
X110757694Y-106032260D01*
X110758803Y-106030669D01*
X110758803Y-106028607D01*
X110791723Y-105981410D01*
X110793219Y-105980232D01*
X110876928Y-105919414D01*
X110999414Y-105796928D01*
X111101232Y-105656788D01*
X111179873Y-105502445D01*
X111233402Y-105337701D01*
X111249752Y-105234467D01*
X111277527Y-105179953D01*
X111381000Y-105076480D01*
X111435513Y-105048706D01*
X111495945Y-105058277D01*
X111539210Y-105101542D01*
X111550000Y-105146487D01*
X111550000Y-105170510D01*
X111578316Y-105349289D01*
X111634250Y-105521440D01*
X111716431Y-105682730D01*
X111716435Y-105682736D01*
X111772545Y-105759964D01*
X111772546Y-105759964D01*
X112243387Y-105289123D01*
X112299901Y-105387007D01*
X112392993Y-105480099D01*
X112490875Y-105536611D01*
X112020034Y-106007452D01*
X112020034Y-106007453D01*
X112097263Y-106063564D01*
X112097269Y-106063568D01*
X112258559Y-106145749D01*
X112430710Y-106201683D01*
X112609490Y-106230000D01*
X112790510Y-106230000D01*
X112969289Y-106201683D01*
X113141440Y-106145749D01*
X113302733Y-106063566D01*
X113379964Y-106007453D01*
X112909123Y-105536612D01*
X113007007Y-105480099D01*
X113100099Y-105387007D01*
X113156612Y-105289123D01*
X113627453Y-105759964D01*
X113683566Y-105682733D01*
X113765749Y-105521440D01*
X113821683Y-105349289D01*
X113850000Y-105170510D01*
X113850000Y-104989489D01*
X113821683Y-104810710D01*
X113765749Y-104638559D01*
X113683568Y-104477269D01*
X113683564Y-104477263D01*
X113627453Y-104400034D01*
X113627452Y-104400034D01*
X113156611Y-104870875D01*
X113100099Y-104772993D01*
X113007007Y-104679901D01*
X112909123Y-104623387D01*
X113379964Y-104152546D01*
X113379965Y-104152546D01*
X113370471Y-104145649D01*
X113334507Y-104096149D01*
X113334507Y-104034963D01*
X113370471Y-103985463D01*
X113379155Y-103979823D01*
X113402112Y-103966570D01*
X114446870Y-102921812D01*
X114493014Y-102841888D01*
X114498446Y-102821614D01*
X114498447Y-102821613D01*
X114516900Y-102752743D01*
X114516900Y-99363557D01*
X114511246Y-99342456D01*
X114493014Y-99274412D01*
X114446870Y-99194488D01*
X112911712Y-97659330D01*
X112831788Y-97613186D01*
X112831785Y-97613185D01*
X112828414Y-97612282D01*
X112825042Y-97611378D01*
X112825040Y-97611377D01*
X112825040Y-97611378D01*
X112742644Y-97589300D01*
X95756344Y-97589300D01*
X95664056Y-97589300D01*
X95581663Y-97611377D01*
X95574912Y-97613186D01*
X95494988Y-97659330D01*
X93933482Y-99220834D01*
X93878965Y-99248611D01*
X93844164Y-99247928D01*
X93726383Y-99224500D01*
X93726380Y-99224500D01*
X93573620Y-99224500D01*
X93573617Y-99224500D01*
X93423795Y-99254302D01*
X93423793Y-99254302D01*
X93282665Y-99312759D01*
X93282664Y-99312759D01*
X93155648Y-99397630D01*
X93155644Y-99397633D01*
X93085004Y-99468274D01*
X93030487Y-99496051D01*
X92970055Y-99486480D01*
X92944996Y-99468274D01*
X92874355Y-99397633D01*
X92874352Y-99397630D01*
X92747337Y-99312761D01*
X92747336Y-99312760D01*
X92747334Y-99312759D01*
X92606205Y-99254302D01*
X92456382Y-99224500D01*
X92456380Y-99224500D01*
X92303620Y-99224500D01*
X92303617Y-99224500D01*
X92153795Y-99254302D01*
X92153793Y-99254302D01*
X92012665Y-99312759D01*
X92012664Y-99312759D01*
X91885648Y-99397630D01*
X91885644Y-99397633D01*
X91777633Y-99505644D01*
X91777630Y-99505648D01*
X91692759Y-99632664D01*
X91692759Y-99632665D01*
X91634302Y-99773793D01*
X91634302Y-99773795D01*
X91604500Y-99923617D01*
X91604500Y-100076382D01*
X91634302Y-100226204D01*
X91634302Y-100226206D01*
X91692759Y-100367334D01*
X91692759Y-100367335D01*
X91735049Y-100430626D01*
X91777630Y-100494352D01*
X91885648Y-100602370D01*
X92012663Y-100687239D01*
X92153795Y-100745698D01*
X92303620Y-100775500D01*
X92303621Y-100775500D01*
X92456379Y-100775500D01*
X92456380Y-100775500D01*
X92606205Y-100745698D01*
X92747337Y-100687239D01*
X92874352Y-100602370D01*
X92944996Y-100531726D01*
X92999512Y-100503948D01*
X93059944Y-100513519D01*
X93085004Y-100531726D01*
X93155639Y-100602362D01*
X93155643Y-100602365D01*
X93155648Y-100602370D01*
X93282663Y-100687239D01*
X93423795Y-100745698D01*
X93573620Y-100775500D01*
X93573621Y-100775500D01*
X93726379Y-100775500D01*
X93726380Y-100775500D01*
X93876205Y-100745698D01*
X94017337Y-100687239D01*
X94144352Y-100602370D01*
X94214996Y-100531726D01*
X94269512Y-100503948D01*
X94329944Y-100513519D01*
X94355004Y-100531726D01*
X94425639Y-100602362D01*
X94425643Y-100602365D01*
X94425648Y-100602370D01*
X94552663Y-100687239D01*
X94693795Y-100745698D01*
X94843620Y-100775500D01*
X94843621Y-100775500D01*
X94996379Y-100775500D01*
X94996380Y-100775500D01*
X95146205Y-100745698D01*
X95287337Y-100687239D01*
X95414352Y-100602370D01*
X95484996Y-100531726D01*
X95539512Y-100503948D01*
X95599944Y-100513519D01*
X95625004Y-100531726D01*
X95695639Y-100602362D01*
X95695643Y-100602365D01*
X95695648Y-100602370D01*
X95822663Y-100687239D01*
X95963795Y-100745698D01*
X96113620Y-100775500D01*
X96113621Y-100775500D01*
X96266379Y-100775500D01*
X96266380Y-100775500D01*
X96416205Y-100745698D01*
X96557337Y-100687239D01*
X96684352Y-100602370D01*
X96792370Y-100494352D01*
X96877239Y-100367337D01*
X96892376Y-100330793D01*
X96913835Y-100298677D01*
X97162750Y-100049761D01*
X97180444Y-100115796D01*
X97219940Y-100184205D01*
X97275795Y-100240060D01*
X97344204Y-100279556D01*
X97410237Y-100297249D01*
X97013565Y-100693921D01*
X97069219Y-100731107D01*
X97219355Y-100793295D01*
X97378742Y-100824999D01*
X97378746Y-100825000D01*
X97541254Y-100825000D01*
X97541257Y-100824999D01*
X97700643Y-100793295D01*
X97700645Y-100793295D01*
X97850781Y-100731107D01*
X97906433Y-100693921D01*
X97509762Y-100297249D01*
X97575796Y-100279556D01*
X97644205Y-100240060D01*
X97700060Y-100184205D01*
X97739556Y-100115796D01*
X97757249Y-100049762D01*
X98006163Y-100298677D01*
X98027622Y-100330793D01*
X98042756Y-100367329D01*
X98042759Y-100367334D01*
X98042760Y-100367335D01*
X98042761Y-100367337D01*
X98127630Y-100494352D01*
X98235648Y-100602370D01*
X98235652Y-100602373D01*
X98239399Y-100605447D01*
X98238685Y-100606316D01*
X98273376Y-100650306D01*
X98279500Y-100684586D01*
X98279500Y-101543331D01*
X98260593Y-101601522D01*
X98211093Y-101637486D01*
X98149907Y-101637486D01*
X98120681Y-101622215D01*
X98009729Y-101538077D01*
X97875468Y-101485132D01*
X97791104Y-101475000D01*
X97675001Y-101475000D01*
X97675000Y-101475001D01*
X97675000Y-102126000D01*
X97656093Y-102184191D01*
X97606593Y-102220155D01*
X97576000Y-102225000D01*
X97500001Y-102225000D01*
X97500000Y-102225001D01*
X97500000Y-102301000D01*
X97481093Y-102359191D01*
X97431593Y-102395155D01*
X97401000Y-102400000D01*
X96725001Y-102400000D01*
X96725000Y-102400001D01*
X96725000Y-102491104D01*
X96735132Y-102575468D01*
X96788077Y-102709729D01*
X96875276Y-102824717D01*
X96875282Y-102824723D01*
X96990271Y-102911922D01*
X97046621Y-102934144D01*
X97093819Y-102973081D01*
X97109116Y-103032323D01*
X97086670Y-103089243D01*
X97044903Y-103118999D01*
X97032924Y-103123467D01*
X97019774Y-103128372D01*
X97019773Y-103128372D01*
X97019772Y-103128373D01*
X96910315Y-103210311D01*
X96910311Y-103210315D01*
X96828373Y-103319771D01*
X96780587Y-103447887D01*
X96774500Y-103504518D01*
X96774500Y-104045478D01*
X96774501Y-104045484D01*
X96780587Y-104102111D01*
X96780587Y-104102112D01*
X96780588Y-104102114D01*
X96828372Y-104230226D01*
X96910313Y-104339687D01*
X97019774Y-104421628D01*
X97147886Y-104469412D01*
X97204515Y-104475500D01*
X97522388Y-104475499D01*
X97580578Y-104494406D01*
X97592391Y-104504495D01*
X97648944Y-104561048D01*
X97676722Y-104615563D01*
X97673803Y-104633993D01*
X97675000Y-104633993D01*
X97675000Y-105326000D01*
X97656093Y-105384191D01*
X97606593Y-105420155D01*
X97576000Y-105425000D01*
X97500001Y-105425000D01*
X97500000Y-105425001D01*
X97500000Y-105501000D01*
X97481093Y-105559191D01*
X97431593Y-105595155D01*
X97401000Y-105600000D01*
X96725001Y-105600000D01*
X96725000Y-105600001D01*
X96725000Y-105691104D01*
X96735132Y-105775468D01*
X96788077Y-105909729D01*
X96875276Y-106024717D01*
X96875282Y-106024723D01*
X96990271Y-106111922D01*
X97046621Y-106134144D01*
X97093819Y-106173081D01*
X97109116Y-106232323D01*
X97086670Y-106289243D01*
X97044903Y-106318999D01*
X97032924Y-106323467D01*
X97019774Y-106328372D01*
X97019773Y-106328372D01*
X97019772Y-106328373D01*
X96910315Y-106410311D01*
X96910311Y-106410315D01*
X96828373Y-106519771D01*
X96780587Y-106647887D01*
X96774500Y-106704518D01*
X96774500Y-107245478D01*
X96774501Y-107245484D01*
X96780587Y-107302111D01*
X96780587Y-107302112D01*
X96780588Y-107302114D01*
X96828372Y-107430226D01*
X96910313Y-107539687D01*
X97009828Y-107614183D01*
X97045082Y-107664190D01*
X97049500Y-107693436D01*
X97049500Y-108923700D01*
X97030593Y-108981891D01*
X96981093Y-109017855D01*
X96950500Y-109022700D01*
X95470791Y-109022700D01*
X95375352Y-109048273D01*
X95375351Y-109048272D01*
X95356216Y-109053400D01*
X95253486Y-109112710D01*
X90734504Y-113631692D01*
X90679987Y-113659469D01*
X90619555Y-113649898D01*
X90576290Y-113606633D01*
X90565500Y-113561688D01*
X90565500Y-113520727D01*
X90565499Y-113520725D01*
X90562646Y-113490305D01*
X90562646Y-113490301D01*
X90517793Y-113362118D01*
X90437150Y-113252850D01*
X90437146Y-113252847D01*
X90437144Y-113252845D01*
X90327883Y-113172207D01*
X90199703Y-113127355D01*
X90199694Y-113127353D01*
X90169274Y-113124500D01*
X90169266Y-113124500D01*
X89510734Y-113124500D01*
X89510725Y-113124500D01*
X89480305Y-113127353D01*
X89480296Y-113127355D01*
X89352116Y-113172207D01*
X89242855Y-113252845D01*
X89242845Y-113252855D01*
X89162207Y-113362116D01*
X89117355Y-113490296D01*
X89117353Y-113490305D01*
X89114500Y-113520725D01*
X89114500Y-113963810D01*
X89095593Y-114022001D01*
X89085504Y-114033813D01*
X88631632Y-114487685D01*
X88631630Y-114487687D01*
X88631630Y-114487688D01*
X88611202Y-114523072D01*
X88593841Y-114553142D01*
X88593840Y-114553143D01*
X88585236Y-114568045D01*
X88539765Y-114608986D01*
X88478915Y-114615380D01*
X88425928Y-114584787D01*
X88401042Y-114528891D01*
X88400500Y-114518544D01*
X88400500Y-105158895D01*
X96725000Y-105158895D01*
X96725000Y-105249999D01*
X96725001Y-105250000D01*
X97324999Y-105250000D01*
X97325000Y-105249999D01*
X97325000Y-104675001D01*
X97324999Y-104675000D01*
X97208895Y-104675000D01*
X97124531Y-104685132D01*
X96990270Y-104738077D01*
X96875282Y-104825276D01*
X96875276Y-104825282D01*
X96788077Y-104940270D01*
X96735132Y-105074531D01*
X96725000Y-105158895D01*
X88400500Y-105158895D01*
X88400500Y-101958895D01*
X96725000Y-101958895D01*
X96725000Y-102049999D01*
X96725001Y-102050000D01*
X97324999Y-102050000D01*
X97325000Y-102049999D01*
X97325000Y-101475001D01*
X97324999Y-101475000D01*
X97208895Y-101475000D01*
X97124531Y-101485132D01*
X96990270Y-101538077D01*
X96875282Y-101625276D01*
X96875276Y-101625282D01*
X96788077Y-101740270D01*
X96735132Y-101874531D01*
X96725000Y-101958895D01*
X88400500Y-101958895D01*
X88400500Y-98140508D01*
X88419407Y-98082317D01*
X88429496Y-98070504D01*
X89170504Y-97329496D01*
X89225021Y-97301719D01*
X89240508Y-97300500D01*
X116259492Y-97300500D01*
X116317683Y-97319407D01*
G37*
%TD.AperFunction*%
%TA.AperFunction,Conductor*%
G36*
X99339000Y-100596736D02*
G01*
X99364904Y-100620801D01*
X99371024Y-100628976D01*
X99489117Y-100717379D01*
X99627333Y-100768931D01*
X99688435Y-100775500D01*
X100097387Y-100775499D01*
X100155578Y-100794406D01*
X100167391Y-100804495D01*
X100568782Y-101205886D01*
X100746004Y-101383107D01*
X100773781Y-101437624D01*
X100775000Y-101453111D01*
X100775000Y-102126000D01*
X100756093Y-102184191D01*
X100706593Y-102220155D01*
X100676000Y-102225000D01*
X100600001Y-102225000D01*
X100600000Y-102225001D01*
X100600000Y-102301000D01*
X100581093Y-102359191D01*
X100531593Y-102395155D01*
X100501000Y-102400000D01*
X99825001Y-102400000D01*
X99825000Y-102400001D01*
X99825000Y-102491104D01*
X99835132Y-102575468D01*
X99888077Y-102709729D01*
X99975276Y-102824717D01*
X99975282Y-102824723D01*
X100090271Y-102911922D01*
X100146621Y-102934144D01*
X100193819Y-102973081D01*
X100209116Y-103032323D01*
X100186670Y-103089243D01*
X100144903Y-103118999D01*
X100132924Y-103123467D01*
X100119774Y-103128372D01*
X100119773Y-103128372D01*
X100119772Y-103128373D01*
X100010315Y-103210311D01*
X100010311Y-103210315D01*
X99928373Y-103319771D01*
X99880587Y-103447887D01*
X99874500Y-103504518D01*
X99874500Y-104045478D01*
X99874501Y-104045484D01*
X99880587Y-104102111D01*
X99880587Y-104102112D01*
X99880588Y-104102114D01*
X99928372Y-104230226D01*
X100010313Y-104339687D01*
X100119774Y-104421628D01*
X100247886Y-104469412D01*
X100304515Y-104475500D01*
X100622388Y-104475499D01*
X100680578Y-104494406D01*
X100692391Y-104504495D01*
X100748944Y-104561048D01*
X100776722Y-104615563D01*
X100773803Y-104633993D01*
X100775000Y-104633993D01*
X100775000Y-105326000D01*
X100756093Y-105384191D01*
X100706593Y-105420155D01*
X100676000Y-105425000D01*
X100600001Y-105425000D01*
X100600000Y-105425001D01*
X100600000Y-105501000D01*
X100581093Y-105559191D01*
X100531593Y-105595155D01*
X100501000Y-105600000D01*
X99825001Y-105600000D01*
X99825000Y-105600001D01*
X99825000Y-105691104D01*
X99835132Y-105775468D01*
X99888077Y-105909729D01*
X99975276Y-106024717D01*
X99975282Y-106024723D01*
X100090271Y-106111922D01*
X100146621Y-106134144D01*
X100193819Y-106173081D01*
X100209116Y-106232323D01*
X100186670Y-106289243D01*
X100144903Y-106318999D01*
X100132924Y-106323467D01*
X100119774Y-106328372D01*
X100119773Y-106328372D01*
X100119772Y-106328373D01*
X100010315Y-106410311D01*
X100010311Y-106410315D01*
X99928373Y-106519771D01*
X99880587Y-106647887D01*
X99874500Y-106704518D01*
X99874500Y-107245478D01*
X99874501Y-107245484D01*
X99880587Y-107302111D01*
X99880587Y-107302112D01*
X99880588Y-107302114D01*
X99928372Y-107430226D01*
X100010313Y-107539687D01*
X100119264Y-107621246D01*
X100154518Y-107671255D01*
X100153644Y-107732434D01*
X100116977Y-107781415D01*
X100059936Y-107799500D01*
X98049500Y-107799500D01*
X97991309Y-107780593D01*
X97955345Y-107731093D01*
X97950500Y-107700500D01*
X97950500Y-107693436D01*
X97969407Y-107635245D01*
X97990169Y-107614184D01*
X98089687Y-107539687D01*
X98171628Y-107430226D01*
X98219412Y-107302114D01*
X98225500Y-107245485D01*
X98225499Y-106927609D01*
X98244406Y-106869420D01*
X98254489Y-106857613D01*
X98709590Y-106402514D01*
X98768899Y-106299787D01*
X98788072Y-106228230D01*
X98799600Y-106185209D01*
X98799600Y-105158895D01*
X99825000Y-105158895D01*
X99825000Y-105249999D01*
X99825001Y-105250000D01*
X100424999Y-105250000D01*
X100425000Y-105249999D01*
X100425000Y-104675001D01*
X100424999Y-104675000D01*
X100308895Y-104675000D01*
X100224531Y-104685132D01*
X100090270Y-104738077D01*
X99975282Y-104825276D01*
X99975276Y-104825282D01*
X99888077Y-104940270D01*
X99835132Y-105074531D01*
X99825000Y-105158895D01*
X98799600Y-105158895D01*
X98799600Y-104564791D01*
X98768899Y-104450214D01*
X98768899Y-104450213D01*
X98709590Y-104347486D01*
X98254494Y-103892391D01*
X98226718Y-103837875D01*
X98225499Y-103822388D01*
X98225499Y-103727612D01*
X98244406Y-103669421D01*
X98254495Y-103657608D01*
X98655177Y-103256926D01*
X99090490Y-102821614D01*
X99149799Y-102718887D01*
X99165455Y-102660456D01*
X99180500Y-102604309D01*
X99180500Y-101958895D01*
X99825000Y-101958895D01*
X99825000Y-102049999D01*
X99825001Y-102050000D01*
X100424999Y-102050000D01*
X100425000Y-102049999D01*
X100425000Y-101475001D01*
X100424999Y-101475000D01*
X100308895Y-101475000D01*
X100224531Y-101485132D01*
X100090270Y-101538077D01*
X99975282Y-101625276D01*
X99975276Y-101625282D01*
X99888077Y-101740270D01*
X99835132Y-101874531D01*
X99825000Y-101958895D01*
X99180500Y-101958895D01*
X99180500Y-100684586D01*
X99199407Y-100626396D01*
X99220833Y-100605797D01*
X99220569Y-100605475D01*
X99222823Y-100603624D01*
X99223281Y-100603444D01*
X99224507Y-100602266D01*
X99228405Y-100599662D01*
X99229344Y-100601069D01*
X99279793Y-100581306D01*
X99339000Y-100596736D01*
G37*
%TD.AperFunction*%
%TA.AperFunction,Conductor*%
G36*
X99066480Y-98660907D02*
G01*
X99102444Y-98710407D01*
X99102444Y-98771593D01*
X99078292Y-98811004D01*
X98688806Y-99200489D01*
X98638118Y-99227583D01*
X98503793Y-99254302D01*
X98362665Y-99312759D01*
X98362664Y-99312759D01*
X98235648Y-99397630D01*
X98235644Y-99397633D01*
X98127633Y-99505644D01*
X98127630Y-99505648D01*
X98042761Y-99632662D01*
X98027624Y-99669205D01*
X98006165Y-99701320D01*
X97757248Y-99950236D01*
X97739556Y-99884204D01*
X97700060Y-99815795D01*
X97644205Y-99759940D01*
X97575796Y-99720444D01*
X97509760Y-99702750D01*
X97906433Y-99306077D01*
X97850781Y-99268892D01*
X97700645Y-99206704D01*
X97700638Y-99206702D01*
X97697409Y-99206060D01*
X97696094Y-99205324D01*
X97695986Y-99205291D01*
X97695993Y-99205267D01*
X97644026Y-99176162D01*
X97618412Y-99120596D01*
X97630351Y-99060586D01*
X97646723Y-99038959D01*
X98014687Y-98670996D01*
X98069203Y-98643219D01*
X98084690Y-98642000D01*
X99008289Y-98642000D01*
X99066480Y-98660907D01*
G37*
%TD.AperFunction*%
%TD*%
M02*
