%TF.GenerationSoftware,KiCad,Pcbnew,10.0.6-10.0.6~ubuntu26.04.1*%
%TF.CreationDate,2026-10-05T17:17:38-04:00*%
%TF.ProjectId,board_a,626f6172-645f-4612-9e6b-696361645f70,rev?*%
%TF.SameCoordinates,Original*%
%TF.FileFunction,Legend,Bot*%
%TF.FilePolarity,Positive*%
%FSLAX46Y46*%
G04 Gerber Fmt 4.6, Leading zero omitted, Abs format (unit mm)*
G04 Created by KiCad (PCBNEW 10.0.6-10.0.6~ubuntu26.04.1) date 2026-10-05 17:17:38*
%MOMM*%
%LPD*%
G01*
G04 APERTURE LIST*
G04 Aperture macros list*
%AMRoundRect*
0 Rectangle with rounded corners*
0 $1 Rounding radius*
0 $2 $3 $4 $5 $6 $7 $8 $9 X,Y pos of 4 corners*
0 Add a 4 corners polygon primitive as box body*
4,1,4,$2,$3,$4,$5,$6,$7,$8,$9,$2,$3,0*
0 Add four circle primitives for the rounded corners*
1,1,$1+$1,$2,$3*
1,1,$1+$1,$4,$5*
1,1,$1+$1,$6,$7*
1,1,$1+$1,$8,$9*
0 Add four rect primitives between the rounded corners*
20,1,$1+$1,$2,$3,$4,$5,0*
20,1,$1+$1,$4,$5,$6,$7,0*
20,1,$1+$1,$6,$7,$8,$9,0*
20,1,$1+$1,$8,$9,$2,$3,0*%
G04 Aperture macros list end*
%ADD10C,0.400000*%
%ADD11C,0.150000*%
%ADD12R,1.700000X1.700000*%
%ADD13C,1.700000*%
%ADD14RoundRect,0.262500X-0.262500X-0.262500X0.262500X-0.262500X0.262500X0.262500X-0.262500X0.262500X0*%
%ADD15C,1.050000*%
G04 APERTURE END LIST*
D10*
X110360000Y-98350000D02*
G75*
G02*
X109960000Y-98350000I-200000J0D01*
G01*
X109960000Y-98350000D02*
G75*
G02*
X110360000Y-98350000I200000J0D01*
G01*
D11*
X104585715Y-102131009D02*
X104442858Y-102178628D01*
X104442858Y-102178628D02*
X104395239Y-102226247D01*
X104395239Y-102226247D02*
X104347620Y-102321485D01*
X104347620Y-102321485D02*
X104347620Y-102464342D01*
X104347620Y-102464342D02*
X104395239Y-102559580D01*
X104395239Y-102559580D02*
X104442858Y-102607200D01*
X104442858Y-102607200D02*
X104538096Y-102654819D01*
X104538096Y-102654819D02*
X104919048Y-102654819D01*
X104919048Y-102654819D02*
X104919048Y-101654819D01*
X104919048Y-101654819D02*
X104585715Y-101654819D01*
X104585715Y-101654819D02*
X104490477Y-101702438D01*
X104490477Y-101702438D02*
X104442858Y-101750057D01*
X104442858Y-101750057D02*
X104395239Y-101845295D01*
X104395239Y-101845295D02*
X104395239Y-101940533D01*
X104395239Y-101940533D02*
X104442858Y-102035771D01*
X104442858Y-102035771D02*
X104490477Y-102083390D01*
X104490477Y-102083390D02*
X104585715Y-102131009D01*
X104585715Y-102131009D02*
X104919048Y-102131009D01*
X103347620Y-102654819D02*
X103680953Y-102178628D01*
X103919048Y-102654819D02*
X103919048Y-101654819D01*
X103919048Y-101654819D02*
X103538096Y-101654819D01*
X103538096Y-101654819D02*
X103442858Y-101702438D01*
X103442858Y-101702438D02*
X103395239Y-101750057D01*
X103395239Y-101750057D02*
X103347620Y-101845295D01*
X103347620Y-101845295D02*
X103347620Y-101988152D01*
X103347620Y-101988152D02*
X103395239Y-102083390D01*
X103395239Y-102083390D02*
X103442858Y-102131009D01*
X103442858Y-102131009D02*
X103538096Y-102178628D01*
X103538096Y-102178628D02*
X103919048Y-102178628D01*
X102919048Y-102131009D02*
X102585715Y-102131009D01*
X102442858Y-102654819D02*
X102919048Y-102654819D01*
X102919048Y-102654819D02*
X102919048Y-101654819D01*
X102919048Y-101654819D02*
X102442858Y-101654819D01*
X102061905Y-102369104D02*
X101585715Y-102369104D01*
X102157143Y-102654819D02*
X101823810Y-101654819D01*
X101823810Y-101654819D02*
X101490477Y-102654819D01*
X101157143Y-102654819D02*
X101157143Y-101654819D01*
X100585715Y-102654819D02*
X101014286Y-102083390D01*
X100585715Y-101654819D02*
X101157143Y-102226247D01*
X99966667Y-101654819D02*
X99776191Y-101654819D01*
X99776191Y-101654819D02*
X99680953Y-101702438D01*
X99680953Y-101702438D02*
X99585715Y-101797676D01*
X99585715Y-101797676D02*
X99538096Y-101988152D01*
X99538096Y-101988152D02*
X99538096Y-102321485D01*
X99538096Y-102321485D02*
X99585715Y-102511961D01*
X99585715Y-102511961D02*
X99680953Y-102607200D01*
X99680953Y-102607200D02*
X99776191Y-102654819D01*
X99776191Y-102654819D02*
X99966667Y-102654819D01*
X99966667Y-102654819D02*
X100061905Y-102607200D01*
X100061905Y-102607200D02*
X100157143Y-102511961D01*
X100157143Y-102511961D02*
X100204762Y-102321485D01*
X100204762Y-102321485D02*
X100204762Y-101988152D01*
X100204762Y-101988152D02*
X100157143Y-101797676D01*
X100157143Y-101797676D02*
X100061905Y-101702438D01*
X100061905Y-101702438D02*
X99966667Y-101654819D01*
X99109524Y-101654819D02*
X99109524Y-102464342D01*
X99109524Y-102464342D02*
X99061905Y-102559580D01*
X99061905Y-102559580D02*
X99014286Y-102607200D01*
X99014286Y-102607200D02*
X98919048Y-102654819D01*
X98919048Y-102654819D02*
X98728572Y-102654819D01*
X98728572Y-102654819D02*
X98633334Y-102607200D01*
X98633334Y-102607200D02*
X98585715Y-102559580D01*
X98585715Y-102559580D02*
X98538096Y-102464342D01*
X98538096Y-102464342D02*
X98538096Y-101654819D01*
X98204762Y-101654819D02*
X97633334Y-101654819D01*
X97919048Y-102654819D02*
X97919048Y-101654819D01*
X96585714Y-102369104D02*
X96109524Y-102369104D01*
X96680952Y-102654819D02*
X96347619Y-101654819D01*
X96347619Y-101654819D02*
X96014286Y-102654819D01*
X94157142Y-102654819D02*
X94157142Y-101988152D01*
X94157142Y-102178628D02*
X94109523Y-102083390D01*
X94109523Y-102083390D02*
X94061904Y-102035771D01*
X94061904Y-102035771D02*
X93966666Y-101988152D01*
X93966666Y-101988152D02*
X93871428Y-101988152D01*
X93157142Y-102607200D02*
X93252380Y-102654819D01*
X93252380Y-102654819D02*
X93442856Y-102654819D01*
X93442856Y-102654819D02*
X93538094Y-102607200D01*
X93538094Y-102607200D02*
X93585713Y-102511961D01*
X93585713Y-102511961D02*
X93585713Y-102131009D01*
X93585713Y-102131009D02*
X93538094Y-102035771D01*
X93538094Y-102035771D02*
X93442856Y-101988152D01*
X93442856Y-101988152D02*
X93252380Y-101988152D01*
X93252380Y-101988152D02*
X93157142Y-102035771D01*
X93157142Y-102035771D02*
X93109523Y-102131009D01*
X93109523Y-102131009D02*
X93109523Y-102226247D01*
X93109523Y-102226247D02*
X93585713Y-102321485D01*
X92776189Y-101988152D02*
X92538094Y-102654819D01*
X92538094Y-102654819D02*
X92299999Y-101988152D01*
X90633332Y-102654819D02*
X91204760Y-102654819D01*
X90919046Y-102654819D02*
X90919046Y-101654819D01*
X90919046Y-101654819D02*
X91014284Y-101797676D01*
X91014284Y-101797676D02*
X91109522Y-101892914D01*
X91109522Y-101892914D02*
X91204760Y-101940533D01*
X101919047Y-103254819D02*
X101300000Y-103254819D01*
X101300000Y-103254819D02*
X101633333Y-103635771D01*
X101633333Y-103635771D02*
X101490476Y-103635771D01*
X101490476Y-103635771D02*
X101395238Y-103683390D01*
X101395238Y-103683390D02*
X101347619Y-103731009D01*
X101347619Y-103731009D02*
X101300000Y-103826247D01*
X101300000Y-103826247D02*
X101300000Y-104064342D01*
X101300000Y-104064342D02*
X101347619Y-104159580D01*
X101347619Y-104159580D02*
X101395238Y-104207200D01*
X101395238Y-104207200D02*
X101490476Y-104254819D01*
X101490476Y-104254819D02*
X101776190Y-104254819D01*
X101776190Y-104254819D02*
X101871428Y-104207200D01*
X101871428Y-104207200D02*
X101919047Y-104159580D01*
X100871428Y-104159580D02*
X100823809Y-104207200D01*
X100823809Y-104207200D02*
X100871428Y-104254819D01*
X100871428Y-104254819D02*
X100919047Y-104207200D01*
X100919047Y-104207200D02*
X100871428Y-104159580D01*
X100871428Y-104159580D02*
X100871428Y-104254819D01*
X100490476Y-103254819D02*
X99871429Y-103254819D01*
X99871429Y-103254819D02*
X100204762Y-103635771D01*
X100204762Y-103635771D02*
X100061905Y-103635771D01*
X100061905Y-103635771D02*
X99966667Y-103683390D01*
X99966667Y-103683390D02*
X99919048Y-103731009D01*
X99919048Y-103731009D02*
X99871429Y-103826247D01*
X99871429Y-103826247D02*
X99871429Y-104064342D01*
X99871429Y-104064342D02*
X99919048Y-104159580D01*
X99919048Y-104159580D02*
X99966667Y-104207200D01*
X99966667Y-104207200D02*
X100061905Y-104254819D01*
X100061905Y-104254819D02*
X100347619Y-104254819D01*
X100347619Y-104254819D02*
X100442857Y-104207200D01*
X100442857Y-104207200D02*
X100490476Y-104159580D01*
X98823809Y-103254819D02*
X98490476Y-104254819D01*
X98490476Y-104254819D02*
X98157143Y-103254819D01*
X96871428Y-103254819D02*
X96680952Y-103254819D01*
X96680952Y-103254819D02*
X96585714Y-103302438D01*
X96585714Y-103302438D02*
X96490476Y-103397676D01*
X96490476Y-103397676D02*
X96442857Y-103588152D01*
X96442857Y-103588152D02*
X96442857Y-103921485D01*
X96442857Y-103921485D02*
X96490476Y-104111961D01*
X96490476Y-104111961D02*
X96585714Y-104207200D01*
X96585714Y-104207200D02*
X96680952Y-104254819D01*
X96680952Y-104254819D02*
X96871428Y-104254819D01*
X96871428Y-104254819D02*
X96966666Y-104207200D01*
X96966666Y-104207200D02*
X97061904Y-104111961D01*
X97061904Y-104111961D02*
X97109523Y-103921485D01*
X97109523Y-103921485D02*
X97109523Y-103588152D01*
X97109523Y-103588152D02*
X97061904Y-103397676D01*
X97061904Y-103397676D02*
X96966666Y-103302438D01*
X96966666Y-103302438D02*
X96871428Y-103254819D01*
X96014285Y-104254819D02*
X96014285Y-103254819D01*
X96014285Y-103254819D02*
X95442857Y-104254819D01*
X95442857Y-104254819D02*
X95442857Y-103254819D01*
X94490476Y-104254819D02*
X94966666Y-104254819D01*
X94966666Y-104254819D02*
X94966666Y-103254819D01*
X93966666Y-103778628D02*
X93966666Y-104254819D01*
X94299999Y-103254819D02*
X93966666Y-103778628D01*
X93966666Y-103778628D02*
X93633333Y-103254819D01*
X105085713Y-105807200D02*
X104942856Y-105854819D01*
X104942856Y-105854819D02*
X104704761Y-105854819D01*
X104704761Y-105854819D02*
X104609523Y-105807200D01*
X104609523Y-105807200D02*
X104561904Y-105759580D01*
X104561904Y-105759580D02*
X104514285Y-105664342D01*
X104514285Y-105664342D02*
X104514285Y-105569104D01*
X104514285Y-105569104D02*
X104561904Y-105473866D01*
X104561904Y-105473866D02*
X104609523Y-105426247D01*
X104609523Y-105426247D02*
X104704761Y-105378628D01*
X104704761Y-105378628D02*
X104895237Y-105331009D01*
X104895237Y-105331009D02*
X104990475Y-105283390D01*
X104990475Y-105283390D02*
X105038094Y-105235771D01*
X105038094Y-105235771D02*
X105085713Y-105140533D01*
X105085713Y-105140533D02*
X105085713Y-105045295D01*
X105085713Y-105045295D02*
X105038094Y-104950057D01*
X105038094Y-104950057D02*
X104990475Y-104902438D01*
X104990475Y-104902438D02*
X104895237Y-104854819D01*
X104895237Y-104854819D02*
X104657142Y-104854819D01*
X104657142Y-104854819D02*
X104514285Y-104902438D01*
X103514285Y-105759580D02*
X103561904Y-105807200D01*
X103561904Y-105807200D02*
X103704761Y-105854819D01*
X103704761Y-105854819D02*
X103799999Y-105854819D01*
X103799999Y-105854819D02*
X103942856Y-105807200D01*
X103942856Y-105807200D02*
X104038094Y-105711961D01*
X104038094Y-105711961D02*
X104085713Y-105616723D01*
X104085713Y-105616723D02*
X104133332Y-105426247D01*
X104133332Y-105426247D02*
X104133332Y-105283390D01*
X104133332Y-105283390D02*
X104085713Y-105092914D01*
X104085713Y-105092914D02*
X104038094Y-104997676D01*
X104038094Y-104997676D02*
X103942856Y-104902438D01*
X103942856Y-104902438D02*
X103799999Y-104854819D01*
X103799999Y-104854819D02*
X103704761Y-104854819D01*
X103704761Y-104854819D02*
X103561904Y-104902438D01*
X103561904Y-104902438D02*
X103514285Y-104950057D01*
X103085713Y-105854819D02*
X103085713Y-104854819D01*
X102514285Y-105854819D02*
X102942856Y-105283390D01*
X102514285Y-104854819D02*
X103085713Y-105426247D01*
X102085713Y-105331009D02*
X101323809Y-105331009D01*
X101323809Y-105616723D02*
X102085713Y-105616723D01*
X100895237Y-105807200D02*
X100752380Y-105854819D01*
X100752380Y-105854819D02*
X100514285Y-105854819D01*
X100514285Y-105854819D02*
X100419047Y-105807200D01*
X100419047Y-105807200D02*
X100371428Y-105759580D01*
X100371428Y-105759580D02*
X100323809Y-105664342D01*
X100323809Y-105664342D02*
X100323809Y-105569104D01*
X100323809Y-105569104D02*
X100371428Y-105473866D01*
X100371428Y-105473866D02*
X100419047Y-105426247D01*
X100419047Y-105426247D02*
X100514285Y-105378628D01*
X100514285Y-105378628D02*
X100704761Y-105331009D01*
X100704761Y-105331009D02*
X100799999Y-105283390D01*
X100799999Y-105283390D02*
X100847618Y-105235771D01*
X100847618Y-105235771D02*
X100895237Y-105140533D01*
X100895237Y-105140533D02*
X100895237Y-105045295D01*
X100895237Y-105045295D02*
X100847618Y-104950057D01*
X100847618Y-104950057D02*
X100799999Y-104902438D01*
X100799999Y-104902438D02*
X100704761Y-104854819D01*
X100704761Y-104854819D02*
X100466666Y-104854819D01*
X100466666Y-104854819D02*
X100323809Y-104902438D01*
X99323809Y-105759580D02*
X99371428Y-105807200D01*
X99371428Y-105807200D02*
X99514285Y-105854819D01*
X99514285Y-105854819D02*
X99609523Y-105854819D01*
X99609523Y-105854819D02*
X99752380Y-105807200D01*
X99752380Y-105807200D02*
X99847618Y-105711961D01*
X99847618Y-105711961D02*
X99895237Y-105616723D01*
X99895237Y-105616723D02*
X99942856Y-105426247D01*
X99942856Y-105426247D02*
X99942856Y-105283390D01*
X99942856Y-105283390D02*
X99895237Y-105092914D01*
X99895237Y-105092914D02*
X99847618Y-104997676D01*
X99847618Y-104997676D02*
X99752380Y-104902438D01*
X99752380Y-104902438D02*
X99609523Y-104854819D01*
X99609523Y-104854819D02*
X99514285Y-104854819D01*
X99514285Y-104854819D02*
X99371428Y-104902438D01*
X99371428Y-104902438D02*
X99323809Y-104950057D01*
X98419047Y-105854819D02*
X98895237Y-105854819D01*
X98895237Y-105854819D02*
X98895237Y-104854819D01*
X96609522Y-105807200D02*
X96466665Y-105854819D01*
X96466665Y-105854819D02*
X96228570Y-105854819D01*
X96228570Y-105854819D02*
X96133332Y-105807200D01*
X96133332Y-105807200D02*
X96085713Y-105759580D01*
X96085713Y-105759580D02*
X96038094Y-105664342D01*
X96038094Y-105664342D02*
X96038094Y-105569104D01*
X96038094Y-105569104D02*
X96085713Y-105473866D01*
X96085713Y-105473866D02*
X96133332Y-105426247D01*
X96133332Y-105426247D02*
X96228570Y-105378628D01*
X96228570Y-105378628D02*
X96419046Y-105331009D01*
X96419046Y-105331009D02*
X96514284Y-105283390D01*
X96514284Y-105283390D02*
X96561903Y-105235771D01*
X96561903Y-105235771D02*
X96609522Y-105140533D01*
X96609522Y-105140533D02*
X96609522Y-105045295D01*
X96609522Y-105045295D02*
X96561903Y-104950057D01*
X96561903Y-104950057D02*
X96514284Y-104902438D01*
X96514284Y-104902438D02*
X96419046Y-104854819D01*
X96419046Y-104854819D02*
X96180951Y-104854819D01*
X96180951Y-104854819D02*
X96038094Y-104902438D01*
X95609522Y-105854819D02*
X95609522Y-104854819D01*
X95609522Y-104854819D02*
X95371427Y-104854819D01*
X95371427Y-104854819D02*
X95228570Y-104902438D01*
X95228570Y-104902438D02*
X95133332Y-104997676D01*
X95133332Y-104997676D02*
X95085713Y-105092914D01*
X95085713Y-105092914D02*
X95038094Y-105283390D01*
X95038094Y-105283390D02*
X95038094Y-105426247D01*
X95038094Y-105426247D02*
X95085713Y-105616723D01*
X95085713Y-105616723D02*
X95133332Y-105711961D01*
X95133332Y-105711961D02*
X95228570Y-105807200D01*
X95228570Y-105807200D02*
X95371427Y-105854819D01*
X95371427Y-105854819D02*
X95609522Y-105854819D01*
X94609522Y-105854819D02*
X94609522Y-104854819D01*
X94133332Y-105331009D02*
X93371428Y-105331009D01*
X93371428Y-105616723D02*
X94133332Y-105616723D01*
X92942856Y-105807200D02*
X92799999Y-105854819D01*
X92799999Y-105854819D02*
X92561904Y-105854819D01*
X92561904Y-105854819D02*
X92466666Y-105807200D01*
X92466666Y-105807200D02*
X92419047Y-105759580D01*
X92419047Y-105759580D02*
X92371428Y-105664342D01*
X92371428Y-105664342D02*
X92371428Y-105569104D01*
X92371428Y-105569104D02*
X92419047Y-105473866D01*
X92419047Y-105473866D02*
X92466666Y-105426247D01*
X92466666Y-105426247D02*
X92561904Y-105378628D01*
X92561904Y-105378628D02*
X92752380Y-105331009D01*
X92752380Y-105331009D02*
X92847618Y-105283390D01*
X92847618Y-105283390D02*
X92895237Y-105235771D01*
X92895237Y-105235771D02*
X92942856Y-105140533D01*
X92942856Y-105140533D02*
X92942856Y-105045295D01*
X92942856Y-105045295D02*
X92895237Y-104950057D01*
X92895237Y-104950057D02*
X92847618Y-104902438D01*
X92847618Y-104902438D02*
X92752380Y-104854819D01*
X92752380Y-104854819D02*
X92514285Y-104854819D01*
X92514285Y-104854819D02*
X92371428Y-104902438D01*
X91942856Y-105854819D02*
X91942856Y-104854819D01*
X91942856Y-104854819D02*
X91704761Y-104854819D01*
X91704761Y-104854819D02*
X91561904Y-104902438D01*
X91561904Y-104902438D02*
X91466666Y-104997676D01*
X91466666Y-104997676D02*
X91419047Y-105092914D01*
X91419047Y-105092914D02*
X91371428Y-105283390D01*
X91371428Y-105283390D02*
X91371428Y-105426247D01*
X91371428Y-105426247D02*
X91419047Y-105616723D01*
X91419047Y-105616723D02*
X91466666Y-105711961D01*
X91466666Y-105711961D02*
X91561904Y-105807200D01*
X91561904Y-105807200D02*
X91704761Y-105854819D01*
X91704761Y-105854819D02*
X91942856Y-105854819D01*
X90990475Y-105569104D02*
X90514285Y-105569104D01*
X91085713Y-105854819D02*
X90752380Y-104854819D01*
X90752380Y-104854819D02*
X90419047Y-105854819D01*
X103228570Y-107454819D02*
X103228570Y-106454819D01*
X102752380Y-107454819D02*
X102752380Y-106454819D01*
X102752380Y-106454819D02*
X102514285Y-106454819D01*
X102514285Y-106454819D02*
X102371428Y-106502438D01*
X102371428Y-106502438D02*
X102276190Y-106597676D01*
X102276190Y-106597676D02*
X102228571Y-106692914D01*
X102228571Y-106692914D02*
X102180952Y-106883390D01*
X102180952Y-106883390D02*
X102180952Y-107026247D01*
X102180952Y-107026247D02*
X102228571Y-107216723D01*
X102228571Y-107216723D02*
X102276190Y-107311961D01*
X102276190Y-107311961D02*
X102371428Y-107407200D01*
X102371428Y-107407200D02*
X102514285Y-107454819D01*
X102514285Y-107454819D02*
X102752380Y-107454819D01*
X100990475Y-106931009D02*
X100228571Y-106931009D01*
X100228571Y-107216723D02*
X100990475Y-107216723D01*
X98990475Y-107454819D02*
X98990475Y-106454819D01*
X98990475Y-106454819D02*
X98609523Y-106454819D01*
X98609523Y-106454819D02*
X98514285Y-106502438D01*
X98514285Y-106502438D02*
X98466666Y-106550057D01*
X98466666Y-106550057D02*
X98419047Y-106645295D01*
X98419047Y-106645295D02*
X98419047Y-106788152D01*
X98419047Y-106788152D02*
X98466666Y-106883390D01*
X98466666Y-106883390D02*
X98514285Y-106931009D01*
X98514285Y-106931009D02*
X98609523Y-106978628D01*
X98609523Y-106978628D02*
X98990475Y-106978628D01*
X97419047Y-107454819D02*
X97752380Y-106978628D01*
X97990475Y-107454819D02*
X97990475Y-106454819D01*
X97990475Y-106454819D02*
X97609523Y-106454819D01*
X97609523Y-106454819D02*
X97514285Y-106502438D01*
X97514285Y-106502438D02*
X97466666Y-106550057D01*
X97466666Y-106550057D02*
X97419047Y-106645295D01*
X97419047Y-106645295D02*
X97419047Y-106788152D01*
X97419047Y-106788152D02*
X97466666Y-106883390D01*
X97466666Y-106883390D02*
X97514285Y-106931009D01*
X97514285Y-106931009D02*
X97609523Y-106978628D01*
X97609523Y-106978628D02*
X97990475Y-106978628D01*
X96799999Y-106454819D02*
X96609523Y-106454819D01*
X96609523Y-106454819D02*
X96514285Y-106502438D01*
X96514285Y-106502438D02*
X96419047Y-106597676D01*
X96419047Y-106597676D02*
X96371428Y-106788152D01*
X96371428Y-106788152D02*
X96371428Y-107121485D01*
X96371428Y-107121485D02*
X96419047Y-107311961D01*
X96419047Y-107311961D02*
X96514285Y-107407200D01*
X96514285Y-107407200D02*
X96609523Y-107454819D01*
X96609523Y-107454819D02*
X96799999Y-107454819D01*
X96799999Y-107454819D02*
X96895237Y-107407200D01*
X96895237Y-107407200D02*
X96990475Y-107311961D01*
X96990475Y-107311961D02*
X97038094Y-107121485D01*
X97038094Y-107121485D02*
X97038094Y-106788152D01*
X97038094Y-106788152D02*
X96990475Y-106597676D01*
X96990475Y-106597676D02*
X96895237Y-106502438D01*
X96895237Y-106502438D02*
X96799999Y-106454819D01*
X95942856Y-107454819D02*
X95942856Y-106454819D01*
X95942856Y-106454819D02*
X95609523Y-107169104D01*
X95609523Y-107169104D02*
X95276190Y-106454819D01*
X95276190Y-106454819D02*
X95276190Y-107454819D01*
X95038095Y-107550057D02*
X94276190Y-107550057D01*
X93466666Y-107454819D02*
X93799999Y-106978628D01*
X94038094Y-107454819D02*
X94038094Y-106454819D01*
X94038094Y-106454819D02*
X93657142Y-106454819D01*
X93657142Y-106454819D02*
X93561904Y-106502438D01*
X93561904Y-106502438D02*
X93514285Y-106550057D01*
X93514285Y-106550057D02*
X93466666Y-106645295D01*
X93466666Y-106645295D02*
X93466666Y-106788152D01*
X93466666Y-106788152D02*
X93514285Y-106883390D01*
X93514285Y-106883390D02*
X93561904Y-106931009D01*
X93561904Y-106931009D02*
X93657142Y-106978628D01*
X93657142Y-106978628D02*
X94038094Y-106978628D01*
X93133332Y-106454819D02*
X92895237Y-107454819D01*
X92895237Y-107454819D02*
X92704761Y-106740533D01*
X92704761Y-106740533D02*
X92514285Y-107454819D01*
X92514285Y-107454819D02*
X92276190Y-106454819D01*
X103657142Y-108054819D02*
X103561904Y-108054819D01*
X103561904Y-108054819D02*
X103466666Y-108102438D01*
X103466666Y-108102438D02*
X103419047Y-108150057D01*
X103419047Y-108150057D02*
X103371428Y-108245295D01*
X103371428Y-108245295D02*
X103323809Y-108435771D01*
X103323809Y-108435771D02*
X103323809Y-108673866D01*
X103323809Y-108673866D02*
X103371428Y-108864342D01*
X103371428Y-108864342D02*
X103419047Y-108959580D01*
X103419047Y-108959580D02*
X103466666Y-109007200D01*
X103466666Y-109007200D02*
X103561904Y-109054819D01*
X103561904Y-109054819D02*
X103657142Y-109054819D01*
X103657142Y-109054819D02*
X103752380Y-109007200D01*
X103752380Y-109007200D02*
X103799999Y-108959580D01*
X103799999Y-108959580D02*
X103847618Y-108864342D01*
X103847618Y-108864342D02*
X103895237Y-108673866D01*
X103895237Y-108673866D02*
X103895237Y-108435771D01*
X103895237Y-108435771D02*
X103847618Y-108245295D01*
X103847618Y-108245295D02*
X103799999Y-108150057D01*
X103799999Y-108150057D02*
X103752380Y-108102438D01*
X103752380Y-108102438D02*
X103657142Y-108054819D01*
X102895237Y-108673866D02*
X102133333Y-108673866D01*
X101752380Y-108054819D02*
X101085714Y-108054819D01*
X101085714Y-108054819D02*
X101514285Y-109054819D01*
X99942856Y-108531009D02*
X99180952Y-108531009D01*
X99180952Y-108816723D02*
X99942856Y-108816723D01*
X97419047Y-108102438D02*
X97514285Y-108054819D01*
X97514285Y-108054819D02*
X97657142Y-108054819D01*
X97657142Y-108054819D02*
X97799999Y-108102438D01*
X97799999Y-108102438D02*
X97895237Y-108197676D01*
X97895237Y-108197676D02*
X97942856Y-108292914D01*
X97942856Y-108292914D02*
X97990475Y-108483390D01*
X97990475Y-108483390D02*
X97990475Y-108626247D01*
X97990475Y-108626247D02*
X97942856Y-108816723D01*
X97942856Y-108816723D02*
X97895237Y-108911961D01*
X97895237Y-108911961D02*
X97799999Y-109007200D01*
X97799999Y-109007200D02*
X97657142Y-109054819D01*
X97657142Y-109054819D02*
X97561904Y-109054819D01*
X97561904Y-109054819D02*
X97419047Y-109007200D01*
X97419047Y-109007200D02*
X97371428Y-108959580D01*
X97371428Y-108959580D02*
X97371428Y-108626247D01*
X97371428Y-108626247D02*
X97561904Y-108626247D01*
X96942856Y-109054819D02*
X96942856Y-108054819D01*
X96942856Y-108054819D02*
X96561904Y-108054819D01*
X96561904Y-108054819D02*
X96466666Y-108102438D01*
X96466666Y-108102438D02*
X96419047Y-108150057D01*
X96419047Y-108150057D02*
X96371428Y-108245295D01*
X96371428Y-108245295D02*
X96371428Y-108388152D01*
X96371428Y-108388152D02*
X96419047Y-108483390D01*
X96419047Y-108483390D02*
X96466666Y-108531009D01*
X96466666Y-108531009D02*
X96561904Y-108578628D01*
X96561904Y-108578628D02*
X96942856Y-108578628D01*
X95942856Y-109054819D02*
X95942856Y-108054819D01*
X95276190Y-108054819D02*
X95085714Y-108054819D01*
X95085714Y-108054819D02*
X94990476Y-108102438D01*
X94990476Y-108102438D02*
X94895238Y-108197676D01*
X94895238Y-108197676D02*
X94847619Y-108388152D01*
X94847619Y-108388152D02*
X94847619Y-108721485D01*
X94847619Y-108721485D02*
X94895238Y-108911961D01*
X94895238Y-108911961D02*
X94990476Y-109007200D01*
X94990476Y-109007200D02*
X95085714Y-109054819D01*
X95085714Y-109054819D02*
X95276190Y-109054819D01*
X95276190Y-109054819D02*
X95371428Y-109007200D01*
X95371428Y-109007200D02*
X95466666Y-108911961D01*
X95466666Y-108911961D02*
X95514285Y-108721485D01*
X95514285Y-108721485D02*
X95514285Y-108388152D01*
X95514285Y-108388152D02*
X95466666Y-108197676D01*
X95466666Y-108197676D02*
X95371428Y-108102438D01*
X95371428Y-108102438D02*
X95276190Y-108054819D01*
X94228571Y-108054819D02*
X94133333Y-108054819D01*
X94133333Y-108054819D02*
X94038095Y-108102438D01*
X94038095Y-108102438D02*
X93990476Y-108150057D01*
X93990476Y-108150057D02*
X93942857Y-108245295D01*
X93942857Y-108245295D02*
X93895238Y-108435771D01*
X93895238Y-108435771D02*
X93895238Y-108673866D01*
X93895238Y-108673866D02*
X93942857Y-108864342D01*
X93942857Y-108864342D02*
X93990476Y-108959580D01*
X93990476Y-108959580D02*
X94038095Y-109007200D01*
X94038095Y-109007200D02*
X94133333Y-109054819D01*
X94133333Y-109054819D02*
X94228571Y-109054819D01*
X94228571Y-109054819D02*
X94323809Y-109007200D01*
X94323809Y-109007200D02*
X94371428Y-108959580D01*
X94371428Y-108959580D02*
X94419047Y-108864342D01*
X94419047Y-108864342D02*
X94466666Y-108673866D01*
X94466666Y-108673866D02*
X94466666Y-108435771D01*
X94466666Y-108435771D02*
X94419047Y-108245295D01*
X94419047Y-108245295D02*
X94371428Y-108150057D01*
X94371428Y-108150057D02*
X94323809Y-108102438D01*
X94323809Y-108102438D02*
X94228571Y-108054819D01*
X93466666Y-108673866D02*
X92704762Y-108673866D01*
X92323809Y-108054819D02*
X91657143Y-108054819D01*
X91657143Y-108054819D02*
X92085714Y-109054819D01*
X103609524Y-110559580D02*
X103657143Y-110607200D01*
X103657143Y-110607200D02*
X103800000Y-110654819D01*
X103800000Y-110654819D02*
X103895238Y-110654819D01*
X103895238Y-110654819D02*
X104038095Y-110607200D01*
X104038095Y-110607200D02*
X104133333Y-110511961D01*
X104133333Y-110511961D02*
X104180952Y-110416723D01*
X104180952Y-110416723D02*
X104228571Y-110226247D01*
X104228571Y-110226247D02*
X104228571Y-110083390D01*
X104228571Y-110083390D02*
X104180952Y-109892914D01*
X104180952Y-109892914D02*
X104133333Y-109797676D01*
X104133333Y-109797676D02*
X104038095Y-109702438D01*
X104038095Y-109702438D02*
X103895238Y-109654819D01*
X103895238Y-109654819D02*
X103800000Y-109654819D01*
X103800000Y-109654819D02*
X103657143Y-109702438D01*
X103657143Y-109702438D02*
X103609524Y-109750057D01*
X103180952Y-109654819D02*
X103180952Y-110464342D01*
X103180952Y-110464342D02*
X103133333Y-110559580D01*
X103133333Y-110559580D02*
X103085714Y-110607200D01*
X103085714Y-110607200D02*
X102990476Y-110654819D01*
X102990476Y-110654819D02*
X102800000Y-110654819D01*
X102800000Y-110654819D02*
X102704762Y-110607200D01*
X102704762Y-110607200D02*
X102657143Y-110559580D01*
X102657143Y-110559580D02*
X102609524Y-110464342D01*
X102609524Y-110464342D02*
X102609524Y-109654819D01*
X102276190Y-109654819D02*
X101704762Y-109654819D01*
X101990476Y-110654819D02*
X101990476Y-109654819D01*
X100657142Y-110607200D02*
X100514285Y-110654819D01*
X100514285Y-110654819D02*
X100276190Y-110654819D01*
X100276190Y-110654819D02*
X100180952Y-110607200D01*
X100180952Y-110607200D02*
X100133333Y-110559580D01*
X100133333Y-110559580D02*
X100085714Y-110464342D01*
X100085714Y-110464342D02*
X100085714Y-110369104D01*
X100085714Y-110369104D02*
X100133333Y-110273866D01*
X100133333Y-110273866D02*
X100180952Y-110226247D01*
X100180952Y-110226247D02*
X100276190Y-110178628D01*
X100276190Y-110178628D02*
X100466666Y-110131009D01*
X100466666Y-110131009D02*
X100561904Y-110083390D01*
X100561904Y-110083390D02*
X100609523Y-110035771D01*
X100609523Y-110035771D02*
X100657142Y-109940533D01*
X100657142Y-109940533D02*
X100657142Y-109845295D01*
X100657142Y-109845295D02*
X100609523Y-109750057D01*
X100609523Y-109750057D02*
X100561904Y-109702438D01*
X100561904Y-109702438D02*
X100466666Y-109654819D01*
X100466666Y-109654819D02*
X100228571Y-109654819D01*
X100228571Y-109654819D02*
X100085714Y-109702438D01*
X99657142Y-110654819D02*
X99657142Y-109654819D01*
X99657142Y-109654819D02*
X99419047Y-109654819D01*
X99419047Y-109654819D02*
X99276190Y-109702438D01*
X99276190Y-109702438D02*
X99180952Y-109797676D01*
X99180952Y-109797676D02*
X99133333Y-109892914D01*
X99133333Y-109892914D02*
X99085714Y-110083390D01*
X99085714Y-110083390D02*
X99085714Y-110226247D01*
X99085714Y-110226247D02*
X99133333Y-110416723D01*
X99133333Y-110416723D02*
X99180952Y-110511961D01*
X99180952Y-110511961D02*
X99276190Y-110607200D01*
X99276190Y-110607200D02*
X99419047Y-110654819D01*
X99419047Y-110654819D02*
X99657142Y-110654819D01*
X98704761Y-110369104D02*
X98228571Y-110369104D01*
X98799999Y-110654819D02*
X98466666Y-109654819D01*
X98466666Y-109654819D02*
X98133333Y-110654819D01*
X97085714Y-109607200D02*
X97942856Y-110892914D01*
X96799999Y-110607200D02*
X96657142Y-110654819D01*
X96657142Y-110654819D02*
X96419047Y-110654819D01*
X96419047Y-110654819D02*
X96323809Y-110607200D01*
X96323809Y-110607200D02*
X96276190Y-110559580D01*
X96276190Y-110559580D02*
X96228571Y-110464342D01*
X96228571Y-110464342D02*
X96228571Y-110369104D01*
X96228571Y-110369104D02*
X96276190Y-110273866D01*
X96276190Y-110273866D02*
X96323809Y-110226247D01*
X96323809Y-110226247D02*
X96419047Y-110178628D01*
X96419047Y-110178628D02*
X96609523Y-110131009D01*
X96609523Y-110131009D02*
X96704761Y-110083390D01*
X96704761Y-110083390D02*
X96752380Y-110035771D01*
X96752380Y-110035771D02*
X96799999Y-109940533D01*
X96799999Y-109940533D02*
X96799999Y-109845295D01*
X96799999Y-109845295D02*
X96752380Y-109750057D01*
X96752380Y-109750057D02*
X96704761Y-109702438D01*
X96704761Y-109702438D02*
X96609523Y-109654819D01*
X96609523Y-109654819D02*
X96371428Y-109654819D01*
X96371428Y-109654819D02*
X96228571Y-109702438D01*
X95228571Y-110559580D02*
X95276190Y-110607200D01*
X95276190Y-110607200D02*
X95419047Y-110654819D01*
X95419047Y-110654819D02*
X95514285Y-110654819D01*
X95514285Y-110654819D02*
X95657142Y-110607200D01*
X95657142Y-110607200D02*
X95752380Y-110511961D01*
X95752380Y-110511961D02*
X95799999Y-110416723D01*
X95799999Y-110416723D02*
X95847618Y-110226247D01*
X95847618Y-110226247D02*
X95847618Y-110083390D01*
X95847618Y-110083390D02*
X95799999Y-109892914D01*
X95799999Y-109892914D02*
X95752380Y-109797676D01*
X95752380Y-109797676D02*
X95657142Y-109702438D01*
X95657142Y-109702438D02*
X95514285Y-109654819D01*
X95514285Y-109654819D02*
X95419047Y-109654819D01*
X95419047Y-109654819D02*
X95276190Y-109702438D01*
X95276190Y-109702438D02*
X95228571Y-109750057D01*
X94323809Y-110654819D02*
X94799999Y-110654819D01*
X94799999Y-110654819D02*
X94799999Y-109654819D01*
X93990475Y-110559580D02*
X93942856Y-110607200D01*
X93942856Y-110607200D02*
X93990475Y-110654819D01*
X93990475Y-110654819D02*
X94038094Y-110607200D01*
X94038094Y-110607200D02*
X93990475Y-110559580D01*
X93990475Y-110559580D02*
X93990475Y-110654819D01*
X93990475Y-110035771D02*
X93942856Y-110083390D01*
X93942856Y-110083390D02*
X93990475Y-110131009D01*
X93990475Y-110131009D02*
X94038094Y-110083390D01*
X94038094Y-110083390D02*
X93990475Y-110035771D01*
X93990475Y-110035771D02*
X93990475Y-110131009D01*
X92752380Y-109988152D02*
X92752380Y-110654819D01*
X92752380Y-110083390D02*
X92704761Y-110035771D01*
X92704761Y-110035771D02*
X92609523Y-109988152D01*
X92609523Y-109988152D02*
X92466666Y-109988152D01*
X92466666Y-109988152D02*
X92371428Y-110035771D01*
X92371428Y-110035771D02*
X92323809Y-110131009D01*
X92323809Y-110131009D02*
X92323809Y-110654819D01*
X91704761Y-110654819D02*
X91799999Y-110607200D01*
X91799999Y-110607200D02*
X91847618Y-110559580D01*
X91847618Y-110559580D02*
X91895237Y-110464342D01*
X91895237Y-110464342D02*
X91895237Y-110178628D01*
X91895237Y-110178628D02*
X91847618Y-110083390D01*
X91847618Y-110083390D02*
X91799999Y-110035771D01*
X91799999Y-110035771D02*
X91704761Y-109988152D01*
X91704761Y-109988152D02*
X91561904Y-109988152D01*
X91561904Y-109988152D02*
X91466666Y-110035771D01*
X91466666Y-110035771D02*
X91419047Y-110083390D01*
X91419047Y-110083390D02*
X91371428Y-110178628D01*
X91371428Y-110178628D02*
X91371428Y-110464342D01*
X91371428Y-110464342D02*
X91419047Y-110559580D01*
X91419047Y-110559580D02*
X91466666Y-110607200D01*
X91466666Y-110607200D02*
X91561904Y-110654819D01*
X91561904Y-110654819D02*
X91704761Y-110654819D01*
X102466667Y-111588152D02*
X102466667Y-112254819D01*
X102704762Y-111207200D02*
X102942857Y-111921485D01*
X102942857Y-111921485D02*
X102323810Y-111921485D01*
X101942857Y-112159580D02*
X101895238Y-112207200D01*
X101895238Y-112207200D02*
X101942857Y-112254819D01*
X101942857Y-112254819D02*
X101990476Y-112207200D01*
X101990476Y-112207200D02*
X101942857Y-112159580D01*
X101942857Y-112159580D02*
X101942857Y-112254819D01*
X101561905Y-111254819D02*
X100895239Y-111254819D01*
X100895239Y-111254819D02*
X101323810Y-112254819D01*
X100514286Y-112254819D02*
X100514286Y-111254819D01*
X100419048Y-111873866D02*
X100133334Y-112254819D01*
X100133334Y-111588152D02*
X100514286Y-111969104D01*
X98942857Y-111588152D02*
X98942857Y-112588152D01*
X98942857Y-111635771D02*
X98847619Y-111588152D01*
X98847619Y-111588152D02*
X98657143Y-111588152D01*
X98657143Y-111588152D02*
X98561905Y-111635771D01*
X98561905Y-111635771D02*
X98514286Y-111683390D01*
X98514286Y-111683390D02*
X98466667Y-111778628D01*
X98466667Y-111778628D02*
X98466667Y-112064342D01*
X98466667Y-112064342D02*
X98514286Y-112159580D01*
X98514286Y-112159580D02*
X98561905Y-112207200D01*
X98561905Y-112207200D02*
X98657143Y-112254819D01*
X98657143Y-112254819D02*
X98847619Y-112254819D01*
X98847619Y-112254819D02*
X98942857Y-112207200D01*
X97609524Y-111588152D02*
X97609524Y-112254819D01*
X98038095Y-111588152D02*
X98038095Y-112111961D01*
X98038095Y-112111961D02*
X97990476Y-112207200D01*
X97990476Y-112207200D02*
X97895238Y-112254819D01*
X97895238Y-112254819D02*
X97752381Y-112254819D01*
X97752381Y-112254819D02*
X97657143Y-112207200D01*
X97657143Y-112207200D02*
X97609524Y-112159580D01*
X96990476Y-112254819D02*
X97085714Y-112207200D01*
X97085714Y-112207200D02*
X97133333Y-112111961D01*
X97133333Y-112111961D02*
X97133333Y-111254819D01*
X96466666Y-112254819D02*
X96561904Y-112207200D01*
X96561904Y-112207200D02*
X96609523Y-112111961D01*
X96609523Y-112111961D02*
X96609523Y-111254819D01*
X96085713Y-111873866D02*
X95323809Y-111873866D01*
X94419047Y-111588152D02*
X94419047Y-112254819D01*
X94847618Y-111588152D02*
X94847618Y-112111961D01*
X94847618Y-112111961D02*
X94799999Y-112207200D01*
X94799999Y-112207200D02*
X94704761Y-112254819D01*
X94704761Y-112254819D02*
X94561904Y-112254819D01*
X94561904Y-112254819D02*
X94466666Y-112207200D01*
X94466666Y-112207200D02*
X94419047Y-112159580D01*
X93942856Y-111588152D02*
X93942856Y-112588152D01*
X93942856Y-111635771D02*
X93847618Y-111588152D01*
X93847618Y-111588152D02*
X93657142Y-111588152D01*
X93657142Y-111588152D02*
X93561904Y-111635771D01*
X93561904Y-111635771D02*
X93514285Y-111683390D01*
X93514285Y-111683390D02*
X93466666Y-111778628D01*
X93466666Y-111778628D02*
X93466666Y-112064342D01*
X93466666Y-112064342D02*
X93514285Y-112159580D01*
X93514285Y-112159580D02*
X93561904Y-112207200D01*
X93561904Y-112207200D02*
X93657142Y-112254819D01*
X93657142Y-112254819D02*
X93847618Y-112254819D01*
X93847618Y-112254819D02*
X93942856Y-112207200D01*
X93085713Y-112207200D02*
X92990475Y-112254819D01*
X92990475Y-112254819D02*
X92799999Y-112254819D01*
X92799999Y-112254819D02*
X92704761Y-112207200D01*
X92704761Y-112207200D02*
X92657142Y-112111961D01*
X92657142Y-112111961D02*
X92657142Y-112064342D01*
X92657142Y-112064342D02*
X92704761Y-111969104D01*
X92704761Y-111969104D02*
X92799999Y-111921485D01*
X92799999Y-111921485D02*
X92942856Y-111921485D01*
X92942856Y-111921485D02*
X93038094Y-111873866D01*
X93038094Y-111873866D02*
X93085713Y-111778628D01*
X93085713Y-111778628D02*
X93085713Y-111731009D01*
X93085713Y-111731009D02*
X93038094Y-111635771D01*
X93038094Y-111635771D02*
X92942856Y-111588152D01*
X92942856Y-111588152D02*
X92799999Y-111588152D01*
X92799999Y-111588152D02*
X92704761Y-111635771D01*
X103466666Y-113759580D02*
X103514285Y-113807200D01*
X103514285Y-113807200D02*
X103657142Y-113854819D01*
X103657142Y-113854819D02*
X103752380Y-113854819D01*
X103752380Y-113854819D02*
X103895237Y-113807200D01*
X103895237Y-113807200D02*
X103990475Y-113711961D01*
X103990475Y-113711961D02*
X104038094Y-113616723D01*
X104038094Y-113616723D02*
X104085713Y-113426247D01*
X104085713Y-113426247D02*
X104085713Y-113283390D01*
X104085713Y-113283390D02*
X104038094Y-113092914D01*
X104038094Y-113092914D02*
X103990475Y-112997676D01*
X103990475Y-112997676D02*
X103895237Y-112902438D01*
X103895237Y-112902438D02*
X103752380Y-112854819D01*
X103752380Y-112854819D02*
X103657142Y-112854819D01*
X103657142Y-112854819D02*
X103514285Y-112902438D01*
X103514285Y-112902438D02*
X103466666Y-112950057D01*
X103038094Y-112854819D02*
X103038094Y-113664342D01*
X103038094Y-113664342D02*
X102990475Y-113759580D01*
X102990475Y-113759580D02*
X102942856Y-113807200D01*
X102942856Y-113807200D02*
X102847618Y-113854819D01*
X102847618Y-113854819D02*
X102657142Y-113854819D01*
X102657142Y-113854819D02*
X102561904Y-113807200D01*
X102561904Y-113807200D02*
X102514285Y-113759580D01*
X102514285Y-113759580D02*
X102466666Y-113664342D01*
X102466666Y-113664342D02*
X102466666Y-112854819D01*
X102133332Y-112854819D02*
X101561904Y-112854819D01*
X101847618Y-113854819D02*
X101847618Y-112854819D01*
X100609522Y-112854819D02*
X100038094Y-112854819D01*
X100323808Y-113854819D02*
X100323808Y-112854819D01*
X99704760Y-113854819D02*
X99704760Y-112854819D01*
X99228570Y-113331009D02*
X98895237Y-113331009D01*
X98752380Y-113854819D02*
X99228570Y-113854819D01*
X99228570Y-113854819D02*
X99228570Y-112854819D01*
X99228570Y-112854819D02*
X98752380Y-112854819D01*
X98323808Y-113759580D02*
X98276189Y-113807200D01*
X98276189Y-113807200D02*
X98323808Y-113854819D01*
X98323808Y-113854819D02*
X98371427Y-113807200D01*
X98371427Y-113807200D02*
X98323808Y-113759580D01*
X98323808Y-113759580D02*
X98323808Y-113854819D01*
X98323808Y-113235771D02*
X98276189Y-113283390D01*
X98276189Y-113283390D02*
X98323808Y-113331009D01*
X98323808Y-113331009D02*
X98371427Y-113283390D01*
X98371427Y-113283390D02*
X98323808Y-113235771D01*
X98323808Y-113235771D02*
X98323808Y-113331009D01*
X96942856Y-113854819D02*
X97038094Y-113807200D01*
X97038094Y-113807200D02*
X97085713Y-113759580D01*
X97085713Y-113759580D02*
X97133332Y-113664342D01*
X97133332Y-113664342D02*
X97133332Y-113378628D01*
X97133332Y-113378628D02*
X97085713Y-113283390D01*
X97085713Y-113283390D02*
X97038094Y-113235771D01*
X97038094Y-113235771D02*
X96942856Y-113188152D01*
X96942856Y-113188152D02*
X96799999Y-113188152D01*
X96799999Y-113188152D02*
X96704761Y-113235771D01*
X96704761Y-113235771D02*
X96657142Y-113283390D01*
X96657142Y-113283390D02*
X96609523Y-113378628D01*
X96609523Y-113378628D02*
X96609523Y-113664342D01*
X96609523Y-113664342D02*
X96657142Y-113759580D01*
X96657142Y-113759580D02*
X96704761Y-113807200D01*
X96704761Y-113807200D02*
X96799999Y-113854819D01*
X96799999Y-113854819D02*
X96942856Y-113854819D01*
X96276189Y-113188152D02*
X96085713Y-113854819D01*
X96085713Y-113854819D02*
X95895237Y-113378628D01*
X95895237Y-113378628D02*
X95704761Y-113854819D01*
X95704761Y-113854819D02*
X95514285Y-113188152D01*
X95133332Y-113188152D02*
X95133332Y-113854819D01*
X95133332Y-113283390D02*
X95085713Y-113235771D01*
X95085713Y-113235771D02*
X94990475Y-113188152D01*
X94990475Y-113188152D02*
X94847618Y-113188152D01*
X94847618Y-113188152D02*
X94752380Y-113235771D01*
X94752380Y-113235771D02*
X94704761Y-113331009D01*
X94704761Y-113331009D02*
X94704761Y-113854819D01*
X93609522Y-112854819D02*
X93276189Y-113854819D01*
X93276189Y-113854819D02*
X92942856Y-112854819D01*
X92609522Y-113854819D02*
X92609522Y-112854819D01*
X91942856Y-112854819D02*
X91752380Y-112854819D01*
X91752380Y-112854819D02*
X91657142Y-112902438D01*
X91657142Y-112902438D02*
X91561904Y-112997676D01*
X91561904Y-112997676D02*
X91514285Y-113188152D01*
X91514285Y-113188152D02*
X91514285Y-113521485D01*
X91514285Y-113521485D02*
X91561904Y-113711961D01*
X91561904Y-113711961D02*
X91657142Y-113807200D01*
X91657142Y-113807200D02*
X91752380Y-113854819D01*
X91752380Y-113854819D02*
X91942856Y-113854819D01*
X91942856Y-113854819D02*
X92038094Y-113807200D01*
X92038094Y-113807200D02*
X92133332Y-113711961D01*
X92133332Y-113711961D02*
X92180951Y-113521485D01*
X92180951Y-113521485D02*
X92180951Y-113188152D01*
X92180951Y-113188152D02*
X92133332Y-112997676D01*
X92133332Y-112997676D02*
X92038094Y-112902438D01*
X92038094Y-112902438D02*
X91942856Y-112854819D01*
X103990476Y-115359580D02*
X104038095Y-115407200D01*
X104038095Y-115407200D02*
X104180952Y-115454819D01*
X104180952Y-115454819D02*
X104276190Y-115454819D01*
X104276190Y-115454819D02*
X104419047Y-115407200D01*
X104419047Y-115407200D02*
X104514285Y-115311961D01*
X104514285Y-115311961D02*
X104561904Y-115216723D01*
X104561904Y-115216723D02*
X104609523Y-115026247D01*
X104609523Y-115026247D02*
X104609523Y-114883390D01*
X104609523Y-114883390D02*
X104561904Y-114692914D01*
X104561904Y-114692914D02*
X104514285Y-114597676D01*
X104514285Y-114597676D02*
X104419047Y-114502438D01*
X104419047Y-114502438D02*
X104276190Y-114454819D01*
X104276190Y-114454819D02*
X104180952Y-114454819D01*
X104180952Y-114454819D02*
X104038095Y-114502438D01*
X104038095Y-114502438D02*
X103990476Y-114550057D01*
X103561904Y-114454819D02*
X103561904Y-115264342D01*
X103561904Y-115264342D02*
X103514285Y-115359580D01*
X103514285Y-115359580D02*
X103466666Y-115407200D01*
X103466666Y-115407200D02*
X103371428Y-115454819D01*
X103371428Y-115454819D02*
X103180952Y-115454819D01*
X103180952Y-115454819D02*
X103085714Y-115407200D01*
X103085714Y-115407200D02*
X103038095Y-115359580D01*
X103038095Y-115359580D02*
X102990476Y-115264342D01*
X102990476Y-115264342D02*
X102990476Y-114454819D01*
X102657142Y-114454819D02*
X102085714Y-114454819D01*
X102371428Y-115454819D02*
X102371428Y-114454819D01*
X100990475Y-115454819D02*
X100990475Y-114454819D01*
X100514285Y-115454819D02*
X100514285Y-114454819D01*
X100514285Y-114454819D02*
X100276190Y-114454819D01*
X100276190Y-114454819D02*
X100133333Y-114502438D01*
X100133333Y-114502438D02*
X100038095Y-114597676D01*
X100038095Y-114597676D02*
X99990476Y-114692914D01*
X99990476Y-114692914D02*
X99942857Y-114883390D01*
X99942857Y-114883390D02*
X99942857Y-115026247D01*
X99942857Y-115026247D02*
X99990476Y-115216723D01*
X99990476Y-115216723D02*
X100038095Y-115311961D01*
X100038095Y-115311961D02*
X100133333Y-115407200D01*
X100133333Y-115407200D02*
X100276190Y-115454819D01*
X100276190Y-115454819D02*
X100514285Y-115454819D01*
X99514285Y-115454819D02*
X99514285Y-114454819D01*
X99514285Y-114454819D02*
X99276190Y-114454819D01*
X99276190Y-114454819D02*
X99133333Y-114502438D01*
X99133333Y-114502438D02*
X99038095Y-114597676D01*
X99038095Y-114597676D02*
X98990476Y-114692914D01*
X98990476Y-114692914D02*
X98942857Y-114883390D01*
X98942857Y-114883390D02*
X98942857Y-115026247D01*
X98942857Y-115026247D02*
X98990476Y-115216723D01*
X98990476Y-115216723D02*
X99038095Y-115311961D01*
X99038095Y-115311961D02*
X99133333Y-115407200D01*
X99133333Y-115407200D02*
X99276190Y-115454819D01*
X99276190Y-115454819D02*
X99514285Y-115454819D01*
X98514285Y-115359580D02*
X98466666Y-115407200D01*
X98466666Y-115407200D02*
X98514285Y-115454819D01*
X98514285Y-115454819D02*
X98561904Y-115407200D01*
X98561904Y-115407200D02*
X98514285Y-115359580D01*
X98514285Y-115359580D02*
X98514285Y-115454819D01*
X98514285Y-114835771D02*
X98466666Y-114883390D01*
X98466666Y-114883390D02*
X98514285Y-114931009D01*
X98514285Y-114931009D02*
X98561904Y-114883390D01*
X98561904Y-114883390D02*
X98514285Y-114835771D01*
X98514285Y-114835771D02*
X98514285Y-114931009D01*
X97276190Y-115454819D02*
X97276190Y-114788152D01*
X97276190Y-114883390D02*
X97228571Y-114835771D01*
X97228571Y-114835771D02*
X97133333Y-114788152D01*
X97133333Y-114788152D02*
X96990476Y-114788152D01*
X96990476Y-114788152D02*
X96895238Y-114835771D01*
X96895238Y-114835771D02*
X96847619Y-114931009D01*
X96847619Y-114931009D02*
X96847619Y-115454819D01*
X96847619Y-114931009D02*
X96800000Y-114835771D01*
X96800000Y-114835771D02*
X96704762Y-114788152D01*
X96704762Y-114788152D02*
X96561905Y-114788152D01*
X96561905Y-114788152D02*
X96466666Y-114835771D01*
X96466666Y-114835771D02*
X96419047Y-114931009D01*
X96419047Y-114931009D02*
X96419047Y-115454819D01*
X95561905Y-115407200D02*
X95657143Y-115454819D01*
X95657143Y-115454819D02*
X95847619Y-115454819D01*
X95847619Y-115454819D02*
X95942857Y-115407200D01*
X95942857Y-115407200D02*
X95990476Y-115311961D01*
X95990476Y-115311961D02*
X95990476Y-114931009D01*
X95990476Y-114931009D02*
X95942857Y-114835771D01*
X95942857Y-114835771D02*
X95847619Y-114788152D01*
X95847619Y-114788152D02*
X95657143Y-114788152D01*
X95657143Y-114788152D02*
X95561905Y-114835771D01*
X95561905Y-114835771D02*
X95514286Y-114931009D01*
X95514286Y-114931009D02*
X95514286Y-115026247D01*
X95514286Y-115026247D02*
X95990476Y-115121485D01*
X95228571Y-114788152D02*
X94847619Y-114788152D01*
X95085714Y-114454819D02*
X95085714Y-115311961D01*
X95085714Y-115311961D02*
X95038095Y-115407200D01*
X95038095Y-115407200D02*
X94942857Y-115454819D01*
X94942857Y-115454819D02*
X94847619Y-115454819D01*
X94133333Y-115407200D02*
X94228571Y-115454819D01*
X94228571Y-115454819D02*
X94419047Y-115454819D01*
X94419047Y-115454819D02*
X94514285Y-115407200D01*
X94514285Y-115407200D02*
X94561904Y-115311961D01*
X94561904Y-115311961D02*
X94561904Y-114931009D01*
X94561904Y-114931009D02*
X94514285Y-114835771D01*
X94514285Y-114835771D02*
X94419047Y-114788152D01*
X94419047Y-114788152D02*
X94228571Y-114788152D01*
X94228571Y-114788152D02*
X94133333Y-114835771D01*
X94133333Y-114835771D02*
X94085714Y-114931009D01*
X94085714Y-114931009D02*
X94085714Y-115026247D01*
X94085714Y-115026247D02*
X94561904Y-115121485D01*
X93657142Y-115454819D02*
X93657142Y-114788152D01*
X93657142Y-114978628D02*
X93609523Y-114883390D01*
X93609523Y-114883390D02*
X93561904Y-114835771D01*
X93561904Y-114835771D02*
X93466666Y-114788152D01*
X93466666Y-114788152D02*
X93371428Y-114788152D01*
X91990475Y-114454819D02*
X91990475Y-115169104D01*
X91990475Y-115169104D02*
X92038094Y-115311961D01*
X92038094Y-115311961D02*
X92133332Y-115407200D01*
X92133332Y-115407200D02*
X92276189Y-115454819D01*
X92276189Y-115454819D02*
X92371427Y-115454819D01*
X91609522Y-114454819D02*
X90990475Y-114454819D01*
X90990475Y-114454819D02*
X91323808Y-114835771D01*
X91323808Y-114835771D02*
X91180951Y-114835771D01*
X91180951Y-114835771D02*
X91085713Y-114883390D01*
X91085713Y-114883390D02*
X91038094Y-114931009D01*
X91038094Y-114931009D02*
X90990475Y-115026247D01*
X90990475Y-115026247D02*
X90990475Y-115264342D01*
X90990475Y-115264342D02*
X91038094Y-115359580D01*
X91038094Y-115359580D02*
X91085713Y-115407200D01*
X91085713Y-115407200D02*
X91180951Y-115454819D01*
X91180951Y-115454819D02*
X91466665Y-115454819D01*
X91466665Y-115454819D02*
X91561903Y-115407200D01*
X91561903Y-115407200D02*
X91609522Y-115359580D01*
X102419048Y-120354819D02*
X102419048Y-121069104D01*
X102419048Y-121069104D02*
X102466667Y-121211961D01*
X102466667Y-121211961D02*
X102561905Y-121307200D01*
X102561905Y-121307200D02*
X102704762Y-121354819D01*
X102704762Y-121354819D02*
X102800000Y-121354819D01*
X101466667Y-121354819D02*
X101942857Y-121354819D01*
X101942857Y-121354819D02*
X101942857Y-120354819D01*
X100561905Y-121259580D02*
X100609524Y-121307200D01*
X100609524Y-121307200D02*
X100752381Y-121354819D01*
X100752381Y-121354819D02*
X100847619Y-121354819D01*
X100847619Y-121354819D02*
X100990476Y-121307200D01*
X100990476Y-121307200D02*
X101085714Y-121211961D01*
X101085714Y-121211961D02*
X101133333Y-121116723D01*
X101133333Y-121116723D02*
X101180952Y-120926247D01*
X101180952Y-120926247D02*
X101180952Y-120783390D01*
X101180952Y-120783390D02*
X101133333Y-120592914D01*
X101133333Y-120592914D02*
X101085714Y-120497676D01*
X101085714Y-120497676D02*
X100990476Y-120402438D01*
X100990476Y-120402438D02*
X100847619Y-120354819D01*
X100847619Y-120354819D02*
X100752381Y-120354819D01*
X100752381Y-120354819D02*
X100609524Y-120402438D01*
X100609524Y-120402438D02*
X100561905Y-120450057D01*
X99847619Y-120354819D02*
X99847619Y-121069104D01*
X99847619Y-121069104D02*
X99895238Y-121211961D01*
X99895238Y-121211961D02*
X99990476Y-121307200D01*
X99990476Y-121307200D02*
X100133333Y-121354819D01*
X100133333Y-121354819D02*
X100228571Y-121354819D01*
X98895238Y-121354819D02*
X99371428Y-121354819D01*
X99371428Y-121354819D02*
X99371428Y-120354819D01*
X97990476Y-121259580D02*
X98038095Y-121307200D01*
X98038095Y-121307200D02*
X98180952Y-121354819D01*
X98180952Y-121354819D02*
X98276190Y-121354819D01*
X98276190Y-121354819D02*
X98419047Y-121307200D01*
X98419047Y-121307200D02*
X98514285Y-121211961D01*
X98514285Y-121211961D02*
X98561904Y-121116723D01*
X98561904Y-121116723D02*
X98609523Y-120926247D01*
X98609523Y-120926247D02*
X98609523Y-120783390D01*
X98609523Y-120783390D02*
X98561904Y-120592914D01*
X98561904Y-120592914D02*
X98514285Y-120497676D01*
X98514285Y-120497676D02*
X98419047Y-120402438D01*
X98419047Y-120402438D02*
X98276190Y-120354819D01*
X98276190Y-120354819D02*
X98180952Y-120354819D01*
X98180952Y-120354819D02*
X98038095Y-120402438D01*
X98038095Y-120402438D02*
X97990476Y-120450057D01*
X97276190Y-120354819D02*
X97276190Y-121069104D01*
X97276190Y-121069104D02*
X97323809Y-121211961D01*
X97323809Y-121211961D02*
X97419047Y-121307200D01*
X97419047Y-121307200D02*
X97561904Y-121354819D01*
X97561904Y-121354819D02*
X97657142Y-121354819D01*
X96323809Y-121354819D02*
X96799999Y-121354819D01*
X96799999Y-121354819D02*
X96799999Y-120354819D01*
X95419047Y-121259580D02*
X95466666Y-121307200D01*
X95466666Y-121307200D02*
X95609523Y-121354819D01*
X95609523Y-121354819D02*
X95704761Y-121354819D01*
X95704761Y-121354819D02*
X95847618Y-121307200D01*
X95847618Y-121307200D02*
X95942856Y-121211961D01*
X95942856Y-121211961D02*
X95990475Y-121116723D01*
X95990475Y-121116723D02*
X96038094Y-120926247D01*
X96038094Y-120926247D02*
X96038094Y-120783390D01*
X96038094Y-120783390D02*
X95990475Y-120592914D01*
X95990475Y-120592914D02*
X95942856Y-120497676D01*
X95942856Y-120497676D02*
X95847618Y-120402438D01*
X95847618Y-120402438D02*
X95704761Y-120354819D01*
X95704761Y-120354819D02*
X95609523Y-120354819D01*
X95609523Y-120354819D02*
X95466666Y-120402438D01*
X95466666Y-120402438D02*
X95419047Y-120450057D01*
X94704761Y-120354819D02*
X94704761Y-121069104D01*
X94704761Y-121069104D02*
X94752380Y-121211961D01*
X94752380Y-121211961D02*
X94847618Y-121307200D01*
X94847618Y-121307200D02*
X94990475Y-121354819D01*
X94990475Y-121354819D02*
X95085713Y-121354819D01*
X93752380Y-121354819D02*
X94228570Y-121354819D01*
X94228570Y-121354819D02*
X94228570Y-120354819D01*
X92847618Y-121259580D02*
X92895237Y-121307200D01*
X92895237Y-121307200D02*
X93038094Y-121354819D01*
X93038094Y-121354819D02*
X93133332Y-121354819D01*
X93133332Y-121354819D02*
X93276189Y-121307200D01*
X93276189Y-121307200D02*
X93371427Y-121211961D01*
X93371427Y-121211961D02*
X93419046Y-121116723D01*
X93419046Y-121116723D02*
X93466665Y-120926247D01*
X93466665Y-120926247D02*
X93466665Y-120783390D01*
X93466665Y-120783390D02*
X93419046Y-120592914D01*
X93419046Y-120592914D02*
X93371427Y-120497676D01*
X93371427Y-120497676D02*
X93276189Y-120402438D01*
X93276189Y-120402438D02*
X93133332Y-120354819D01*
X93133332Y-120354819D02*
X93038094Y-120354819D01*
X93038094Y-120354819D02*
X92895237Y-120402438D01*
X92895237Y-120402438D02*
X92847618Y-120450057D01*
X108697618Y-99454819D02*
X108602380Y-99454819D01*
X108602380Y-99454819D02*
X108507142Y-99502438D01*
X108507142Y-99502438D02*
X108459523Y-99550057D01*
X108459523Y-99550057D02*
X108411904Y-99645295D01*
X108411904Y-99645295D02*
X108364285Y-99835771D01*
X108364285Y-99835771D02*
X108364285Y-100073866D01*
X108364285Y-100073866D02*
X108411904Y-100264342D01*
X108411904Y-100264342D02*
X108459523Y-100359580D01*
X108459523Y-100359580D02*
X108507142Y-100407200D01*
X108507142Y-100407200D02*
X108602380Y-100454819D01*
X108602380Y-100454819D02*
X108697618Y-100454819D01*
X108697618Y-100454819D02*
X108792856Y-100407200D01*
X108792856Y-100407200D02*
X108840475Y-100359580D01*
X108840475Y-100359580D02*
X108888094Y-100264342D01*
X108888094Y-100264342D02*
X108935713Y-100073866D01*
X108935713Y-100073866D02*
X108935713Y-99835771D01*
X108935713Y-99835771D02*
X108888094Y-99645295D01*
X108888094Y-99645295D02*
X108840475Y-99550057D01*
X108840475Y-99550057D02*
X108792856Y-99502438D01*
X108792856Y-99502438D02*
X108697618Y-99454819D01*
X108364285Y-102994819D02*
X108935713Y-102994819D01*
X108649999Y-102994819D02*
X108649999Y-101994819D01*
X108649999Y-101994819D02*
X108745237Y-102137676D01*
X108745237Y-102137676D02*
X108840475Y-102232914D01*
X108840475Y-102232914D02*
X108935713Y-102280533D01*
X108935713Y-104630057D02*
X108888094Y-104582438D01*
X108888094Y-104582438D02*
X108792856Y-104534819D01*
X108792856Y-104534819D02*
X108554761Y-104534819D01*
X108554761Y-104534819D02*
X108459523Y-104582438D01*
X108459523Y-104582438D02*
X108411904Y-104630057D01*
X108411904Y-104630057D02*
X108364285Y-104725295D01*
X108364285Y-104725295D02*
X108364285Y-104820533D01*
X108364285Y-104820533D02*
X108411904Y-104963390D01*
X108411904Y-104963390D02*
X108983332Y-105534819D01*
X108983332Y-105534819D02*
X108364285Y-105534819D01*
X108983332Y-107074819D02*
X108364285Y-107074819D01*
X108364285Y-107074819D02*
X108697618Y-107455771D01*
X108697618Y-107455771D02*
X108554761Y-107455771D01*
X108554761Y-107455771D02*
X108459523Y-107503390D01*
X108459523Y-107503390D02*
X108411904Y-107551009D01*
X108411904Y-107551009D02*
X108364285Y-107646247D01*
X108364285Y-107646247D02*
X108364285Y-107884342D01*
X108364285Y-107884342D02*
X108411904Y-107979580D01*
X108411904Y-107979580D02*
X108459523Y-108027200D01*
X108459523Y-108027200D02*
X108554761Y-108074819D01*
X108554761Y-108074819D02*
X108840475Y-108074819D01*
X108840475Y-108074819D02*
X108935713Y-108027200D01*
X108935713Y-108027200D02*
X108983332Y-107979580D01*
X108459523Y-109948152D02*
X108459523Y-110614819D01*
X108697618Y-109567200D02*
X108935713Y-110281485D01*
X108935713Y-110281485D02*
X108316666Y-110281485D01*
X108411904Y-112154819D02*
X108888094Y-112154819D01*
X108888094Y-112154819D02*
X108935713Y-112631009D01*
X108935713Y-112631009D02*
X108888094Y-112583390D01*
X108888094Y-112583390D02*
X108792856Y-112535771D01*
X108792856Y-112535771D02*
X108554761Y-112535771D01*
X108554761Y-112535771D02*
X108459523Y-112583390D01*
X108459523Y-112583390D02*
X108411904Y-112631009D01*
X108411904Y-112631009D02*
X108364285Y-112726247D01*
X108364285Y-112726247D02*
X108364285Y-112964342D01*
X108364285Y-112964342D02*
X108411904Y-113059580D01*
X108411904Y-113059580D02*
X108459523Y-113107200D01*
X108459523Y-113107200D02*
X108554761Y-113154819D01*
X108554761Y-113154819D02*
X108792856Y-113154819D01*
X108792856Y-113154819D02*
X108888094Y-113107200D01*
X108888094Y-113107200D02*
X108935713Y-113059580D01*
X108459523Y-114694819D02*
X108649999Y-114694819D01*
X108649999Y-114694819D02*
X108745237Y-114742438D01*
X108745237Y-114742438D02*
X108792856Y-114790057D01*
X108792856Y-114790057D02*
X108888094Y-114932914D01*
X108888094Y-114932914D02*
X108935713Y-115123390D01*
X108935713Y-115123390D02*
X108935713Y-115504342D01*
X108935713Y-115504342D02*
X108888094Y-115599580D01*
X108888094Y-115599580D02*
X108840475Y-115647200D01*
X108840475Y-115647200D02*
X108745237Y-115694819D01*
X108745237Y-115694819D02*
X108554761Y-115694819D01*
X108554761Y-115694819D02*
X108459523Y-115647200D01*
X108459523Y-115647200D02*
X108411904Y-115599580D01*
X108411904Y-115599580D02*
X108364285Y-115504342D01*
X108364285Y-115504342D02*
X108364285Y-115266247D01*
X108364285Y-115266247D02*
X108411904Y-115171009D01*
X108411904Y-115171009D02*
X108459523Y-115123390D01*
X108459523Y-115123390D02*
X108554761Y-115075771D01*
X108554761Y-115075771D02*
X108745237Y-115075771D01*
X108745237Y-115075771D02*
X108840475Y-115123390D01*
X108840475Y-115123390D02*
X108888094Y-115171009D01*
X108888094Y-115171009D02*
X108935713Y-115266247D01*
X108983332Y-117234819D02*
X108316666Y-117234819D01*
X108316666Y-117234819D02*
X108745237Y-118234819D01*
X116234397Y-99454819D02*
X115901064Y-100454819D01*
X115901064Y-100454819D02*
X115567731Y-99454819D01*
X115234397Y-100454819D02*
X115234397Y-99454819D01*
X114567731Y-99454819D02*
X114377255Y-99454819D01*
X114377255Y-99454819D02*
X114282017Y-99502438D01*
X114282017Y-99502438D02*
X114186779Y-99597676D01*
X114186779Y-99597676D02*
X114139160Y-99788152D01*
X114139160Y-99788152D02*
X114139160Y-100121485D01*
X114139160Y-100121485D02*
X114186779Y-100311961D01*
X114186779Y-100311961D02*
X114282017Y-100407200D01*
X114282017Y-100407200D02*
X114377255Y-100454819D01*
X114377255Y-100454819D02*
X114567731Y-100454819D01*
X114567731Y-100454819D02*
X114662969Y-100407200D01*
X114662969Y-100407200D02*
X114758207Y-100311961D01*
X114758207Y-100311961D02*
X114805826Y-100121485D01*
X114805826Y-100121485D02*
X114805826Y-99788152D01*
X114805826Y-99788152D02*
X114758207Y-99597676D01*
X114758207Y-99597676D02*
X114662969Y-99502438D01*
X114662969Y-99502438D02*
X114567731Y-99454819D01*
X116710588Y-101994819D02*
X116377255Y-102994819D01*
X116377255Y-102994819D02*
X116043922Y-101994819D01*
X115710588Y-102994819D02*
X115710588Y-101994819D01*
X115710588Y-101994819D02*
X115472493Y-101994819D01*
X115472493Y-101994819D02*
X115329636Y-102042438D01*
X115329636Y-102042438D02*
X115234398Y-102137676D01*
X115234398Y-102137676D02*
X115186779Y-102232914D01*
X115186779Y-102232914D02*
X115139160Y-102423390D01*
X115139160Y-102423390D02*
X115139160Y-102566247D01*
X115139160Y-102566247D02*
X115186779Y-102756723D01*
X115186779Y-102756723D02*
X115234398Y-102851961D01*
X115234398Y-102851961D02*
X115329636Y-102947200D01*
X115329636Y-102947200D02*
X115472493Y-102994819D01*
X115472493Y-102994819D02*
X115710588Y-102994819D01*
X114710588Y-102994819D02*
X114710588Y-101994819D01*
X114710588Y-101994819D02*
X114472493Y-101994819D01*
X114472493Y-101994819D02*
X114329636Y-102042438D01*
X114329636Y-102042438D02*
X114234398Y-102137676D01*
X114234398Y-102137676D02*
X114186779Y-102232914D01*
X114186779Y-102232914D02*
X114139160Y-102423390D01*
X114139160Y-102423390D02*
X114139160Y-102566247D01*
X114139160Y-102566247D02*
X114186779Y-102756723D01*
X114186779Y-102756723D02*
X114234398Y-102851961D01*
X114234398Y-102851961D02*
X114329636Y-102947200D01*
X114329636Y-102947200D02*
X114472493Y-102994819D01*
X114472493Y-102994819D02*
X114710588Y-102994819D01*
X116234398Y-104582438D02*
X116329636Y-104534819D01*
X116329636Y-104534819D02*
X116472493Y-104534819D01*
X116472493Y-104534819D02*
X116615350Y-104582438D01*
X116615350Y-104582438D02*
X116710588Y-104677676D01*
X116710588Y-104677676D02*
X116758207Y-104772914D01*
X116758207Y-104772914D02*
X116805826Y-104963390D01*
X116805826Y-104963390D02*
X116805826Y-105106247D01*
X116805826Y-105106247D02*
X116758207Y-105296723D01*
X116758207Y-105296723D02*
X116710588Y-105391961D01*
X116710588Y-105391961D02*
X116615350Y-105487200D01*
X116615350Y-105487200D02*
X116472493Y-105534819D01*
X116472493Y-105534819D02*
X116377255Y-105534819D01*
X116377255Y-105534819D02*
X116234398Y-105487200D01*
X116234398Y-105487200D02*
X116186779Y-105439580D01*
X116186779Y-105439580D02*
X116186779Y-105106247D01*
X116186779Y-105106247D02*
X116377255Y-105106247D01*
X115758207Y-105534819D02*
X115758207Y-104534819D01*
X115758207Y-104534819D02*
X115186779Y-105534819D01*
X115186779Y-105534819D02*
X115186779Y-104534819D01*
X114710588Y-105534819D02*
X114710588Y-104534819D01*
X114710588Y-104534819D02*
X114472493Y-104534819D01*
X114472493Y-104534819D02*
X114329636Y-104582438D01*
X114329636Y-104582438D02*
X114234398Y-104677676D01*
X114234398Y-104677676D02*
X114186779Y-104772914D01*
X114186779Y-104772914D02*
X114139160Y-104963390D01*
X114139160Y-104963390D02*
X114139160Y-105106247D01*
X114139160Y-105106247D02*
X114186779Y-105296723D01*
X114186779Y-105296723D02*
X114234398Y-105391961D01*
X114234398Y-105391961D02*
X114329636Y-105487200D01*
X114329636Y-105487200D02*
X114472493Y-105534819D01*
X114472493Y-105534819D02*
X114710588Y-105534819D01*
X116710588Y-108027200D02*
X116567731Y-108074819D01*
X116567731Y-108074819D02*
X116329636Y-108074819D01*
X116329636Y-108074819D02*
X116234398Y-108027200D01*
X116234398Y-108027200D02*
X116186779Y-107979580D01*
X116186779Y-107979580D02*
X116139160Y-107884342D01*
X116139160Y-107884342D02*
X116139160Y-107789104D01*
X116139160Y-107789104D02*
X116186779Y-107693866D01*
X116186779Y-107693866D02*
X116234398Y-107646247D01*
X116234398Y-107646247D02*
X116329636Y-107598628D01*
X116329636Y-107598628D02*
X116520112Y-107551009D01*
X116520112Y-107551009D02*
X116615350Y-107503390D01*
X116615350Y-107503390D02*
X116662969Y-107455771D01*
X116662969Y-107455771D02*
X116710588Y-107360533D01*
X116710588Y-107360533D02*
X116710588Y-107265295D01*
X116710588Y-107265295D02*
X116662969Y-107170057D01*
X116662969Y-107170057D02*
X116615350Y-107122438D01*
X116615350Y-107122438D02*
X116520112Y-107074819D01*
X116520112Y-107074819D02*
X116282017Y-107074819D01*
X116282017Y-107074819D02*
X116139160Y-107122438D01*
X115139160Y-107979580D02*
X115186779Y-108027200D01*
X115186779Y-108027200D02*
X115329636Y-108074819D01*
X115329636Y-108074819D02*
X115424874Y-108074819D01*
X115424874Y-108074819D02*
X115567731Y-108027200D01*
X115567731Y-108027200D02*
X115662969Y-107931961D01*
X115662969Y-107931961D02*
X115710588Y-107836723D01*
X115710588Y-107836723D02*
X115758207Y-107646247D01*
X115758207Y-107646247D02*
X115758207Y-107503390D01*
X115758207Y-107503390D02*
X115710588Y-107312914D01*
X115710588Y-107312914D02*
X115662969Y-107217676D01*
X115662969Y-107217676D02*
X115567731Y-107122438D01*
X115567731Y-107122438D02*
X115424874Y-107074819D01*
X115424874Y-107074819D02*
X115329636Y-107074819D01*
X115329636Y-107074819D02*
X115186779Y-107122438D01*
X115186779Y-107122438D02*
X115139160Y-107170057D01*
X114710588Y-108074819D02*
X114710588Y-107074819D01*
X114139160Y-108074819D02*
X114567731Y-107503390D01*
X114139160Y-107074819D02*
X114710588Y-107646247D01*
X116758207Y-110567200D02*
X116615350Y-110614819D01*
X116615350Y-110614819D02*
X116377255Y-110614819D01*
X116377255Y-110614819D02*
X116282017Y-110567200D01*
X116282017Y-110567200D02*
X116234398Y-110519580D01*
X116234398Y-110519580D02*
X116186779Y-110424342D01*
X116186779Y-110424342D02*
X116186779Y-110329104D01*
X116186779Y-110329104D02*
X116234398Y-110233866D01*
X116234398Y-110233866D02*
X116282017Y-110186247D01*
X116282017Y-110186247D02*
X116377255Y-110138628D01*
X116377255Y-110138628D02*
X116567731Y-110091009D01*
X116567731Y-110091009D02*
X116662969Y-110043390D01*
X116662969Y-110043390D02*
X116710588Y-109995771D01*
X116710588Y-109995771D02*
X116758207Y-109900533D01*
X116758207Y-109900533D02*
X116758207Y-109805295D01*
X116758207Y-109805295D02*
X116710588Y-109710057D01*
X116710588Y-109710057D02*
X116662969Y-109662438D01*
X116662969Y-109662438D02*
X116567731Y-109614819D01*
X116567731Y-109614819D02*
X116329636Y-109614819D01*
X116329636Y-109614819D02*
X116186779Y-109662438D01*
X115758207Y-110614819D02*
X115758207Y-109614819D01*
X115758207Y-109614819D02*
X115520112Y-109614819D01*
X115520112Y-109614819D02*
X115377255Y-109662438D01*
X115377255Y-109662438D02*
X115282017Y-109757676D01*
X115282017Y-109757676D02*
X115234398Y-109852914D01*
X115234398Y-109852914D02*
X115186779Y-110043390D01*
X115186779Y-110043390D02*
X115186779Y-110186247D01*
X115186779Y-110186247D02*
X115234398Y-110376723D01*
X115234398Y-110376723D02*
X115282017Y-110471961D01*
X115282017Y-110471961D02*
X115377255Y-110567200D01*
X115377255Y-110567200D02*
X115520112Y-110614819D01*
X115520112Y-110614819D02*
X115758207Y-110614819D01*
X114567731Y-109614819D02*
X114377255Y-109614819D01*
X114377255Y-109614819D02*
X114282017Y-109662438D01*
X114282017Y-109662438D02*
X114186779Y-109757676D01*
X114186779Y-109757676D02*
X114139160Y-109948152D01*
X114139160Y-109948152D02*
X114139160Y-110281485D01*
X114139160Y-110281485D02*
X114186779Y-110471961D01*
X114186779Y-110471961D02*
X114282017Y-110567200D01*
X114282017Y-110567200D02*
X114377255Y-110614819D01*
X114377255Y-110614819D02*
X114567731Y-110614819D01*
X114567731Y-110614819D02*
X114662969Y-110567200D01*
X114662969Y-110567200D02*
X114758207Y-110471961D01*
X114758207Y-110471961D02*
X114805826Y-110281485D01*
X114805826Y-110281485D02*
X114805826Y-109948152D01*
X114805826Y-109948152D02*
X114758207Y-109757676D01*
X114758207Y-109757676D02*
X114662969Y-109662438D01*
X114662969Y-109662438D02*
X114567731Y-109614819D01*
X116186778Y-113107200D02*
X116043921Y-113154819D01*
X116043921Y-113154819D02*
X115805826Y-113154819D01*
X115805826Y-113154819D02*
X115710588Y-113107200D01*
X115710588Y-113107200D02*
X115662969Y-113059580D01*
X115662969Y-113059580D02*
X115615350Y-112964342D01*
X115615350Y-112964342D02*
X115615350Y-112869104D01*
X115615350Y-112869104D02*
X115662969Y-112773866D01*
X115662969Y-112773866D02*
X115710588Y-112726247D01*
X115710588Y-112726247D02*
X115805826Y-112678628D01*
X115805826Y-112678628D02*
X115996302Y-112631009D01*
X115996302Y-112631009D02*
X116091540Y-112583390D01*
X116091540Y-112583390D02*
X116139159Y-112535771D01*
X116139159Y-112535771D02*
X116186778Y-112440533D01*
X116186778Y-112440533D02*
X116186778Y-112345295D01*
X116186778Y-112345295D02*
X116139159Y-112250057D01*
X116139159Y-112250057D02*
X116091540Y-112202438D01*
X116091540Y-112202438D02*
X115996302Y-112154819D01*
X115996302Y-112154819D02*
X115758207Y-112154819D01*
X115758207Y-112154819D02*
X115615350Y-112202438D01*
X115186778Y-113154819D02*
X115186778Y-112154819D01*
X115186778Y-112154819D02*
X114948683Y-112154819D01*
X114948683Y-112154819D02*
X114805826Y-112202438D01*
X114805826Y-112202438D02*
X114710588Y-112297676D01*
X114710588Y-112297676D02*
X114662969Y-112392914D01*
X114662969Y-112392914D02*
X114615350Y-112583390D01*
X114615350Y-112583390D02*
X114615350Y-112726247D01*
X114615350Y-112726247D02*
X114662969Y-112916723D01*
X114662969Y-112916723D02*
X114710588Y-113011961D01*
X114710588Y-113011961D02*
X114805826Y-113107200D01*
X114805826Y-113107200D02*
X114948683Y-113154819D01*
X114948683Y-113154819D02*
X115186778Y-113154819D01*
X114186778Y-113154819D02*
X114186778Y-112154819D01*
X115091541Y-115599580D02*
X115139160Y-115647200D01*
X115139160Y-115647200D02*
X115282017Y-115694819D01*
X115282017Y-115694819D02*
X115377255Y-115694819D01*
X115377255Y-115694819D02*
X115520112Y-115647200D01*
X115520112Y-115647200D02*
X115615350Y-115551961D01*
X115615350Y-115551961D02*
X115662969Y-115456723D01*
X115662969Y-115456723D02*
X115710588Y-115266247D01*
X115710588Y-115266247D02*
X115710588Y-115123390D01*
X115710588Y-115123390D02*
X115662969Y-114932914D01*
X115662969Y-114932914D02*
X115615350Y-114837676D01*
X115615350Y-114837676D02*
X115520112Y-114742438D01*
X115520112Y-114742438D02*
X115377255Y-114694819D01*
X115377255Y-114694819D02*
X115282017Y-114694819D01*
X115282017Y-114694819D02*
X115139160Y-114742438D01*
X115139160Y-114742438D02*
X115091541Y-114790057D01*
X114710588Y-115647200D02*
X114567731Y-115694819D01*
X114567731Y-115694819D02*
X114329636Y-115694819D01*
X114329636Y-115694819D02*
X114234398Y-115647200D01*
X114234398Y-115647200D02*
X114186779Y-115599580D01*
X114186779Y-115599580D02*
X114139160Y-115504342D01*
X114139160Y-115504342D02*
X114139160Y-115409104D01*
X114139160Y-115409104D02*
X114186779Y-115313866D01*
X114186779Y-115313866D02*
X114234398Y-115266247D01*
X114234398Y-115266247D02*
X114329636Y-115218628D01*
X114329636Y-115218628D02*
X114520112Y-115171009D01*
X114520112Y-115171009D02*
X114615350Y-115123390D01*
X114615350Y-115123390D02*
X114662969Y-115075771D01*
X114662969Y-115075771D02*
X114710588Y-114980533D01*
X114710588Y-114980533D02*
X114710588Y-114885295D01*
X114710588Y-114885295D02*
X114662969Y-114790057D01*
X114662969Y-114790057D02*
X114615350Y-114742438D01*
X114615350Y-114742438D02*
X114520112Y-114694819D01*
X114520112Y-114694819D02*
X114282017Y-114694819D01*
X114282017Y-114694819D02*
X114139160Y-114742438D01*
X115186778Y-118234819D02*
X115186778Y-117234819D01*
X114710588Y-118234819D02*
X114710588Y-117234819D01*
X114710588Y-117234819D02*
X114472493Y-117234819D01*
X114472493Y-117234819D02*
X114329636Y-117282438D01*
X114329636Y-117282438D02*
X114234398Y-117377676D01*
X114234398Y-117377676D02*
X114186779Y-117472914D01*
X114186779Y-117472914D02*
X114139160Y-117663390D01*
X114139160Y-117663390D02*
X114139160Y-117806247D01*
X114139160Y-117806247D02*
X114186779Y-117996723D01*
X114186779Y-117996723D02*
X114234398Y-118091961D01*
X114234398Y-118091961D02*
X114329636Y-118187200D01*
X114329636Y-118187200D02*
X114472493Y-118234819D01*
X114472493Y-118234819D02*
X114710588Y-118234819D01*
X116186778Y-122054819D02*
X116186778Y-121054819D01*
X115710588Y-122054819D02*
X115710588Y-121054819D01*
X115710588Y-121054819D02*
X115472493Y-121054819D01*
X115472493Y-121054819D02*
X115329636Y-121102438D01*
X115329636Y-121102438D02*
X115234398Y-121197676D01*
X115234398Y-121197676D02*
X115186779Y-121292914D01*
X115186779Y-121292914D02*
X115139160Y-121483390D01*
X115139160Y-121483390D02*
X115139160Y-121626247D01*
X115139160Y-121626247D02*
X115186779Y-121816723D01*
X115186779Y-121816723D02*
X115234398Y-121911961D01*
X115234398Y-121911961D02*
X115329636Y-122007200D01*
X115329636Y-122007200D02*
X115472493Y-122054819D01*
X115472493Y-122054819D02*
X115710588Y-122054819D01*
X114710588Y-122054819D02*
X114710588Y-121054819D01*
X114710588Y-121054819D02*
X114472493Y-121054819D01*
X114472493Y-121054819D02*
X114329636Y-121102438D01*
X114329636Y-121102438D02*
X114234398Y-121197676D01*
X114234398Y-121197676D02*
X114186779Y-121292914D01*
X114186779Y-121292914D02*
X114139160Y-121483390D01*
X114139160Y-121483390D02*
X114139160Y-121626247D01*
X114139160Y-121626247D02*
X114186779Y-121816723D01*
X114186779Y-121816723D02*
X114234398Y-121911961D01*
X114234398Y-121911961D02*
X114329636Y-122007200D01*
X114329636Y-122007200D02*
X114472493Y-122054819D01*
X114472493Y-122054819D02*
X114710588Y-122054819D01*
%LPC*%
D12*
%TO.C,J2*%
X110160000Y-100000000D03*
D13*
X112700000Y-100000000D03*
X110160000Y-102540000D03*
X112700000Y-102540000D03*
X110160000Y-105080000D03*
X112700000Y-105080000D03*
X110160000Y-107620000D03*
X112700000Y-107620000D03*
X110160000Y-110160000D03*
X112700000Y-110160000D03*
X110160000Y-112700000D03*
X112700000Y-112700000D03*
X110160000Y-115240000D03*
X112700000Y-115240000D03*
X110160000Y-117780000D03*
X112700000Y-117780000D03*
%TD*%
D14*
%TO.C,J1*%
X100000000Y-100000000D03*
D15*
X98730000Y-100000000D03*
X97460000Y-100000000D03*
X96190000Y-100000000D03*
X94920000Y-100000000D03*
X93650000Y-100000000D03*
X92380000Y-100000000D03*
D14*
X100000000Y-117780000D03*
D15*
X98730000Y-117780000D03*
X97460000Y-117780000D03*
X96190000Y-117780000D03*
X94920000Y-117780000D03*
X93650000Y-117780000D03*
X92380000Y-117780000D03*
X91110000Y-117780000D03*
X89840000Y-117780000D03*
%TD*%
D12*
%TO.C,J3*%
X110160000Y-121600000D03*
D13*
X112700000Y-121600000D03*
%TD*%
%LPD*%
M02*
