%TF.GenerationSoftware,KiCad,Pcbnew,10.0.6-10.0.6~ubuntu26.04.1*%
%TF.CreationDate,2026-10-05T18:27:24-04:00*%
%TF.ProjectId,board_a,626f6172-645f-4612-9e6b-696361645f70,rev?*%
%TF.SameCoordinates,Original*%
%TF.FileFunction,Copper,L2,Bot*%
%TF.FilePolarity,Positive*%
%FSLAX46Y46*%
G04 Gerber Fmt 4.6, Leading zero omitted, Abs format (unit mm)*
G04 Created by KiCad (PCBNEW 10.0.6-10.0.6~ubuntu26.04.1) date 2026-10-05 18:27:24*
%MOMM*%
%LPD*%
G01*
G04 APERTURE LIST*
G04 Aperture macros list*
%AMRoundRect*
0 Rectangle with rounded corners*
0 $1 Rounding radius*
0 $2 $3 $4 $5 $6 $7 $8 $9 X,Y pos of 4 corners*
0 Add a 4 corners polygon primitive as box body*
4,1,4,$2,$3,$4,$5,$6,$7,$8,$9,$2,$3,0*
0 Add four circle primitives for the rounded corners*
1,1,$1+$1,$2,$3*
1,1,$1+$1,$4,$5*
1,1,$1+$1,$6,$7*
1,1,$1+$1,$8,$9*
0 Add four rect primitives between the rounded corners*
20,1,$1+$1,$2,$3,$4,$5,0*
20,1,$1+$1,$4,$5,$6,$7,0*
20,1,$1+$1,$6,$7,$8,$9,0*
20,1,$1+$1,$8,$9,$2,$3,0*%
G04 Aperture macros list end*
%TA.AperFunction,ComponentPad*%
%ADD10R,1.700000X1.700000*%
%TD*%
%TA.AperFunction,ComponentPad*%
%ADD11C,1.700000*%
%TD*%
%TA.AperFunction,ComponentPad*%
%ADD12RoundRect,0.262500X-0.262500X-0.262500X0.262500X-0.262500X0.262500X0.262500X-0.262500X0.262500X0*%
%TD*%
%TA.AperFunction,ComponentPad*%
%ADD13C,1.050000*%
%TD*%
%TA.AperFunction,ViaPad*%
%ADD14C,0.600000*%
%TD*%
%TA.AperFunction,Conductor*%
%ADD15C,0.400000*%
%TD*%
%TA.AperFunction,Conductor*%
%ADD16C,0.200000*%
%TD*%
G04 APERTURE END LIST*
D10*
%TO.P,J2,1*%
%TO.N,/GPIO0*%
X110160000Y-100000000D03*
D11*
%TO.P,J2,2*%
%TO.N,/VDDIO*%
X112700000Y-100000000D03*
%TO.P,J2,3*%
%TO.N,/GPIO1*%
X110160000Y-102540000D03*
%TO.P,J2,4*%
%TO.N,/VDD_IN*%
X112700000Y-102540000D03*
%TO.P,J2,5*%
%TO.N,/GPIO2*%
X110160000Y-105080000D03*
%TO.P,J2,6*%
%TO.N,/GND*%
X112700000Y-105080000D03*
%TO.P,J2,7*%
%TO.N,/GPIO3*%
X110160000Y-107620000D03*
%TO.P,J2,8*%
%TO.N,/SCK*%
X112700000Y-107620000D03*
%TO.P,J2,9*%
%TO.N,/GPIO4*%
X110160000Y-110160000D03*
%TO.P,J2,10*%
%TO.N,/SDO*%
X112700000Y-110160000D03*
%TO.P,J2,11*%
%TO.N,/GPIO5*%
X110160000Y-112700000D03*
%TO.P,J2,12*%
%TO.N,/SDI*%
X112700000Y-112700000D03*
%TO.P,J2,13*%
%TO.N,/GPIO6*%
X110160000Y-115240000D03*
%TO.P,J2,14*%
%TO.N,/CS*%
X112700000Y-115240000D03*
%TO.P,J2,15*%
%TO.N,/GPIO7*%
X110160000Y-117780000D03*
%TO.P,J2,16*%
%TO.N,/PROM*%
X112700000Y-117780000D03*
%TD*%
D10*
%TO.P,J3,1*%
%TO.N,/VDD_IN*%
X110160000Y-121600000D03*
D11*
%TO.P,J3,2*%
%TO.N,/VDD*%
X112700000Y-121600000D03*
%TD*%
D12*
%TO.P,J1,1*%
%TO.N,/VDD*%
X100000000Y-100000000D03*
D13*
%TO.P,J1,2*%
%TO.N,/VDDIO*%
X98730000Y-100000000D03*
%TO.P,J1,3*%
%TO.N,/GND*%
X97460000Y-100000000D03*
%TO.P,J1,4*%
%TO.N,/GPIO0*%
X96190000Y-100000000D03*
%TO.P,J1,5*%
%TO.N,/GPIO1*%
X94920000Y-100000000D03*
%TO.P,J1,6*%
%TO.N,/GPIO2*%
X93650000Y-100000000D03*
%TO.P,J1,7*%
%TO.N,/GPIO3*%
X92380000Y-100000000D03*
D12*
%TO.P,J1,11*%
%TO.N,/CS*%
X100000000Y-117780000D03*
D13*
%TO.P,J1,12*%
%TO.N,/SCK*%
X98730000Y-117780000D03*
%TO.P,J1,13*%
%TO.N,/SDO*%
X97460000Y-117780000D03*
%TO.P,J1,14*%
%TO.N,/SDI*%
X96190000Y-117780000D03*
%TO.P,J1,15*%
%TO.N,/GPIO4*%
X94920000Y-117780000D03*
%TO.P,J1,16*%
%TO.N,/GPIO5*%
X93650000Y-117780000D03*
%TO.P,J1,17*%
%TO.N,/GPIO6*%
X92380000Y-117780000D03*
%TO.P,J1,18*%
%TO.N,/GPIO7*%
X91110000Y-117780000D03*
%TO.P,J1,19*%
%TO.N,/PROM*%
X89840000Y-117780000D03*
%TD*%
D14*
%TO.N,/GND*%
X99751100Y-104576100D03*
%TO.N,/VDD_IN*%
X107194600Y-120355400D03*
X105648300Y-109101000D03*
%TO.N,/PU_SCL*%
X99948400Y-110099700D03*
X99051800Y-112900900D03*
%TD*%
%TO.N,/VDD*%
D15*
X110603200Y-106350000D02*
X111430000Y-107176800D01*
X106350000Y-106350000D02*
X110603200Y-106350000D01*
X113926400Y-120373600D02*
X112700000Y-121600000D01*
X113926400Y-112161500D02*
X113926400Y-120373600D01*
X111430000Y-110611700D02*
X112248300Y-111430000D01*
X112248300Y-111430000D02*
X113194900Y-111430000D01*
X111430000Y-107176800D02*
X111430000Y-110611700D01*
X100000000Y-100000000D02*
X106350000Y-106350000D01*
X113194900Y-111430000D02*
X113926400Y-112161500D01*
%TO.N,/GND*%
X97460000Y-100000000D02*
X98348500Y-99111500D01*
X105287200Y-103810000D02*
X111430000Y-103810000D01*
X97460000Y-100000000D02*
X99751100Y-102291100D01*
X98348500Y-99111500D02*
X100588700Y-99111500D01*
X111430000Y-103810000D02*
X112700000Y-105080000D01*
X100588700Y-99111500D02*
X105287200Y-103810000D01*
X99751100Y-102291100D02*
X99751100Y-104576100D01*
%TO.N,/GPIO1*%
D16*
X94920000Y-100000000D02*
X96286900Y-98633100D01*
X96286900Y-98633100D02*
X106253100Y-98633100D01*
X106253100Y-98633100D02*
X110160000Y-102540000D01*
%TO.N,/GPIO3*%
X100000000Y-107620000D02*
X110160000Y-107620000D01*
X92380000Y-100000000D02*
X100000000Y-107620000D01*
%TO.N,/CS*%
X107644800Y-110224600D02*
X107644800Y-111763800D01*
X100000000Y-117780000D02*
X100000000Y-113960900D01*
X100000000Y-113960900D02*
X105439500Y-108521400D01*
X105941600Y-108521400D02*
X107644800Y-110224600D01*
X109851000Y-113970000D02*
X111430000Y-113970000D01*
X111430000Y-113970000D02*
X112700000Y-115240000D01*
X105439500Y-108521400D02*
X105941600Y-108521400D01*
X107644800Y-111763800D02*
X109851000Y-113970000D01*
%TO.N,/SDI*%
X111306100Y-111306100D02*
X109306300Y-111306100D01*
X105283200Y-108169700D02*
X96190000Y-117262900D01*
X106169900Y-108169700D02*
X105283200Y-108169700D01*
X96190000Y-117262900D02*
X96190000Y-117780000D01*
X109306300Y-111306100D02*
X106169900Y-108169700D01*
X112700000Y-112700000D02*
X111306100Y-111306100D01*
%TO.N,/VDD_IN*%
D15*
X108439200Y-121600000D02*
X107194600Y-120355400D01*
X110160000Y-121600000D02*
X108439200Y-121600000D01*
X105648300Y-109101000D02*
X105648300Y-118809100D01*
X105648300Y-118809100D02*
X107194600Y-120355400D01*
%TO.N,/PU_SCL*%
D16*
X99051800Y-110996300D02*
X99051800Y-112900900D01*
X99948400Y-110099700D02*
X99051800Y-110996300D01*
%TD*%
%TA.AperFunction,Conductor*%
%TO.N,/GND*%
G36*
X97180444Y-100115796D02*
G01*
X97219940Y-100184205D01*
X97275795Y-100240060D01*
X97344204Y-100279556D01*
X97410237Y-100297249D01*
X97013565Y-100693921D01*
X97069219Y-100731107D01*
X97219355Y-100793295D01*
X97378742Y-100824999D01*
X97378746Y-100825000D01*
X97541254Y-100825000D01*
X97541257Y-100824999D01*
X97700643Y-100793295D01*
X97700645Y-100793295D01*
X97850781Y-100731107D01*
X97906433Y-100693921D01*
X97509762Y-100297249D01*
X97575796Y-100279556D01*
X97644205Y-100240060D01*
X97700060Y-100184205D01*
X97739556Y-100115796D01*
X97757249Y-100049762D01*
X98006163Y-100298677D01*
X98027622Y-100330793D01*
X98042756Y-100367329D01*
X98042759Y-100367334D01*
X98042760Y-100367335D01*
X98042761Y-100367337D01*
X98127630Y-100494352D01*
X98235648Y-100602370D01*
X98362663Y-100687239D01*
X98503795Y-100745698D01*
X98653620Y-100775500D01*
X98653621Y-100775500D01*
X98806379Y-100775500D01*
X98806380Y-100775500D01*
X98956205Y-100745698D01*
X99097337Y-100687239D01*
X99097340Y-100687237D01*
X99228397Y-100599668D01*
X99229335Y-100601072D01*
X99279793Y-100581306D01*
X99339000Y-100596736D01*
X99364904Y-100620801D01*
X99371024Y-100628976D01*
X99489117Y-100717379D01*
X99627333Y-100768931D01*
X99688435Y-100775500D01*
X100097388Y-100775499D01*
X100155579Y-100794406D01*
X100167392Y-100804495D01*
X106073386Y-106710489D01*
X106073388Y-106710490D01*
X106073389Y-106710491D01*
X106073390Y-106710492D01*
X106176107Y-106769796D01*
X106176109Y-106769797D01*
X106176113Y-106769799D01*
X106200322Y-106776284D01*
X106200325Y-106776287D01*
X106200326Y-106776286D01*
X106290688Y-106800499D01*
X106290690Y-106800500D01*
X106290691Y-106800500D01*
X109200810Y-106800500D01*
X109259001Y-106819407D01*
X109294965Y-106868907D01*
X109294965Y-106930093D01*
X109280903Y-106957691D01*
X109218766Y-107043213D01*
X109140127Y-107197553D01*
X109138977Y-107201095D01*
X109103011Y-107250594D01*
X109044823Y-107269500D01*
X100186189Y-107269500D01*
X100127998Y-107250593D01*
X100116185Y-107240504D01*
X93794626Y-100918944D01*
X93766849Y-100864427D01*
X93776420Y-100803995D01*
X93819685Y-100760730D01*
X93845314Y-100751842D01*
X93876205Y-100745698D01*
X94017337Y-100687239D01*
X94144352Y-100602370D01*
X94214996Y-100531726D01*
X94269512Y-100503948D01*
X94329944Y-100513519D01*
X94355004Y-100531726D01*
X94425639Y-100602362D01*
X94425643Y-100602365D01*
X94425648Y-100602370D01*
X94552663Y-100687239D01*
X94693795Y-100745698D01*
X94843620Y-100775500D01*
X94843621Y-100775500D01*
X94996379Y-100775500D01*
X94996380Y-100775500D01*
X95146205Y-100745698D01*
X95287337Y-100687239D01*
X95414352Y-100602370D01*
X95484996Y-100531726D01*
X95539512Y-100503948D01*
X95599944Y-100513519D01*
X95625004Y-100531726D01*
X95695639Y-100602362D01*
X95695643Y-100602365D01*
X95695648Y-100602370D01*
X95822663Y-100687239D01*
X95963795Y-100745698D01*
X96113620Y-100775500D01*
X96113621Y-100775500D01*
X96266379Y-100775500D01*
X96266380Y-100775500D01*
X96416205Y-100745698D01*
X96557337Y-100687239D01*
X96684352Y-100602370D01*
X96792370Y-100494352D01*
X96877239Y-100367337D01*
X96892376Y-100330793D01*
X96913834Y-100298677D01*
X97162750Y-100049760D01*
X97180444Y-100115796D01*
G37*
%TD.AperFunction*%
%TA.AperFunction,Conductor*%
G36*
X97394003Y-99002507D02*
G01*
X97429967Y-99052007D01*
X97429967Y-99113193D01*
X97394003Y-99162693D01*
X97355126Y-99179698D01*
X97219356Y-99206704D01*
X97219354Y-99206704D01*
X97069218Y-99268892D01*
X97013566Y-99306077D01*
X97410238Y-99702750D01*
X97344204Y-99720444D01*
X97275795Y-99759940D01*
X97219940Y-99815795D01*
X97180444Y-99884204D01*
X97162750Y-99950237D01*
X96913835Y-99701322D01*
X96892375Y-99669204D01*
X96877240Y-99632665D01*
X96877240Y-99632664D01*
X96840417Y-99577555D01*
X96792370Y-99505648D01*
X96684352Y-99397630D01*
X96557337Y-99312761D01*
X96557336Y-99312760D01*
X96557334Y-99312759D01*
X96416206Y-99254302D01*
X96416199Y-99254300D01*
X96385313Y-99248156D01*
X96331930Y-99218258D01*
X96306316Y-99162693D01*
X96318254Y-99102683D01*
X96334627Y-99081055D01*
X96403087Y-99012596D01*
X96457604Y-98984819D01*
X96473090Y-98983600D01*
X97335812Y-98983600D01*
X97394003Y-99002507D01*
G37*
%TD.AperFunction*%
%TA.AperFunction,Conductor*%
G36*
X116317683Y-97319407D02*
G01*
X116329496Y-97329496D01*
X117070504Y-98070504D01*
X117098281Y-98125021D01*
X117099500Y-98140508D01*
X117099500Y-122059492D01*
X117080593Y-122117683D01*
X117070504Y-122129496D01*
X116329496Y-122870504D01*
X116274979Y-122898281D01*
X116259492Y-122899500D01*
X89240508Y-122899500D01*
X89182317Y-122880593D01*
X89170504Y-122870504D01*
X88429496Y-122129496D01*
X88401719Y-122074979D01*
X88400500Y-122059492D01*
X88400500Y-117703617D01*
X89064500Y-117703617D01*
X89064500Y-117856382D01*
X89094302Y-118006204D01*
X89094302Y-118006206D01*
X89152759Y-118147334D01*
X89152759Y-118147335D01*
X89189578Y-118202438D01*
X89237630Y-118274352D01*
X89345648Y-118382370D01*
X89472663Y-118467239D01*
X89613795Y-118525698D01*
X89763620Y-118555500D01*
X89763621Y-118555500D01*
X89916379Y-118555500D01*
X89916380Y-118555500D01*
X90066205Y-118525698D01*
X90207337Y-118467239D01*
X90334352Y-118382370D01*
X90404996Y-118311726D01*
X90459512Y-118283948D01*
X90519944Y-118293519D01*
X90545004Y-118311726D01*
X90615639Y-118382362D01*
X90615643Y-118382365D01*
X90615648Y-118382370D01*
X90742663Y-118467239D01*
X90883795Y-118525698D01*
X91033620Y-118555500D01*
X91033621Y-118555500D01*
X91186379Y-118555500D01*
X91186380Y-118555500D01*
X91336205Y-118525698D01*
X91477337Y-118467239D01*
X91604352Y-118382370D01*
X91674996Y-118311726D01*
X91729512Y-118283948D01*
X91789944Y-118293519D01*
X91815004Y-118311726D01*
X91885639Y-118382362D01*
X91885643Y-118382365D01*
X91885648Y-118382370D01*
X92012663Y-118467239D01*
X92153795Y-118525698D01*
X92303620Y-118555500D01*
X92303621Y-118555500D01*
X92456379Y-118555500D01*
X92456380Y-118555500D01*
X92606205Y-118525698D01*
X92747337Y-118467239D01*
X92874352Y-118382370D01*
X92944996Y-118311726D01*
X92999512Y-118283948D01*
X93059944Y-118293519D01*
X93085004Y-118311726D01*
X93155639Y-118382362D01*
X93155643Y-118382365D01*
X93155648Y-118382370D01*
X93282663Y-118467239D01*
X93423795Y-118525698D01*
X93573620Y-118555500D01*
X93573621Y-118555500D01*
X93726379Y-118555500D01*
X93726380Y-118555500D01*
X93876205Y-118525698D01*
X94017337Y-118467239D01*
X94144352Y-118382370D01*
X94214996Y-118311726D01*
X94269512Y-118283948D01*
X94329944Y-118293519D01*
X94355004Y-118311726D01*
X94425639Y-118382362D01*
X94425643Y-118382365D01*
X94425648Y-118382370D01*
X94552663Y-118467239D01*
X94693795Y-118525698D01*
X94843620Y-118555500D01*
X94843621Y-118555500D01*
X94996379Y-118555500D01*
X94996380Y-118555500D01*
X95146205Y-118525698D01*
X95287337Y-118467239D01*
X95414352Y-118382370D01*
X95484996Y-118311726D01*
X95539512Y-118283948D01*
X95599944Y-118293519D01*
X95625004Y-118311726D01*
X95695639Y-118382362D01*
X95695643Y-118382365D01*
X95695648Y-118382370D01*
X95822663Y-118467239D01*
X95963795Y-118525698D01*
X96113620Y-118555500D01*
X96113621Y-118555500D01*
X96266379Y-118555500D01*
X96266380Y-118555500D01*
X96416205Y-118525698D01*
X96557337Y-118467239D01*
X96684352Y-118382370D01*
X96754996Y-118311726D01*
X96809512Y-118283948D01*
X96869944Y-118293519D01*
X96895004Y-118311726D01*
X96965639Y-118382362D01*
X96965643Y-118382365D01*
X96965648Y-118382370D01*
X97092663Y-118467239D01*
X97233795Y-118525698D01*
X97383620Y-118555500D01*
X97383621Y-118555500D01*
X97536379Y-118555500D01*
X97536380Y-118555500D01*
X97686205Y-118525698D01*
X97827337Y-118467239D01*
X97954352Y-118382370D01*
X98024996Y-118311726D01*
X98079512Y-118283948D01*
X98139944Y-118293519D01*
X98165004Y-118311726D01*
X98235639Y-118382362D01*
X98235643Y-118382365D01*
X98235648Y-118382370D01*
X98362663Y-118467239D01*
X98503795Y-118525698D01*
X98653620Y-118555500D01*
X98653621Y-118555500D01*
X98806379Y-118555500D01*
X98806380Y-118555500D01*
X98956205Y-118525698D01*
X99097337Y-118467239D01*
X99097340Y-118467237D01*
X99228397Y-118379668D01*
X99229335Y-118381072D01*
X99279793Y-118361306D01*
X99339000Y-118376736D01*
X99364904Y-118400801D01*
X99371024Y-118408976D01*
X99489117Y-118497379D01*
X99627333Y-118548931D01*
X99688435Y-118555500D01*
X100311564Y-118555499D01*
X100372667Y-118548931D01*
X100510883Y-118497379D01*
X100628976Y-118408976D01*
X100717379Y-118290883D01*
X100768931Y-118152667D01*
X100775500Y-118091565D01*
X100775499Y-117468436D01*
X100768931Y-117407333D01*
X100717379Y-117269117D01*
X100628976Y-117151024D01*
X100628972Y-117151021D01*
X100510882Y-117062620D01*
X100414903Y-117026822D01*
X100366989Y-116988771D01*
X100350500Y-116934064D01*
X100350500Y-114147089D01*
X100369407Y-114088898D01*
X100379490Y-114077091D01*
X105028796Y-109427784D01*
X105083313Y-109400008D01*
X105143745Y-109409579D01*
X105187010Y-109452844D01*
X105197800Y-109497789D01*
X105197800Y-118868409D01*
X105222013Y-118958773D01*
X105222012Y-118958773D01*
X105228500Y-118982986D01*
X105228502Y-118982990D01*
X105287807Y-119085709D01*
X105287808Y-119085710D01*
X105287809Y-119085711D01*
X105287811Y-119085714D01*
X105993410Y-119791313D01*
X106630513Y-120428416D01*
X106656135Y-120472795D01*
X106681616Y-120567886D01*
X106681617Y-120567888D01*
X106754087Y-120693410D01*
X106754089Y-120693412D01*
X106754091Y-120693415D01*
X106856585Y-120795909D01*
X106856587Y-120795910D01*
X106856589Y-120795912D01*
X106982111Y-120868382D01*
X106982112Y-120868382D01*
X106982115Y-120868384D01*
X107077201Y-120893862D01*
X107121582Y-120919485D01*
X108162586Y-121960489D01*
X108162588Y-121960490D01*
X108162589Y-121960491D01*
X108162590Y-121960492D01*
X108265307Y-122019796D01*
X108265309Y-122019797D01*
X108265313Y-122019799D01*
X108289522Y-122026284D01*
X108289525Y-122026287D01*
X108289526Y-122026286D01*
X108379888Y-122050499D01*
X108379890Y-122050500D01*
X108379891Y-122050500D01*
X108960500Y-122050500D01*
X109018691Y-122069407D01*
X109054655Y-122118907D01*
X109059500Y-122149500D01*
X109059500Y-122474672D01*
X109059501Y-122474684D01*
X109074033Y-122547736D01*
X109074035Y-122547742D01*
X109129397Y-122630599D01*
X109129399Y-122630601D01*
X109212260Y-122685966D01*
X109255771Y-122694621D01*
X109285315Y-122700498D01*
X109285320Y-122700498D01*
X109285326Y-122700500D01*
X109285327Y-122700500D01*
X111034673Y-122700500D01*
X111034674Y-122700500D01*
X111107740Y-122685966D01*
X111190601Y-122630601D01*
X111245966Y-122547740D01*
X111260500Y-122474674D01*
X111260500Y-120725326D01*
X111245966Y-120652260D01*
X111197768Y-120580125D01*
X111190602Y-120569400D01*
X111190599Y-120569397D01*
X111107742Y-120514035D01*
X111107740Y-120514034D01*
X111107737Y-120514033D01*
X111107736Y-120514033D01*
X111034684Y-120499501D01*
X111034674Y-120499500D01*
X109285326Y-120499500D01*
X109285325Y-120499500D01*
X109285315Y-120499501D01*
X109212263Y-120514033D01*
X109212257Y-120514035D01*
X109129400Y-120569397D01*
X109129397Y-120569400D01*
X109074035Y-120652257D01*
X109074033Y-120652263D01*
X109059501Y-120725315D01*
X109059500Y-120725327D01*
X109059500Y-121050500D01*
X109040593Y-121108691D01*
X108991093Y-121144655D01*
X108960500Y-121149500D01*
X108666811Y-121149500D01*
X108608620Y-121130593D01*
X108596807Y-121120504D01*
X107758684Y-120282381D01*
X107733062Y-120238002D01*
X107707584Y-120142915D01*
X107707582Y-120142912D01*
X107707582Y-120142910D01*
X107635112Y-120017389D01*
X107635110Y-120017387D01*
X107635109Y-120017385D01*
X107532615Y-119914891D01*
X107532612Y-119914889D01*
X107532610Y-119914887D01*
X107407088Y-119842417D01*
X107407086Y-119842416D01*
X107311995Y-119816935D01*
X107267616Y-119791313D01*
X106127796Y-118651493D01*
X106100019Y-118596976D01*
X106098800Y-118581489D01*
X106098800Y-117693385D01*
X109059500Y-117693385D01*
X109059500Y-117866614D01*
X109086597Y-118037702D01*
X109086598Y-118037706D01*
X109140123Y-118202438D01*
X109140125Y-118202441D01*
X109185187Y-118290882D01*
X109218768Y-118356788D01*
X109320586Y-118496928D01*
X109443072Y-118619414D01*
X109583212Y-118721232D01*
X109737555Y-118799873D01*
X109737557Y-118799873D01*
X109737558Y-118799874D01*
X109737561Y-118799876D01*
X109902293Y-118853401D01*
X109902297Y-118853402D01*
X110073386Y-118880500D01*
X110073389Y-118880500D01*
X110246614Y-118880500D01*
X110417702Y-118853402D01*
X110417706Y-118853401D01*
X110582438Y-118799876D01*
X110582440Y-118799874D01*
X110582445Y-118799873D01*
X110736788Y-118721232D01*
X110876928Y-118619414D01*
X110999414Y-118496928D01*
X111101232Y-118356788D01*
X111179873Y-118202445D01*
X111179874Y-118202440D01*
X111179876Y-118202438D01*
X111233401Y-118037706D01*
X111233402Y-118037702D01*
X111260500Y-117866614D01*
X111260500Y-117693385D01*
X111233402Y-117522297D01*
X111233401Y-117522293D01*
X111179876Y-117357561D01*
X111179874Y-117357558D01*
X111179873Y-117357557D01*
X111179873Y-117357555D01*
X111101232Y-117203212D01*
X110999414Y-117063072D01*
X110876928Y-116940586D01*
X110736788Y-116838768D01*
X110736787Y-116838767D01*
X110736785Y-116838766D01*
X110582441Y-116760125D01*
X110582438Y-116760123D01*
X110417706Y-116706598D01*
X110417702Y-116706597D01*
X110246614Y-116679500D01*
X110246611Y-116679500D01*
X110073389Y-116679500D01*
X110073386Y-116679500D01*
X109902297Y-116706597D01*
X109902293Y-116706598D01*
X109737561Y-116760123D01*
X109737558Y-116760125D01*
X109583214Y-116838766D01*
X109443073Y-116940585D01*
X109320585Y-117063073D01*
X109218766Y-117203214D01*
X109140125Y-117357558D01*
X109140123Y-117357561D01*
X109086598Y-117522293D01*
X109086597Y-117522297D01*
X109059500Y-117693385D01*
X106098800Y-117693385D01*
X106098800Y-109448236D01*
X106112062Y-109398738D01*
X106124855Y-109376580D01*
X106170323Y-109335640D01*
X106231174Y-109329244D01*
X106280595Y-109356077D01*
X107265304Y-110340786D01*
X107293081Y-110395303D01*
X107294300Y-110410790D01*
X107294300Y-111809943D01*
X107314381Y-111884887D01*
X107314381Y-111884888D01*
X107318183Y-111899081D01*
X107318185Y-111899084D01*
X107318186Y-111899088D01*
X107364330Y-111979012D01*
X109559675Y-114174357D01*
X109587451Y-114228872D01*
X109577880Y-114289304D01*
X109547861Y-114324451D01*
X109443077Y-114400581D01*
X109320585Y-114523073D01*
X109218766Y-114663214D01*
X109140125Y-114817558D01*
X109140123Y-114817561D01*
X109086598Y-114982293D01*
X109086597Y-114982297D01*
X109059500Y-115153385D01*
X109059500Y-115326614D01*
X109086597Y-115497702D01*
X109086598Y-115497706D01*
X109140123Y-115662438D01*
X109140125Y-115662441D01*
X109140126Y-115662444D01*
X109140127Y-115662445D01*
X109218768Y-115816788D01*
X109320586Y-115956928D01*
X109443072Y-116079414D01*
X109583212Y-116181232D01*
X109737555Y-116259873D01*
X109737557Y-116259873D01*
X109737558Y-116259874D01*
X109737561Y-116259876D01*
X109902293Y-116313401D01*
X109902297Y-116313402D01*
X110073386Y-116340500D01*
X110073389Y-116340500D01*
X110246614Y-116340500D01*
X110417702Y-116313402D01*
X110417706Y-116313401D01*
X110582438Y-116259876D01*
X110582440Y-116259874D01*
X110582445Y-116259873D01*
X110736788Y-116181232D01*
X110876928Y-116079414D01*
X110999414Y-115956928D01*
X111101232Y-115816788D01*
X111179873Y-115662445D01*
X111179874Y-115662440D01*
X111179876Y-115662438D01*
X111233401Y-115497706D01*
X111233402Y-115497702D01*
X111260500Y-115326614D01*
X111260500Y-115153385D01*
X111233402Y-114982297D01*
X111233401Y-114982293D01*
X111179876Y-114817561D01*
X111179874Y-114817558D01*
X111179873Y-114817557D01*
X111179873Y-114817555D01*
X111101232Y-114663212D01*
X110999414Y-114523072D01*
X110965843Y-114489501D01*
X110938068Y-114434987D01*
X110947639Y-114374555D01*
X110990904Y-114331290D01*
X111035849Y-114320500D01*
X111243810Y-114320500D01*
X111302001Y-114339407D01*
X111313814Y-114349496D01*
X111663609Y-114699291D01*
X111691386Y-114753808D01*
X111681820Y-114814229D01*
X111680130Y-114817546D01*
X111680123Y-114817561D01*
X111626598Y-114982293D01*
X111626597Y-114982297D01*
X111599500Y-115153385D01*
X111599500Y-115326614D01*
X111626597Y-115497702D01*
X111626598Y-115497706D01*
X111680123Y-115662438D01*
X111680125Y-115662441D01*
X111680126Y-115662444D01*
X111680127Y-115662445D01*
X111758768Y-115816788D01*
X111860586Y-115956928D01*
X111983072Y-116079414D01*
X112123212Y-116181232D01*
X112277555Y-116259873D01*
X112277557Y-116259873D01*
X112277558Y-116259874D01*
X112277561Y-116259876D01*
X112442293Y-116313401D01*
X112442297Y-116313402D01*
X112613386Y-116340500D01*
X112613389Y-116340500D01*
X112786614Y-116340500D01*
X112957702Y-116313402D01*
X112957706Y-116313401D01*
X113122438Y-116259876D01*
X113122440Y-116259874D01*
X113122445Y-116259873D01*
X113276788Y-116181232D01*
X113318710Y-116150773D01*
X113376900Y-116131867D01*
X113435091Y-116150774D01*
X113471055Y-116200274D01*
X113475900Y-116230867D01*
X113475900Y-116789132D01*
X113456993Y-116847323D01*
X113407493Y-116883287D01*
X113346307Y-116883287D01*
X113318710Y-116869225D01*
X113276791Y-116838770D01*
X113276787Y-116838767D01*
X113122441Y-116760125D01*
X113122438Y-116760123D01*
X112957706Y-116706598D01*
X112957702Y-116706597D01*
X112786614Y-116679500D01*
X112786611Y-116679500D01*
X112613389Y-116679500D01*
X112613386Y-116679500D01*
X112442297Y-116706597D01*
X112442293Y-116706598D01*
X112277561Y-116760123D01*
X112277558Y-116760125D01*
X112123214Y-116838766D01*
X111983073Y-116940585D01*
X111860585Y-117063073D01*
X111758766Y-117203214D01*
X111680125Y-117357558D01*
X111680123Y-117357561D01*
X111626598Y-117522293D01*
X111626597Y-117522297D01*
X111599500Y-117693385D01*
X111599500Y-117866614D01*
X111626597Y-118037702D01*
X111626598Y-118037706D01*
X111680123Y-118202438D01*
X111680125Y-118202441D01*
X111725187Y-118290882D01*
X111758768Y-118356788D01*
X111860586Y-118496928D01*
X111983072Y-118619414D01*
X112123212Y-118721232D01*
X112277555Y-118799873D01*
X112277557Y-118799873D01*
X112277558Y-118799874D01*
X112277561Y-118799876D01*
X112442293Y-118853401D01*
X112442297Y-118853402D01*
X112613386Y-118880500D01*
X112613389Y-118880500D01*
X112786614Y-118880500D01*
X112957702Y-118853402D01*
X112957706Y-118853401D01*
X113122438Y-118799876D01*
X113122440Y-118799874D01*
X113122445Y-118799873D01*
X113276788Y-118721232D01*
X113318710Y-118690773D01*
X113376900Y-118671867D01*
X113435091Y-118690774D01*
X113471055Y-118740274D01*
X113475900Y-118770867D01*
X113475900Y-120145989D01*
X113456993Y-120204180D01*
X113446903Y-120215993D01*
X113135396Y-120527499D01*
X113080880Y-120555276D01*
X113034799Y-120551649D01*
X112957702Y-120526597D01*
X112786614Y-120499500D01*
X112786611Y-120499500D01*
X112613389Y-120499500D01*
X112613386Y-120499500D01*
X112442297Y-120526597D01*
X112442293Y-120526598D01*
X112277561Y-120580123D01*
X112277558Y-120580125D01*
X112123214Y-120658766D01*
X111983073Y-120760585D01*
X111860585Y-120883073D01*
X111758766Y-121023214D01*
X111680125Y-121177558D01*
X111680123Y-121177561D01*
X111626598Y-121342293D01*
X111626597Y-121342297D01*
X111599500Y-121513385D01*
X111599500Y-121686614D01*
X111626597Y-121857702D01*
X111626598Y-121857706D01*
X111680123Y-122022438D01*
X111680125Y-122022441D01*
X111746344Y-122152406D01*
X111758768Y-122176788D01*
X111860586Y-122316928D01*
X111983072Y-122439414D01*
X112123212Y-122541232D01*
X112277555Y-122619873D01*
X112277557Y-122619873D01*
X112277558Y-122619874D01*
X112277561Y-122619876D01*
X112442293Y-122673401D01*
X112442297Y-122673402D01*
X112613386Y-122700500D01*
X112613389Y-122700500D01*
X112786614Y-122700500D01*
X112957702Y-122673402D01*
X112957706Y-122673401D01*
X113122438Y-122619876D01*
X113122440Y-122619874D01*
X113122445Y-122619873D01*
X113276788Y-122541232D01*
X113416928Y-122439414D01*
X113539414Y-122316928D01*
X113641232Y-122176788D01*
X113719873Y-122022445D01*
X113719874Y-122022440D01*
X113719876Y-122022438D01*
X113773401Y-121857706D01*
X113773402Y-121857702D01*
X113800500Y-121686614D01*
X113800500Y-121513385D01*
X113773403Y-121342302D01*
X113773402Y-121342300D01*
X113748350Y-121265198D01*
X113748349Y-121204013D01*
X113772498Y-121164603D01*
X114286890Y-120650213D01*
X114346199Y-120547486D01*
X114356247Y-120509987D01*
X114376900Y-120432909D01*
X114376900Y-112102191D01*
X114346199Y-111987614D01*
X114346199Y-111987613D01*
X114346199Y-111987612D01*
X114286892Y-111884890D01*
X114286890Y-111884888D01*
X114286889Y-111884886D01*
X113479173Y-111077170D01*
X113451398Y-111022656D01*
X113460969Y-110962224D01*
X113479173Y-110937168D01*
X113539414Y-110876928D01*
X113641232Y-110736788D01*
X113719873Y-110582445D01*
X113719874Y-110582440D01*
X113719876Y-110582438D01*
X113773401Y-110417706D01*
X113773402Y-110417702D01*
X113800500Y-110246614D01*
X113800500Y-110073385D01*
X113773402Y-109902297D01*
X113773401Y-109902293D01*
X113719876Y-109737561D01*
X113719874Y-109737558D01*
X113719873Y-109737557D01*
X113719873Y-109737555D01*
X113641232Y-109583212D01*
X113539414Y-109443072D01*
X113416928Y-109320586D01*
X113276788Y-109218768D01*
X113276787Y-109218767D01*
X113276785Y-109218766D01*
X113122441Y-109140125D01*
X113122438Y-109140123D01*
X112957706Y-109086598D01*
X112957702Y-109086597D01*
X112786614Y-109059500D01*
X112786611Y-109059500D01*
X112613389Y-109059500D01*
X112613386Y-109059500D01*
X112442297Y-109086597D01*
X112442293Y-109086598D01*
X112277561Y-109140123D01*
X112277558Y-109140125D01*
X112123213Y-109218766D01*
X112037691Y-109280903D01*
X111979500Y-109299810D01*
X111921309Y-109280903D01*
X111885345Y-109231403D01*
X111880500Y-109200810D01*
X111880500Y-108579189D01*
X111899407Y-108520998D01*
X111948907Y-108485034D01*
X112010093Y-108485034D01*
X112037690Y-108499096D01*
X112123212Y-108561232D01*
X112277555Y-108639873D01*
X112277557Y-108639873D01*
X112277558Y-108639874D01*
X112277561Y-108639876D01*
X112442293Y-108693401D01*
X112442297Y-108693402D01*
X112613386Y-108720500D01*
X112613389Y-108720500D01*
X112786614Y-108720500D01*
X112957702Y-108693402D01*
X112957706Y-108693401D01*
X113122438Y-108639876D01*
X113122440Y-108639874D01*
X113122445Y-108639873D01*
X113276788Y-108561232D01*
X113416928Y-108459414D01*
X113539414Y-108336928D01*
X113641232Y-108196788D01*
X113719873Y-108042445D01*
X113719874Y-108042440D01*
X113719876Y-108042438D01*
X113773401Y-107877706D01*
X113773402Y-107877702D01*
X113800500Y-107706614D01*
X113800500Y-107533385D01*
X113773402Y-107362297D01*
X113773401Y-107362293D01*
X113719876Y-107197561D01*
X113719874Y-107197558D01*
X113719873Y-107197557D01*
X113719873Y-107197555D01*
X113641232Y-107043212D01*
X113539414Y-106903072D01*
X113416928Y-106780586D01*
X113276788Y-106678768D01*
X113276787Y-106678767D01*
X113276785Y-106678766D01*
X113122441Y-106600125D01*
X113122438Y-106600123D01*
X112957706Y-106546598D01*
X112957702Y-106546597D01*
X112786614Y-106519500D01*
X112786611Y-106519500D01*
X112613389Y-106519500D01*
X112613386Y-106519500D01*
X112442297Y-106546597D01*
X112442293Y-106546598D01*
X112277561Y-106600123D01*
X112277558Y-106600125D01*
X112123214Y-106678766D01*
X111983069Y-106780588D01*
X111896983Y-106866674D01*
X111842466Y-106894451D01*
X111782034Y-106884879D01*
X111756983Y-106866679D01*
X110913323Y-106023020D01*
X110885548Y-105968506D01*
X110895119Y-105908074D01*
X110913323Y-105883018D01*
X110999414Y-105796928D01*
X111101232Y-105656788D01*
X111179873Y-105502445D01*
X111179874Y-105502440D01*
X111179876Y-105502438D01*
X111233401Y-105337706D01*
X111233402Y-105337702D01*
X111260500Y-105166614D01*
X111260500Y-104993385D01*
X111259883Y-104989489D01*
X111550000Y-104989489D01*
X111550000Y-105170510D01*
X111578316Y-105349289D01*
X111634250Y-105521440D01*
X111716431Y-105682730D01*
X111716435Y-105682736D01*
X111772545Y-105759964D01*
X112243387Y-105289121D01*
X112299901Y-105387007D01*
X112392993Y-105480099D01*
X112490875Y-105536611D01*
X112020034Y-106007452D01*
X112020034Y-106007453D01*
X112097263Y-106063564D01*
X112097269Y-106063568D01*
X112258559Y-106145749D01*
X112430710Y-106201683D01*
X112609490Y-106230000D01*
X112790510Y-106230000D01*
X112969289Y-106201683D01*
X113141440Y-106145749D01*
X113302733Y-106063566D01*
X113379964Y-106007453D01*
X112909123Y-105536612D01*
X113007007Y-105480099D01*
X113100099Y-105387007D01*
X113156612Y-105289123D01*
X113627453Y-105759964D01*
X113683566Y-105682733D01*
X113765749Y-105521440D01*
X113821683Y-105349289D01*
X113850000Y-105170510D01*
X113850000Y-104989489D01*
X113821683Y-104810710D01*
X113765749Y-104638559D01*
X113683568Y-104477269D01*
X113683564Y-104477263D01*
X113627453Y-104400034D01*
X113627452Y-104400034D01*
X113156611Y-104870875D01*
X113100099Y-104772993D01*
X113007007Y-104679901D01*
X112909121Y-104623387D01*
X113379964Y-104152545D01*
X113302736Y-104096435D01*
X113302730Y-104096431D01*
X113141440Y-104014250D01*
X112969289Y-103958316D01*
X112790510Y-103930000D01*
X112609490Y-103930000D01*
X112430710Y-103958316D01*
X112258559Y-104014250D01*
X112097269Y-104096431D01*
X112097265Y-104096433D01*
X112020034Y-104152545D01*
X112490876Y-104623387D01*
X112392993Y-104679901D01*
X112299901Y-104772993D01*
X112243387Y-104870876D01*
X111772545Y-104400034D01*
X111716433Y-104477265D01*
X111716431Y-104477269D01*
X111634250Y-104638559D01*
X111578316Y-104810710D01*
X111550000Y-104989489D01*
X111259883Y-104989489D01*
X111233402Y-104822297D01*
X111233401Y-104822293D01*
X111179876Y-104657561D01*
X111179874Y-104657558D01*
X111179873Y-104657557D01*
X111179873Y-104657555D01*
X111101232Y-104503212D01*
X110999414Y-104363072D01*
X110876928Y-104240586D01*
X110736788Y-104138768D01*
X110736787Y-104138767D01*
X110736785Y-104138766D01*
X110582441Y-104060125D01*
X110582438Y-104060123D01*
X110417706Y-104006598D01*
X110417702Y-104006597D01*
X110246614Y-103979500D01*
X110246611Y-103979500D01*
X110073389Y-103979500D01*
X110073386Y-103979500D01*
X109902297Y-104006597D01*
X109902293Y-104006598D01*
X109737561Y-104060123D01*
X109737558Y-104060125D01*
X109583214Y-104138766D01*
X109443073Y-104240585D01*
X109320585Y-104363073D01*
X109218766Y-104503214D01*
X109140125Y-104657558D01*
X109140123Y-104657561D01*
X109086598Y-104822293D01*
X109086597Y-104822297D01*
X109059501Y-104993378D01*
X109059500Y-104993384D01*
X109059500Y-105166614D01*
X109086597Y-105337702D01*
X109086598Y-105337706D01*
X109140123Y-105502438D01*
X109140125Y-105502441D01*
X109218766Y-105656786D01*
X109280903Y-105742309D01*
X109299810Y-105800500D01*
X109280903Y-105858691D01*
X109231403Y-105894655D01*
X109200810Y-105899500D01*
X106577611Y-105899500D01*
X106519420Y-105880593D01*
X106507607Y-105870504D01*
X100804495Y-100167392D01*
X100776718Y-100112875D01*
X100775499Y-100097388D01*
X100775499Y-99688441D01*
X100775499Y-99688436D01*
X100768931Y-99627333D01*
X100717379Y-99489117D01*
X100628976Y-99371024D01*
X100628972Y-99371021D01*
X100510882Y-99282620D01*
X100412520Y-99245933D01*
X100372667Y-99231069D01*
X100372663Y-99231068D01*
X100372661Y-99231068D01*
X100345033Y-99228098D01*
X100311565Y-99224500D01*
X100311561Y-99224500D01*
X99688441Y-99224500D01*
X99688435Y-99224501D01*
X99627335Y-99231068D01*
X99627333Y-99231069D01*
X99489117Y-99282620D01*
X99371024Y-99371022D01*
X99371021Y-99371025D01*
X99364901Y-99379201D01*
X99314890Y-99414451D01*
X99253711Y-99413573D01*
X99228807Y-99399715D01*
X99228395Y-99400332D01*
X99224353Y-99397631D01*
X99224352Y-99397630D01*
X99097337Y-99312761D01*
X99097336Y-99312760D01*
X99097334Y-99312759D01*
X98956205Y-99254302D01*
X98806382Y-99224500D01*
X98806380Y-99224500D01*
X98653620Y-99224500D01*
X98653617Y-99224500D01*
X98503795Y-99254302D01*
X98503793Y-99254302D01*
X98362665Y-99312759D01*
X98362664Y-99312759D01*
X98235648Y-99397630D01*
X98235644Y-99397633D01*
X98127633Y-99505644D01*
X98127630Y-99505648D01*
X98042761Y-99632662D01*
X98027624Y-99669205D01*
X98006165Y-99701320D01*
X97757248Y-99950236D01*
X97739556Y-99884204D01*
X97700060Y-99815795D01*
X97644205Y-99759940D01*
X97575796Y-99720444D01*
X97509759Y-99702750D01*
X97906433Y-99306077D01*
X97850781Y-99268892D01*
X97700644Y-99206704D01*
X97564874Y-99179698D01*
X97511490Y-99149801D01*
X97485874Y-99094236D01*
X97497811Y-99034227D01*
X97542741Y-98992694D01*
X97584188Y-98983600D01*
X106066910Y-98983600D01*
X106125101Y-99002507D01*
X106136914Y-99012596D01*
X109123609Y-101999291D01*
X109151386Y-102053808D01*
X109141820Y-102114229D01*
X109140130Y-102117546D01*
X109140123Y-102117561D01*
X109086598Y-102282293D01*
X109086597Y-102282297D01*
X109059500Y-102453385D01*
X109059500Y-102626614D01*
X109086597Y-102797702D01*
X109086598Y-102797706D01*
X109140123Y-102962438D01*
X109140125Y-102962441D01*
X109140126Y-102962444D01*
X109140127Y-102962445D01*
X109218768Y-103116788D01*
X109320586Y-103256928D01*
X109443072Y-103379414D01*
X109583212Y-103481232D01*
X109737555Y-103559873D01*
X109737557Y-103559873D01*
X109737558Y-103559874D01*
X109737561Y-103559876D01*
X109902293Y-103613401D01*
X109902297Y-103613402D01*
X110073386Y-103640500D01*
X110073389Y-103640500D01*
X110246614Y-103640500D01*
X110417702Y-103613402D01*
X110417706Y-103613401D01*
X110582438Y-103559876D01*
X110582440Y-103559874D01*
X110582445Y-103559873D01*
X110736788Y-103481232D01*
X110876928Y-103379414D01*
X110999414Y-103256928D01*
X111101232Y-103116788D01*
X111179873Y-102962445D01*
X111179874Y-102962440D01*
X111179876Y-102962438D01*
X111233401Y-102797706D01*
X111233402Y-102797702D01*
X111260500Y-102626614D01*
X111260500Y-102453385D01*
X111599500Y-102453385D01*
X111599500Y-102626614D01*
X111626597Y-102797702D01*
X111626598Y-102797706D01*
X111680123Y-102962438D01*
X111680125Y-102962441D01*
X111680126Y-102962444D01*
X111680127Y-102962445D01*
X111758768Y-103116788D01*
X111860586Y-103256928D01*
X111983072Y-103379414D01*
X112123212Y-103481232D01*
X112277555Y-103559873D01*
X112277557Y-103559873D01*
X112277558Y-103559874D01*
X112277561Y-103559876D01*
X112442293Y-103613401D01*
X112442297Y-103613402D01*
X112613386Y-103640500D01*
X112613389Y-103640500D01*
X112786614Y-103640500D01*
X112957702Y-103613402D01*
X112957706Y-103613401D01*
X113122438Y-103559876D01*
X113122440Y-103559874D01*
X113122445Y-103559873D01*
X113276788Y-103481232D01*
X113416928Y-103379414D01*
X113539414Y-103256928D01*
X113641232Y-103116788D01*
X113719873Y-102962445D01*
X113719874Y-102962440D01*
X113719876Y-102962438D01*
X113773401Y-102797706D01*
X113773402Y-102797702D01*
X113800500Y-102626614D01*
X113800500Y-102453385D01*
X113773402Y-102282297D01*
X113773401Y-102282293D01*
X113719876Y-102117561D01*
X113719874Y-102117558D01*
X113719873Y-102117557D01*
X113719873Y-102117555D01*
X113641232Y-101963212D01*
X113539414Y-101823072D01*
X113416928Y-101700586D01*
X113276788Y-101598768D01*
X113276787Y-101598767D01*
X113276785Y-101598766D01*
X113122441Y-101520125D01*
X113122438Y-101520123D01*
X112957706Y-101466598D01*
X112957702Y-101466597D01*
X112786614Y-101439500D01*
X112786611Y-101439500D01*
X112613389Y-101439500D01*
X112613386Y-101439500D01*
X112442297Y-101466597D01*
X112442293Y-101466598D01*
X112277561Y-101520123D01*
X112277558Y-101520125D01*
X112123214Y-101598766D01*
X111983073Y-101700585D01*
X111860585Y-101823073D01*
X111758766Y-101963214D01*
X111680125Y-102117558D01*
X111680123Y-102117561D01*
X111626598Y-102282293D01*
X111626597Y-102282297D01*
X111599500Y-102453385D01*
X111260500Y-102453385D01*
X111233402Y-102282297D01*
X111233401Y-102282293D01*
X111179876Y-102117561D01*
X111179874Y-102117558D01*
X111179873Y-102117557D01*
X111179873Y-102117555D01*
X111101232Y-101963212D01*
X110999414Y-101823072D01*
X110876928Y-101700586D01*
X110736788Y-101598768D01*
X110736787Y-101598767D01*
X110736785Y-101598766D01*
X110582441Y-101520125D01*
X110582438Y-101520123D01*
X110417706Y-101466598D01*
X110417702Y-101466597D01*
X110246614Y-101439500D01*
X110246611Y-101439500D01*
X110073389Y-101439500D01*
X110073386Y-101439500D01*
X109902297Y-101466597D01*
X109902293Y-101466598D01*
X109737561Y-101520123D01*
X109737546Y-101520130D01*
X109734229Y-101521820D01*
X109673795Y-101531384D01*
X109619291Y-101503609D01*
X109385186Y-101269504D01*
X109357409Y-101214987D01*
X109366980Y-101154555D01*
X109410245Y-101111290D01*
X109455190Y-101100500D01*
X111034673Y-101100500D01*
X111034674Y-101100500D01*
X111107740Y-101085966D01*
X111190601Y-101030601D01*
X111245966Y-100947740D01*
X111260500Y-100874674D01*
X111260500Y-99913385D01*
X111599500Y-99913385D01*
X111599500Y-100086614D01*
X111626597Y-100257702D01*
X111626598Y-100257706D01*
X111680123Y-100422438D01*
X111680125Y-100422441D01*
X111716766Y-100494355D01*
X111758768Y-100576788D01*
X111860586Y-100716928D01*
X111983072Y-100839414D01*
X112123212Y-100941232D01*
X112277555Y-101019873D01*
X112277557Y-101019873D01*
X112277558Y-101019874D01*
X112277561Y-101019876D01*
X112442293Y-101073401D01*
X112442297Y-101073402D01*
X112613386Y-101100500D01*
X112613389Y-101100500D01*
X112786614Y-101100500D01*
X112957702Y-101073402D01*
X112957706Y-101073401D01*
X113122438Y-101019876D01*
X113122440Y-101019874D01*
X113122445Y-101019873D01*
X113276788Y-100941232D01*
X113416928Y-100839414D01*
X113539414Y-100716928D01*
X113641232Y-100576788D01*
X113719873Y-100422445D01*
X113719874Y-100422440D01*
X113719876Y-100422438D01*
X113773401Y-100257706D01*
X113773402Y-100257702D01*
X113800500Y-100086614D01*
X113800500Y-99913385D01*
X113773402Y-99742297D01*
X113773401Y-99742293D01*
X113719876Y-99577561D01*
X113719874Y-99577558D01*
X113719873Y-99577557D01*
X113719873Y-99577555D01*
X113641232Y-99423212D01*
X113539414Y-99283072D01*
X113416928Y-99160586D01*
X113276788Y-99058768D01*
X113276787Y-99058767D01*
X113276785Y-99058766D01*
X113122441Y-98980125D01*
X113122438Y-98980123D01*
X112957706Y-98926598D01*
X112957702Y-98926597D01*
X112786614Y-98899500D01*
X112786611Y-98899500D01*
X112613389Y-98899500D01*
X112613386Y-98899500D01*
X112442297Y-98926597D01*
X112442293Y-98926598D01*
X112277561Y-98980123D01*
X112277558Y-98980125D01*
X112123214Y-99058766D01*
X111983073Y-99160585D01*
X111860585Y-99283073D01*
X111758766Y-99423214D01*
X111680125Y-99577558D01*
X111680123Y-99577561D01*
X111626598Y-99742293D01*
X111626597Y-99742297D01*
X111599500Y-99913385D01*
X111260500Y-99913385D01*
X111260500Y-99125326D01*
X111245966Y-99052260D01*
X111197768Y-98980125D01*
X111190602Y-98969400D01*
X111190599Y-98969397D01*
X111107742Y-98914035D01*
X111107740Y-98914034D01*
X111107737Y-98914033D01*
X111107736Y-98914033D01*
X111034684Y-98899501D01*
X111034674Y-98899500D01*
X109285326Y-98899500D01*
X109285325Y-98899500D01*
X109285315Y-98899501D01*
X109212263Y-98914033D01*
X109212257Y-98914035D01*
X109129400Y-98969397D01*
X109129397Y-98969400D01*
X109074035Y-99052257D01*
X109074033Y-99052263D01*
X109059501Y-99125315D01*
X109059500Y-99125327D01*
X109059500Y-100704810D01*
X109040593Y-100763001D01*
X108991093Y-100798965D01*
X108929907Y-100798965D01*
X108890496Y-100774814D01*
X107693237Y-99577555D01*
X106468312Y-98352630D01*
X106388388Y-98306486D01*
X106299244Y-98282600D01*
X96240756Y-98282600D01*
X96207354Y-98291550D01*
X96173951Y-98300500D01*
X96173950Y-98300499D01*
X96151614Y-98306485D01*
X96071685Y-98352632D01*
X95203481Y-99220834D01*
X95148965Y-99248611D01*
X95114164Y-99247928D01*
X94996383Y-99224500D01*
X94996380Y-99224500D01*
X94843620Y-99224500D01*
X94843617Y-99224500D01*
X94693795Y-99254302D01*
X94693793Y-99254302D01*
X94552665Y-99312759D01*
X94552664Y-99312759D01*
X94425648Y-99397630D01*
X94425644Y-99397633D01*
X94355004Y-99468274D01*
X94300487Y-99496051D01*
X94240055Y-99486480D01*
X94214996Y-99468274D01*
X94144355Y-99397633D01*
X94144352Y-99397630D01*
X94017337Y-99312761D01*
X94017336Y-99312760D01*
X94017334Y-99312759D01*
X93876205Y-99254302D01*
X93726382Y-99224500D01*
X93726380Y-99224500D01*
X93573620Y-99224500D01*
X93573617Y-99224500D01*
X93423795Y-99254302D01*
X93423793Y-99254302D01*
X93282665Y-99312759D01*
X93282664Y-99312759D01*
X93155648Y-99397630D01*
X93155644Y-99397633D01*
X93085004Y-99468274D01*
X93030487Y-99496051D01*
X92970055Y-99486480D01*
X92944996Y-99468274D01*
X92874355Y-99397633D01*
X92874352Y-99397630D01*
X92747337Y-99312761D01*
X92747336Y-99312760D01*
X92747334Y-99312759D01*
X92606205Y-99254302D01*
X92456382Y-99224500D01*
X92456380Y-99224500D01*
X92303620Y-99224500D01*
X92303617Y-99224500D01*
X92153795Y-99254302D01*
X92153793Y-99254302D01*
X92012665Y-99312759D01*
X92012664Y-99312759D01*
X91885648Y-99397630D01*
X91885644Y-99397633D01*
X91777633Y-99505644D01*
X91777630Y-99505648D01*
X91692759Y-99632664D01*
X91692759Y-99632665D01*
X91634302Y-99773793D01*
X91634302Y-99773795D01*
X91604500Y-99923617D01*
X91604500Y-100076382D01*
X91634302Y-100226204D01*
X91634302Y-100226206D01*
X91692759Y-100367334D01*
X91692759Y-100367335D01*
X91729578Y-100422438D01*
X91777630Y-100494352D01*
X91885648Y-100602370D01*
X92012663Y-100687239D01*
X92153795Y-100745698D01*
X92303620Y-100775500D01*
X92303621Y-100775500D01*
X92456379Y-100775500D01*
X92456380Y-100775500D01*
X92574165Y-100752071D01*
X92634926Y-100759263D01*
X92663483Y-100779165D01*
X99719531Y-107835212D01*
X99719530Y-107835212D01*
X99784787Y-107900468D01*
X99784789Y-107900470D01*
X99833702Y-107928710D01*
X99864712Y-107946614D01*
X99953856Y-107970500D01*
X104747710Y-107970500D01*
X104805901Y-107989407D01*
X104841865Y-108038907D01*
X104841865Y-108100093D01*
X104817714Y-108139504D01*
X99715327Y-113241891D01*
X99660810Y-113269668D01*
X99600378Y-113260097D01*
X99557113Y-113216832D01*
X99547542Y-113156400D01*
X99559588Y-113122385D01*
X99561591Y-113118914D01*
X99564784Y-113113385D01*
X99602300Y-112973375D01*
X99602300Y-112828425D01*
X99564784Y-112688415D01*
X99564782Y-112688412D01*
X99564782Y-112688410D01*
X99492312Y-112562889D01*
X99492308Y-112562884D01*
X99431296Y-112501871D01*
X99403519Y-112447354D01*
X99402300Y-112431868D01*
X99402300Y-111182490D01*
X99421207Y-111124299D01*
X99431296Y-111112486D01*
X99864586Y-110679196D01*
X99919103Y-110651419D01*
X99934590Y-110650200D01*
X100020874Y-110650200D01*
X100020875Y-110650200D01*
X100160885Y-110612684D01*
X100160887Y-110612682D01*
X100160889Y-110612682D01*
X100286410Y-110540212D01*
X100286410Y-110540211D01*
X100286415Y-110540209D01*
X100388909Y-110437715D01*
X100444871Y-110340786D01*
X100461382Y-110312189D01*
X100461382Y-110312187D01*
X100461384Y-110312185D01*
X100498900Y-110172175D01*
X100498900Y-110027225D01*
X100461384Y-109887215D01*
X100461382Y-109887212D01*
X100461382Y-109887210D01*
X100388912Y-109761689D01*
X100388910Y-109761687D01*
X100388909Y-109761685D01*
X100286415Y-109659191D01*
X100286412Y-109659189D01*
X100286410Y-109659187D01*
X100160888Y-109586717D01*
X100160889Y-109586717D01*
X100131296Y-109578787D01*
X100020875Y-109549200D01*
X99875925Y-109549200D01*
X99814190Y-109565741D01*
X99735910Y-109586717D01*
X99610389Y-109659187D01*
X99507887Y-109761689D01*
X99435417Y-109887210D01*
X99397900Y-110027225D01*
X99397900Y-110113510D01*
X99378993Y-110171701D01*
X99368904Y-110183514D01*
X98771327Y-110781091D01*
X98771326Y-110781093D01*
X98768731Y-110785589D01*
X98768728Y-110785594D01*
X98725187Y-110861007D01*
X98701300Y-110950157D01*
X98701300Y-112431868D01*
X98682393Y-112490059D01*
X98672304Y-112501871D01*
X98611291Y-112562884D01*
X98611287Y-112562889D01*
X98538817Y-112688410D01*
X98501300Y-112828425D01*
X98501300Y-112973374D01*
X98538817Y-113113389D01*
X98611287Y-113238910D01*
X98611289Y-113238912D01*
X98611291Y-113238915D01*
X98713785Y-113341409D01*
X98713787Y-113341410D01*
X98713789Y-113341412D01*
X98839311Y-113413882D01*
X98839312Y-113413882D01*
X98839315Y-113413884D01*
X98979325Y-113451400D01*
X98979326Y-113451400D01*
X99124274Y-113451400D01*
X99124275Y-113451400D01*
X99264285Y-113413884D01*
X99273285Y-113408688D01*
X99333132Y-113395965D01*
X99389029Y-113420850D01*
X99419623Y-113473837D01*
X99413229Y-113534687D01*
X99392791Y-113564427D01*
X95907936Y-117049282D01*
X95875820Y-117070741D01*
X95822662Y-117092761D01*
X95695648Y-117177630D01*
X95695644Y-117177633D01*
X95625004Y-117248274D01*
X95570487Y-117276051D01*
X95510055Y-117266480D01*
X95484996Y-117248274D01*
X95414355Y-117177633D01*
X95414352Y-117177630D01*
X95287337Y-117092761D01*
X95287336Y-117092760D01*
X95287334Y-117092759D01*
X95146205Y-117034302D01*
X94996382Y-117004500D01*
X94996380Y-117004500D01*
X94843620Y-117004500D01*
X94843617Y-117004500D01*
X94693795Y-117034302D01*
X94693793Y-117034302D01*
X94552665Y-117092759D01*
X94552664Y-117092759D01*
X94425648Y-117177630D01*
X94425644Y-117177633D01*
X94355004Y-117248274D01*
X94300487Y-117276051D01*
X94240055Y-117266480D01*
X94214996Y-117248274D01*
X94144355Y-117177633D01*
X94144352Y-117177630D01*
X94017337Y-117092761D01*
X94017336Y-117092760D01*
X94017334Y-117092759D01*
X93876205Y-117034302D01*
X93726382Y-117004500D01*
X93726380Y-117004500D01*
X93573620Y-117004500D01*
X93573617Y-117004500D01*
X93423795Y-117034302D01*
X93423793Y-117034302D01*
X93282665Y-117092759D01*
X93282664Y-117092759D01*
X93155648Y-117177630D01*
X93155644Y-117177633D01*
X93085004Y-117248274D01*
X93030487Y-117276051D01*
X92970055Y-117266480D01*
X92944996Y-117248274D01*
X92874355Y-117177633D01*
X92874352Y-117177630D01*
X92747337Y-117092761D01*
X92747336Y-117092760D01*
X92747334Y-117092759D01*
X92606205Y-117034302D01*
X92456382Y-117004500D01*
X92456380Y-117004500D01*
X92303620Y-117004500D01*
X92303617Y-117004500D01*
X92153795Y-117034302D01*
X92153793Y-117034302D01*
X92012665Y-117092759D01*
X92012664Y-117092759D01*
X91885648Y-117177630D01*
X91885644Y-117177633D01*
X91815004Y-117248274D01*
X91760487Y-117276051D01*
X91700055Y-117266480D01*
X91674996Y-117248274D01*
X91604355Y-117177633D01*
X91604352Y-117177630D01*
X91477337Y-117092761D01*
X91477336Y-117092760D01*
X91477334Y-117092759D01*
X91336205Y-117034302D01*
X91186382Y-117004500D01*
X91186380Y-117004500D01*
X91033620Y-117004500D01*
X91033617Y-117004500D01*
X90883795Y-117034302D01*
X90883793Y-117034302D01*
X90742665Y-117092759D01*
X90742664Y-117092759D01*
X90615648Y-117177630D01*
X90615644Y-117177633D01*
X90545004Y-117248274D01*
X90490487Y-117276051D01*
X90430055Y-117266480D01*
X90404996Y-117248274D01*
X90334355Y-117177633D01*
X90334352Y-117177630D01*
X90207337Y-117092761D01*
X90207336Y-117092760D01*
X90207334Y-117092759D01*
X90066205Y-117034302D01*
X89916382Y-117004500D01*
X89916380Y-117004500D01*
X89763620Y-117004500D01*
X89763617Y-117004500D01*
X89613795Y-117034302D01*
X89613793Y-117034302D01*
X89472665Y-117092759D01*
X89472664Y-117092759D01*
X89345648Y-117177630D01*
X89345644Y-117177633D01*
X89237633Y-117285644D01*
X89237630Y-117285648D01*
X89152759Y-117412664D01*
X89152759Y-117412665D01*
X89094302Y-117553793D01*
X89094302Y-117553795D01*
X89064500Y-117703617D01*
X88400500Y-117703617D01*
X88400500Y-98140508D01*
X88419407Y-98082317D01*
X88429496Y-98070504D01*
X89170504Y-97329496D01*
X89225021Y-97301719D01*
X89240508Y-97300500D01*
X116259492Y-97300500D01*
X116317683Y-97319407D01*
G37*
%TD.AperFunction*%
%TD*%
M02*
